<svg width="1543" height="274" viewBox="0 0 1543 274" fill="none" xmlns="http://www.w3.org/2000/svg">
<path d="M130.6 87.5068V208.207C130.6 228.707 125 244.407 113.9 255.207C102.8 266.107 87.5 271.507 68 271.507C47.3 271.507 30.8 265.707 18.5 254.207C6.2 242.707 0 226.007 0 204.307H50.1C50.3 218.607 55.5 225.707 65.9 225.707C75.2 225.707 79.9 219.807 79.9 208.107V87.5068H130.6Z" fill="#FF7900"/>
<path d="M504.7 269.607H454.1L386.6 167.907V269.607H336V87.5068H386.6L454 190.607V87.5068H504.6V269.607H504.7Z" fill="#FF7900"/>
<path d="M778.799 230.907H835.399V269.707H728.199V87.5068H778.799V230.907Z" fill="#FF7900"/>
<path d="M1165.9 147.406C1163 142.606 1159 138.906 1153.9 136.306C1148.8 133.706 1142.8 132.406 1135.9 132.406C1123.2 132.406 1113.1 136.506 1105.8 144.806C1098.5 153.106 1094.8 164.206 1094.8 178.106C1094.8 193.806 1098.7 205.706 1106.6 213.906C1114.4 222.106 1125.8 226.206 1140.8 226.206C1158.5 226.206 1171.2 218.206 1178.8 202.206H1127.9V165.806H1222.5V214.906C1218.5 224.507 1212.7 233.606 1205.1 242.006C1197.4 250.406 1187.7 257.406 1176 262.806C1164.3 268.206 1150.9 270.906 1136 270.906C1117.7 270.906 1101.6 267.006 1087.6 259.106C1073.6 251.306 1062.7 240.306 1055 226.306C1047.3 212.306 1043.5 196.206 1043.5 178.106C1043.5 160.206 1047.3 144.206 1055 130.206C1062.7 116.206 1073.5 105.206 1087.4 97.4064C1101.4 89.6064 1117.5 85.6064 1135.7 85.6064C1158.6 85.6064 1177.6 91.1064 1192.5 102.106C1207.5 113.106 1216.8 128.206 1220.4 147.306H1165.9V147.406Z" fill="#FF7900"/>
<path d="M1291.4 87.5068V269.607H1240.8V87.5068H1291.4Z" fill="#FF7900"/>
<path d="M1432.2 171.607L1485.7 87.5068H1428.1L1403.7 129.107L1432.2 171.607Z" fill="#FF7900"/>
<path d="M1316.1 269.607L1375.7 176.607L1314.8 87.5068H1304.6L1365.8 176.407L1306.7 269.607H1316.1Z" fill="#FF7900"/>
<path d="M1432.7 186.907L1402.9 230.407L1429.9 269.607H1489.6L1432.7 186.907Z" fill="#FF7900"/>
<path d="M1364.9 86.8066H1304L1365.3 176.507L1305.5 269.807H1365.5L1427.3 179.507L1364.9 86.8066Z" fill="#26A9E0"/>
<path d="M288.6 157.306C276.4 157.306 268.7 150.906 262.6 141.306V189.306C262.6 206.806 253.5 220.806 235.8 220.806C218.1 220.806 205.7 206.806 205.7 189.306V87.1064H155.6V191.206C155.6 238.306 182.2 271.906 232.7 271.906C282.9 271.906 311.6 238.306 311.6 191.206V141.306C305.5 150.906 300.8 157.306 288.6 157.306Z" fill="#26A9E0"/>
<path d="M286.8 138.106C300.717 138.106 312 126.824 312 112.906C312 98.9885 300.717 87.7061 286.8 87.7061C272.882 87.7061 261.6 98.9885 261.6 112.906C261.6 126.824 272.882 138.106 286.8 138.106Z" fill="#FF7900"/>
<path d="M657.599 142.807C674.899 163.707 673.699 194.707 654.099 214.307C634.499 233.907 603.499 235.007 582.599 217.807L553.699 246.707C590.599 279.807 647.399 278.607 682.899 243.207C718.399 207.707 719.599 150.907 686.399 114.007L657.599 142.807Z" fill="#FF7900"/>
<path d="M575.399 210.407C558.099 189.507 559.299 158.507 578.899 138.907C598.499 119.307 629.499 118.207 650.399 135.407L679.299 106.507C642.399 73.4068 585.599 74.6068 550.099 110.007C514.599 145.507 513.399 202.307 546.599 239.207L575.399 210.407Z" fill="#26A9E0"/>
<path d="M972.6 220.707C951.7 238.007 920.7 236.807 901.1 217.207C881.5 197.607 880.4 166.607 897.6 145.707L868.7 116.807C835.6 153.707 836.8 210.507 872.2 246.007C907.7 281.507 964.5 282.707 1001.4 249.507L972.6 220.707Z" fill="#26A9E0"/>
<path d="M904.9 138.507C925.8 121.207 956.8 122.407 976.4 142.007C996 161.607 997.1 192.607 979.9 213.507L1008.8 242.407C1041.9 205.507 1040.7 148.707 1005.3 113.207C969.8 77.7067 913 76.5067 876.1 109.707L904.9 138.507Z" fill="#FF7900"/>
<path d="M1494.76 33.4569L1488.89 129.763L1406.23 71.8144L1494.76 33.4569Z" fill="#FF7900"/>
</svg>
