<svg width="80" height="80" viewBox="0 0 80 80" fill="none" xmlns="http://www.w3.org/2000/svg">
<g id="Group 1171275930">
<ellipse id="Ellipse 202" cx="40" cy="39.9083" rx="40" ry="39.3732" fill="#FF7900" fill-opacity="0.22"/>
<g id="Group 1171275922">
<path id="Vector" d="M53.1749 52.71H27.8216V27.3568H53.1749V52.71ZM65.1508 48.88H54.8662V44.1098H59.9089C60.3772 44.1098 60.7546 43.7324 60.7546 43.2642C60.7546 42.7959 60.3772 42.4185 59.9089 42.4185H54.8662V37.6484H65.1508C65.6191 37.6484 65.9965 37.2709 65.9965 36.8027C65.9965 36.3379 65.6191 35.9605 65.1508 35.9605H54.8662V31.1904H59.9089C60.3772 31.1904 60.7546 30.8129 60.7546 30.3447C60.7546 29.8764 60.3772 29.499 59.9089 29.499H54.8662V26.5146C54.8662 26.0463 54.4888 25.6689 54.0206 25.6689H51.0327V15.3808C51.0327 14.9126 50.6553 14.5352 50.187 14.5352C49.7222 14.5352 49.3448 14.9126 49.3448 15.3808V25.6689H44.5747V20.6227C44.5747 20.1579 44.1938 19.777 43.729 19.777C43.2607 19.777 42.8833 20.1579 42.8833 20.6227V25.6689H38.1132V15.3808C38.1132 14.9126 37.7358 14.5352 37.2675 14.5352C36.8027 14.5352 36.4218 14.9126 36.4218 15.3808V25.6689H31.6517V20.6227C31.6517 20.1579 31.2743 19.777 30.8095 19.777C30.3412 19.777 29.9638 20.1579 29.9638 20.6227V25.6689H26.976C26.5077 25.6689 26.1303 26.0463 26.1303 26.5146V29.499H15.8457C15.3774 29.499 15 29.8764 15 30.3447C15 30.8129 15.3774 31.1904 15.8457 31.1904H26.1303V35.9605H21.0876C20.6193 35.9605 20.2419 36.3379 20.2419 36.8027C20.2419 37.2709 20.6193 37.6484 21.0876 37.6484H26.1303V42.4185H15.8457C15.3774 42.4185 15 42.7959 15 43.2642C15 43.7324 15.3774 44.1098 15.8457 44.1098H26.1303V48.88H21.0876C20.6193 48.88 20.2419 49.2574 20.2419 49.7256C20.2419 50.1904 20.6193 50.5678 21.0876 50.5678H26.1303V53.5557C26.1303 54.024 26.5077 54.4014 26.976 54.4014H29.9638V64.6895C29.9638 65.1542 30.3412 65.5352 30.8095 65.5352C31.2743 65.5352 31.6517 65.1542 31.6517 64.6895V54.4014H36.4218V59.4441C36.4218 59.9124 36.8027 60.2898 37.2675 60.2898C37.7358 60.2898 38.1132 59.9124 38.1132 59.4441V54.4014H42.8833V64.6895C42.8833 65.1542 43.2607 65.5352 43.729 65.5352C44.1938 65.5352 44.5747 65.1542 44.5747 64.6895V54.4014H49.3448V59.4441C49.3448 59.9124 49.7222 60.2898 50.187 60.2898C50.6553 60.2898 51.0327 59.9124 51.0327 59.4441V54.4014H54.0206C54.4888 54.4014 54.8662 54.024 54.8662 53.5557V50.5678H65.1508C65.6191 50.5678 65.9965 50.1904 65.9965 49.7256C65.9965 49.2574 65.6191 48.88 65.1508 48.88Z" fill="#FF7900"/>
<g id="Group 1171275921">
<path id="Vector_2" d="M37.5377 36.843C37.5552 36.8884 37.5727 36.9408 37.5902 36.9897C37.6985 37.3077 37.8173 37.6642 37.9466 38.0556L38.7678 40.6451L36.2447 40.6101C36.2447 40.6031 36.2482 40.5961 36.2517 40.5892C36.3391 40.3306 36.423 40.065 36.5033 39.8064L37.384 37.2728C37.4364 37.119 37.4888 36.9758 37.5377 36.843ZM34.4975 44.269C34.5114 44.269 34.5254 44.2725 34.5394 44.2725C34.6582 44.2725 34.7735 44.241 34.8784 44.1851C35.0042 44.1187 35.102 44.0173 35.2104 43.8042L35.8044 41.8926H39.2361L39.7428 43.888C39.7813 43.9789 39.928 44.2759 40.3858 44.2445C40.7248 44.2235 40.9659 44.0034 41.0009 43.6819C41.0079 43.6294 41.0009 43.577 40.9869 43.5246L40.5151 41.7843C40.5501 41.7598 40.5815 41.7319 40.606 41.7039C40.7038 41.5956 40.7563 41.4628 40.7563 41.316C40.7563 41.1832 40.7108 41.0574 40.6305 40.9421C40.5466 40.8303 40.4313 40.7499 40.295 40.7115C40.2705 40.7045 40.2495 40.701 40.2286 40.6975C40.0958 40.3166 39.9735 39.9531 39.8582 39.6002C39.7149 39.1564 39.5821 38.7475 39.4598 38.3806C39.299 37.8704 39.1488 37.4161 39.0125 37.0142C38.8692 36.6123 38.7469 36.2629 38.635 35.9728C38.4463 35.4836 38.1353 34.8301 37.5657 34.8301C37.391 34.8301 37.1289 34.8965 36.8878 35.211C36.7585 35.3822 36.6257 35.6199 36.4894 35.9309C36.3636 36.2174 36.2308 36.5669 36.091 36.9758C35.9582 37.3741 35.8079 37.8284 35.6402 38.3282L34.7456 40.9526L33.9418 43.605C33.9208 43.8007 33.9768 43.9754 34.0991 44.0942C34.2039 44.1991 34.3437 44.2585 34.4975 44.269Z" fill="#FF7900"/>
<path id="Vector_3" d="M42.6116 36.2308L43.2162 36.2029C43.3699 36.1959 43.5097 36.1924 43.632 36.1924H43.978C43.978 36.3182 43.9745 36.4615 43.971 36.6257C43.964 37.0206 43.95 37.4714 43.9326 37.9781L43.8766 39.5787C43.8557 40.1378 43.8382 40.669 43.8242 41.1722C43.8102 41.6684 43.7963 42.1157 43.7753 42.5106C43.7648 42.7028 43.7543 42.8671 43.7473 43.0069C43.7299 43.0069 43.7159 43.0069 43.6984 43.0069H43.1498C42.9436 43.0069 42.7199 42.9964 42.4648 42.9859C42.2552 42.9859 41.9966 43.1152 41.9092 43.4786C41.8288 43.8071 42.0001 44.1007 42.332 44.2125C42.374 44.2265 42.4159 44.2335 42.4578 44.2335L46.1656 44.2964C46.5046 44.2964 46.7562 44.0692 46.7946 43.7267C46.8156 43.5066 46.7352 43.3598 46.6653 43.2724C46.5884 43.1816 46.4487 43.0698 46.1341 43.0488C45.9699 43.0593 45.8057 43.0593 45.6065 43.0488C45.4632 43.0488 45.2989 43.0383 45.1172 43.0278C45.0823 43.0243 45.0508 43.0208 45.0159 43.0208C45.0264 42.8845 45.0334 42.7308 45.0438 42.5526C45.0648 42.1542 45.0823 41.6964 45.0963 41.1827C45.1067 40.6795 45.1277 40.1448 45.1487 39.5787C45.1696 39.009 45.1836 38.4709 45.1976 37.9607L45.236 36.6153C45.2395 36.444 45.243 36.2938 45.2465 36.1645C45.4632 36.1575 45.6799 36.1679 46.1866 36.2134C46.2844 36.2134 46.6234 36.1784 46.7737 35.7451C46.8505 35.511 46.7841 35.3397 46.7387 35.2594C46.6793 35.1545 46.557 35.0217 46.2844 34.9658C46.0782 34.9379 45.7462 34.9134 45.2954 34.8959C44.8516 34.8784 44.4078 34.8784 43.957 34.8959C43.5097 34.9134 43.1078 34.9413 42.7549 34.9763C42.4229 35.0077 41.9232 35.0567 41.8673 35.3921C41.7729 35.6263 41.8288 35.8709 42.0175 36.0491C42.1259 36.1505 42.3146 36.2728 42.6116 36.2308Z" fill="#FF7900"/>
<path id="Vector_4" d="M49.2208 48.756H31.5277V31.0664H49.2208V48.756ZM50.063 29.375H30.6855C30.2173 29.375 29.8398 29.7524 29.8398 30.2207V49.6017C29.8398 50.0665 30.2173 50.4439 30.6855 50.4439H50.063C50.5313 50.4439 50.9087 50.0665 50.9087 49.6017V30.2207C50.9087 29.7524 50.5313 29.375 50.063 29.375Z" fill="#FF7900"/>
</g>
</g>
</g>
</svg>
