<svg width="80" height="79" viewBox="0 0 80 79" fill="none" xmlns="http://www.w3.org/2000/svg">
<ellipse cx="40" cy="39.3732" rx="40" ry="39.3732" fill="#FF7900" fill-opacity="0.22"/>
<mask id="mask0_649_580" style="mask-type:luminance" maskUnits="userSpaceOnUse" x="15" y="11" width="52" height="57">
<path d="M15 11H67V67.9189H15V11Z" fill="white"/>
</mask>
<g mask="url(#mask0_649_580)">
<mask id="mask1_649_580" style="mask-type:luminance" maskUnits="userSpaceOnUse" x="5" y="6" width="71" height="71">
<path d="M5.75781 31.344L51.2084 6.8125L75.7399 52.2631L30.2893 76.7946L5.75781 31.344Z" fill="white"/>
</mask>
<g mask="url(#mask1_649_580)">
<mask id="mask2_649_580" style="mask-type:luminance" maskUnits="userSpaceOnUse" x="5" y="6" width="71" height="71">
<path d="M5.75977 31.3449L51.2104 6.81348L75.7418 52.2641L30.2912 76.7955L5.75977 31.3449Z" fill="white"/>
</mask>
<g mask="url(#mask2_649_580)">
<mask id="mask3_649_580" style="mask-type:luminance" maskUnits="userSpaceOnUse" x="5" y="6" width="71" height="71">
<path d="M5.76172 31.3459L51.2123 6.81445L75.7438 52.265L30.2932 76.7965L5.76172 31.3459Z" fill="white"/>
</mask>
<g mask="url(#mask3_649_580)">
<path d="M63.6078 32.4538C63.2592 32.5416 62.993 32.7859 62.8859 33.14C62.7377 33.42 62.7514 33.8125 62.8393 34.1611C66.5861 44.9706 61.9773 56.7107 51.887 62.1567C40.641 68.2285 26.5238 64.0068 20.4548 52.7608C14.383 41.5148 18.6019 27.3976 29.8507 21.3285C37.2455 17.3374 46.5014 17.7135 53.5367 22.2701L45.6779 26.511C45.0631 26.8459 44.816 27.6748 45.1482 28.2924C45.4803 28.9073 46.3093 29.1543 46.9269 28.8222L55.3236 24.2903C56.7098 23.5437 57.2423 21.7622 56.493 20.3761L52.0023 12.0562C51.6701 11.4413 50.8412 11.1915 50.2235 11.5236C49.6087 11.8585 49.3589 12.6875 49.691 13.3051L52.6858 18.8499C45.1235 14.974 35.9966 15.0262 28.6017 19.0173C16.0464 25.7945 11.3663 41.4516 18.1435 54.007C24.9208 66.565 40.5779 71.2451 53.1332 64.4679C64.305 58.44 69.4545 45.3138 65.2383 33.2635C64.983 32.6047 64.3078 32.2753 63.6078 32.4538Z" fill="#FF7900"/>
</g>
</g>
</g>
</g>
<mask id="mask4_649_580" style="mask-type:luminance" maskUnits="userSpaceOnUse" x="24" y="30" width="34" height="24">
<path d="M24.1836 30.1211H57.3863V53.3103H24.1836V30.1211Z" fill="white"/>
</mask>
<g mask="url(#mask4_649_580)">
<path d="M56.8945 32.3914C57.3886 31.9001 57.3886 31.1068 56.8945 30.6155C56.4004 30.1269 55.5989 30.1269 55.1048 30.6155L35.8107 45.9514L26.4642 40.4862C25.9728 39.9977 25.1713 39.9977 24.6772 40.4862C24.1831 40.9776 24.1831 41.7709 24.6772 42.2622L35.8107 53.3078L56.8945 32.3914Z" fill="#FF7900"/>
</g>
</svg>
