<svg width="80" height="79" viewBox="0 0 80 79" fill="none" xmlns="http://www.w3.org/2000/svg">
<ellipse cx="40" cy="39.3732" rx="40" ry="39.3732" fill="#FF7900" fill-opacity="0.22"/>
<path d="M53.0909 47.5392C55.5351 46.5816 58 44.4 58 40C58 33.4545 52.5455 31.8182 49.8182 31.8182C49.8182 28.5455 49.8182 22 40 22C30.1818 22 30.1818 28.5455 30.1818 31.8182C27.4545 31.8182 22 33.4545 22 40C22 44.4 24.4648 46.5816 26.9091 47.5392" stroke="#FF7900" stroke-width="3" stroke-linecap="round" stroke-linejoin="round"/>
<path d="M44.7875 44.8775H46.5737C46.9965 44.8775 47.3392 45.2202 47.3392 45.643V54.3186C47.3392 54.7414 46.9965 55.0841 46.5737 55.0841H32.7948C32.372 55.0841 32.0293 54.7414 32.0293 54.3186V45.643C32.0293 45.2202 32.372 44.8775 32.7948 44.8775H34.5809M44.7875 44.8775V39.7742C44.7875 38.0731 43.7669 34.6709 39.6842 34.6709C35.6016 34.6709 34.5809 38.0731 34.5809 39.7742V44.8775M44.7875 44.8775H34.5809" stroke="#FF7900" stroke-width="3" stroke-linecap="round" stroke-linejoin="round"/>
</svg>
