<svg width="205" height="205" viewBox="0 0 205 205" fill="none" xmlns="http://www.w3.org/2000/svg">
<g id="Group 1171275913">
<g id="Group 1171275842">
<circle id="Ellipse 201" cx="102.5" cy="102.5" r="102.5" fill="#FFDE17"/>
</g>
<g id="Group 1171275911">
<path id="Vector" d="M98.2967 70.7477C85.5444 70.7477 72.8001 68.7753 66.3837 64.8305C65.635 64.4762 64.9426 64.0254 64.3147 63.4699C63.6867 62.9225 63.1554 62.2945 62.7046 61.586C62.2618 60.8856 61.9236 60.1289 61.6902 59.3318C61.4567 58.5268 61.3359 57.7056 61.3359 56.8764C61.3359 56.0391 61.4567 55.2179 61.6902 54.4209C61.9236 53.6158 62.2618 52.8671 62.7046 52.1587C63.1554 51.4502 63.6867 50.8223 64.3147 50.2748C64.9426 49.7193 65.635 49.2685 66.3837 48.9142C79.2085 41.0246 117.377 41.0326 130.194 48.9142C130.95 49.2685 131.635 49.7193 132.263 50.2748C132.891 50.8223 133.43 51.4502 133.873 52.1587C134.324 52.8671 134.662 53.6158 134.895 54.4209C135.129 55.2179 135.241 56.0391 135.241 56.8764C135.241 57.7136 135.129 58.5268 134.895 59.3318C134.662 60.1369 134.324 60.8856 133.873 61.5941C133.43 62.2945 132.891 62.9224 132.263 63.4779C131.635 64.0254 130.95 64.4843 130.194 64.8385C123.785 68.7753 111.041 70.7477 98.2967 70.7477ZM98.2967 48.6566C86.599 48.6566 74.9094 50.3634 69.3625 53.7849C68.2434 54.4773 66.9312 55.5319 67.0197 56.659C67.0358 56.812 67.0358 56.9649 67.0197 57.1179C66.9312 58.253 68.2434 59.2996 69.3625 59.992C80.4483 66.827 116.137 66.827 127.223 59.992C128.342 59.2996 129.654 58.245 129.566 57.1179C129.558 56.9649 129.558 56.812 129.566 56.659C129.654 55.5158 128.342 54.4773 127.223 53.7849C121.684 50.3634 109.994 48.6566 98.2967 48.6566Z" fill="#FF7900"/>
<path id="Vector_2" d="M98.9737 99.924C97.4682 99.924 95.9547 99.8838 94.4251 99.8033C94.4251 99.8033 94.2399 99.8033 94.0708 99.7872H93.7891C84.4986 99.5376 75.683 97.3317 67.3586 93.1856C67.2781 93.1534 67.1574 93.0729 67.0769 93.0085C66.0061 92.4127 64.9837 91.7526 64.0095 91.0119C62.3914 89.6513 61.5299 87.9124 61.4092 85.795C61.2965 84.3942 61.2804 82.9854 61.3609 81.5765C61.4011 80.86 61.4011 80.1435 61.3609 79.4189C61.3528 79.3062 61.3528 79.1854 61.3609 79.0647C61.4172 77.1486 61.3931 73.2923 61.3609 69.2589C61.3609 67.1738 61.3609 65.0484 61.3367 63.1243C61.3367 60.9104 61.3367 58.9701 61.3609 57.6257C61.3206 57.2392 61.3367 56.8609 61.3931 56.4825C61.4414 56.1282 61.5541 55.7901 61.7312 55.4761C61.9083 55.1622 62.1418 54.8965 62.4155 54.6711C62.6973 54.4456 63.0113 54.2766 63.3494 54.1639C63.6956 54.0592 64.0417 54.019 64.404 54.0431C64.7583 54.0673 65.1044 54.1558 65.4265 54.3088C65.7485 54.4698 66.0383 54.6791 66.2798 54.9367C66.5294 55.2024 66.7146 55.5003 66.8434 55.8384C66.9802 56.1685 67.0447 56.5147 67.0447 56.877V57.4808C67.6887 60.6366 78.2271 64.8552 97.1945 65.0323C117.37 65.1531 129.132 60.701 129.574 57.4486V56.877C129.574 56.5147 129.639 56.1685 129.768 55.8304C129.904 55.4922 130.09 55.1944 130.339 54.9287C130.589 54.663 130.871 54.4537 131.201 54.3007C131.531 54.1478 131.869 54.0592 132.231 54.0351C132.593 54.0109 132.948 54.0512 133.286 54.1639C133.632 54.2766 133.946 54.4456 134.22 54.6791C134.501 54.9126 134.727 55.1863 134.904 55.5003C135.081 55.8223 135.186 56.1604 135.234 56.5147C135.282 56.9253 135.29 57.3278 135.258 57.7384V60.4434C135.266 60.8298 135.194 61.2002 135.041 61.5625C134.896 61.9247 134.687 62.2387 134.405 62.5044C134.123 62.7781 133.801 62.9794 133.439 63.1162C133.076 63.2531 132.698 63.3095 132.312 63.2853C125.992 68.8483 110.575 70.8369 97.1381 70.7322C92.8471 70.6919 76.0051 70.2089 67.0366 65.1692C67.0366 66.4975 67.0366 67.8823 67.0366 69.2428C67.0688 73.236 67.093 77.0761 67.0366 79.0808C67.0849 79.8295 67.0688 80.7714 67.0366 81.7939C66.9722 82.9129 66.9802 84.04 67.0608 85.159C67.0688 85.6421 67.1976 86.0849 67.4552 86.4874C68.2523 87.0832 69.0815 87.6226 69.959 88.0895C70.0315 88.1378 70.1522 88.2103 70.2408 88.2747C77.7923 91.9055 85.7464 93.8457 94.1191 94.0953C94.2318 94.0873 94.3365 94.0873 94.4492 94.0953C103.321 94.7152 111.992 93.6525 120.453 90.9072C120.542 90.875 120.638 90.8428 120.735 90.8187C124.084 89.6755 127.087 87.9446 129.752 85.6179C130.025 85.3603 130.339 85.1671 130.693 85.0383C131.048 84.9014 131.41 84.8451 131.788 84.8531C132.167 84.8692 132.521 84.9578 132.867 85.1107C133.213 85.2718 133.511 85.4811 133.769 85.7628C134.026 86.0366 134.22 86.3505 134.348 86.7048C134.485 87.059 134.542 87.4293 134.526 87.8077C134.518 88.1781 134.429 88.5403 134.276 88.8865C134.115 89.2327 133.906 89.5306 133.624 89.7882C130.42 92.6381 126.781 94.7635 122.731 96.1643C122.57 96.2368 122.401 96.2932 122.232 96.3334C114.681 98.8291 106.928 100.029 98.9737 99.924Z" fill="#FF7900"/>
<path id="Vector_3" d="M132.4 116.702C132.022 116.702 131.66 116.629 131.314 116.484C130.967 116.339 130.653 116.13 130.388 115.864C130.122 115.599 129.921 115.293 129.776 114.939C129.631 114.592 129.559 114.23 129.559 113.852V98.8373C129.559 98.4589 129.631 98.0966 129.776 97.7504C129.921 97.3962 130.122 97.0902 130.388 96.8246C130.653 96.5589 130.967 96.3496 131.314 96.2047C131.66 96.0598 132.022 95.9873 132.4 95.9873C132.779 95.9873 133.141 96.0598 133.487 96.2047C133.834 96.3496 134.139 96.5589 134.413 96.8246C134.679 97.0902 134.88 97.3962 135.025 97.7504C135.17 98.0966 135.242 98.4589 135.242 98.8373V113.852C135.242 114.23 135.17 114.592 135.025 114.939C134.88 115.293 134.679 115.599 134.413 115.864C134.139 116.13 133.834 116.339 133.487 116.484C133.141 116.629 132.779 116.702 132.4 116.702Z" fill="#FF7900"/>
<path id="Vector_4" d="M94.418 128.295C81.5207 128.295 67.9392 125.534 61.7563 115.334C61.4826 114.883 61.3457 114.384 61.3457 113.852V85.369C61.3457 84.6846 61.5631 84.0808 61.9978 83.5495C62.4325 83.0262 62.98 82.6961 63.6563 82.5673C64.3245 82.4385 64.9524 82.5432 65.5562 82.8652C66.152 83.1953 66.5787 83.6783 66.8282 84.3143C68.4545 88.4041 74.8709 91.6324 84.4512 93.1781C101.76 95.9798 124.085 92.357 129.511 85.8681C129.752 85.5863 130.042 85.3609 130.372 85.1999C130.71 85.0308 131.057 84.9262 131.427 84.902C131.805 84.8698 132.168 84.9101 132.522 85.0228C132.876 85.1355 133.198 85.3126 133.48 85.5541C133.77 85.7956 133.995 86.0774 134.172 86.4075C134.341 86.7376 134.446 87.0918 134.486 87.4621C134.518 87.8325 134.486 88.2028 134.382 88.557C134.269 88.9113 134.1 89.2413 133.866 89.5312C126.299 98.564 101.269 101.664 83.5656 98.8056C77.6403 98.0569 72.1336 96.1086 67.0456 92.9769V113.015C76.2153 126.484 106.913 122.901 122.08 119.037C122.45 118.948 122.821 118.924 123.191 118.981C123.561 119.037 123.916 119.158 124.238 119.351C124.56 119.544 124.833 119.794 125.059 120.1C125.284 120.398 125.445 120.736 125.542 121.098C125.631 121.468 125.647 121.839 125.598 122.209C125.542 122.587 125.413 122.933 125.22 123.264C125.035 123.586 124.785 123.859 124.479 124.085C124.181 124.31 123.843 124.471 123.481 124.568C113.933 126.919 104.248 128.158 94.418 128.295Z" fill="#FF7900"/>
<path id="Vector_5" d="M98.1204 156.35C89.6349 156.511 81.2944 155.457 73.1149 153.178C65.668 150.795 61.7151 147.213 61.3529 142.56C61.377 139.299 61.3529 132.867 61.3529 126.74C61.3529 121.418 61.3368 116.314 61.3529 113.835C61.3609 113.191 61.5541 112.627 61.9406 112.12C62.327 111.613 62.8261 111.275 63.438 111.106C64.0498 110.936 64.6536 110.969 65.2413 111.202C65.8371 111.436 66.296 111.822 66.6261 112.369C75.2403 126.547 105.535 123.23 122.079 119.035C122.442 118.947 122.812 118.923 123.182 118.979C123.561 119.035 123.907 119.156 124.229 119.349C124.551 119.543 124.825 119.792 125.05 120.098C125.275 120.404 125.436 120.734 125.533 121.104C125.622 121.467 125.638 121.837 125.589 122.215C125.533 122.586 125.404 122.932 125.211 123.262C125.018 123.584 124.776 123.858 124.47 124.083C124.172 124.309 123.834 124.47 123.472 124.566C119.044 125.685 83.7338 134.082 67.0286 121.177C67.0286 122.924 67.0286 124.808 67.0286 126.724C67.0286 132.891 67.0608 139.339 67.0286 142.358C67.1816 144.154 70.0315 146.215 74.8458 147.76C91.6315 153.138 123.102 150.377 127.916 144.621C128.158 144.323 128.439 144.073 128.777 143.888C129.116 143.703 129.478 143.59 129.856 143.55C130.243 143.51 130.613 143.55 130.983 143.663C131.354 143.775 131.684 143.952 131.974 144.202C132.271 144.443 132.505 144.741 132.682 145.088C132.859 145.426 132.956 145.788 132.988 146.174C133.012 146.561 132.964 146.931 132.843 147.301C132.722 147.664 132.529 147.994 132.271 148.276C127.779 153.645 112.901 156.35 98.1204 156.35Z" fill="#FF7900"/>
<g id="Clip path group">
<mask id="mask0_649_388" style="mask-type:luminance" maskUnits="userSpaceOnUse" x="27" y="59" width="41" height="26">
<g id="3d148d062e">
<path id="Vector_6" d="M27 59.5264H67.7124V84.2581H27V59.5264Z" fill="white"/>
</g>
</mask>
<g mask="url(#mask0_649_388)">
<g id="Group">
<path id="Vector_7" d="M54.4152 82.5032C41.6307 82.5032 32.3321 79.7258 29.2407 74.7343C28.5322 73.6394 28.1699 72.4318 28.1699 71.1196C28.1699 69.8073 28.5322 68.6077 29.2407 67.5048C33.113 61.2655 46.606 58.488 64.4625 60.2511C64.8167 60.2914 65.1468 60.388 65.4688 60.549C65.7828 60.71 66.0565 60.9193 66.29 61.185C66.5315 61.4426 66.7086 61.7405 66.8374 62.0706C66.9662 62.4007 67.0226 62.7468 67.0226 63.1011V79.1622C67.0226 79.5164 66.9662 79.8626 66.8374 80.1927C66.7086 80.5228 66.5315 80.8207 66.29 81.0863C66.0565 81.352 65.7828 81.5613 65.4688 81.7223C65.1468 81.8833 64.8167 81.98 64.4625 82.0122C60.9282 82.3342 57.5711 82.5032 54.4152 82.5032ZM54.2461 65.4116C41.9447 65.4116 35.5041 68.1972 34.063 70.5077C33.741 70.9102 33.741 71.3208 34.063 71.7234C35.7456 74.4365 44.3679 77.8016 61.3468 76.5377V65.6934C58.7948 65.5002 56.4279 65.4116 54.2461 65.4116Z" fill="#FF7900"/>
</g>
</g>
</g>
<g id="Clip path group_2">
<mask id="mask1_649_388" style="mask-type:luminance" maskUnits="userSpaceOnUse" x="27" y="67" width="41" height="38">
<g id="d924537049">
<path id="Vector_8" d="M27 67.7695H67.7124V104.867H27V67.7695Z" fill="white"/>
</g>
</mask>
<g mask="url(#mask1_649_388)">
<g id="Group_2">
<path id="Vector_9" d="M56.6826 103.941C46.6514 103.941 33.7622 101.687 29.1975 97.2106C28.4568 96.5666 27.9174 95.7857 27.5793 94.8598C27.2331 93.9421 27.1446 92.9921 27.2895 92.0179L27.3941 92.034C27.2492 90.1502 27.2492 87.0265 27.2492 81.8016V72.1408C27.1929 71.6497 27.2009 71.1505 27.2814 70.6595C27.3458 70.3052 27.4585 69.9751 27.6437 69.6692C27.8289 69.3552 28.0543 69.0896 28.3361 68.8722C28.6178 68.6548 28.9318 68.4938 29.2699 68.3892C29.6161 68.2845 29.9623 68.2442 30.3246 68.2764C30.6788 68.3087 31.017 68.3972 31.339 68.5582C31.661 68.7112 31.9428 68.9205 32.1843 69.1862C32.4258 69.4519 32.611 69.7497 32.7398 70.0798C32.8686 70.4179 32.933 70.7641 32.933 71.1183V71.6577C34.4063 74.4594 52.8102 78.3962 63.6706 76.3513C64.0409 76.2708 64.4193 76.2708 64.7896 76.3432C65.168 76.4157 65.5142 76.5526 65.8362 76.7699C66.1502 76.9792 66.4159 77.2449 66.6252 77.567C66.8345 77.889 66.9794 78.2352 67.0519 78.6135C67.1163 78.9839 67.1163 79.3623 67.0358 79.7406C66.9553 80.111 66.8023 80.4572 66.5849 80.7711C66.3675 81.0851 66.0938 81.3427 65.7718 81.544C65.4498 81.7533 65.0955 81.8821 64.7172 81.9465C56.7228 83.4601 41.1689 82.2364 32.933 78.3076V92.4607C32.933 92.6218 32.9169 92.7828 32.8928 92.9357C34.0601 95.7535 52.7216 99.7788 63.6625 97.7098C64.0409 97.6293 64.4112 97.6293 64.7896 97.7017C65.16 97.7742 65.5061 97.9191 65.8201 98.1365C66.1421 98.3458 66.3998 98.6115 66.6091 98.9335C66.8184 99.2475 66.9633 99.5937 67.0358 99.972C67.1002 100.35 67.1002 100.721 67.0197 101.091C66.9392 101.469 66.7942 101.816 66.5769 102.13C66.3595 102.436 66.0858 102.701 65.7637 102.902C65.4417 103.112 65.0955 103.241 64.7172 103.305C62.0604 103.764 59.3795 103.973 56.6826 103.941Z" fill="#FF7900"/>
</g>
</g>
</g>
<g id="Clip path group_3">
<mask id="mask2_649_388" style="mask-type:luminance" maskUnits="userSpaceOnUse" x="27" y="88" width="41" height="38">
<g id="364f5eb9fc">
<path id="Vector_10" d="M27 88.3789H67.7124V125.477H27V88.3789Z" fill="white"/>
</g>
</mask>
<g mask="url(#mask2_649_388)">
<g id="Group_3">
<path id="Vector_11" d="M56.6826 125.307C46.6514 125.307 33.7622 123.053 29.1975 118.577C28.4568 117.933 27.9174 117.152 27.5793 116.226C27.2331 115.308 27.1446 114.358 27.2895 113.384L27.3941 113.4C27.2492 111.516 27.2492 108.393 27.2492 103.168V93.507C27.1929 93.0079 27.2009 92.5168 27.2814 92.0257C27.3458 91.6714 27.4585 91.3414 27.6437 91.0274C27.8289 90.7215 28.0543 90.4558 28.3361 90.2384C28.6178 90.021 28.9318 89.852 29.2699 89.7554C29.6161 89.6507 29.9623 89.6105 30.3246 89.6427C30.6788 89.6749 31.017 89.7634 31.339 89.9244C31.661 90.0774 31.9428 90.2867 32.1843 90.5524C32.4258 90.8181 32.611 91.1159 32.7398 91.446C32.8686 91.7841 32.933 92.1303 32.933 92.4846V93.024C34.4063 95.8336 52.8102 99.7543 63.6706 97.7175C64.0409 97.637 64.4193 97.637 64.7896 97.7095C65.168 97.7819 65.5142 97.9188 65.8362 98.1361C66.1502 98.3455 66.4159 98.6111 66.6252 98.9332C66.8345 99.2552 66.9794 99.6014 67.0519 99.9798C67.1163 100.35 67.1163 100.728 67.0358 101.099C66.9553 101.477 66.8023 101.823 66.5849 102.137C66.3675 102.451 66.0938 102.709 65.7718 102.91C65.4498 103.12 65.0955 103.248 64.7172 103.313C56.7228 104.826 41.1689 103.595 32.933 99.6738V113.819C32.933 113.988 32.9169 114.141 32.8928 114.302C34.0601 117.12 52.7216 121.145 63.6625 119.076C64.0329 119.012 64.3951 119.02 64.7655 119.1C65.1277 119.181 65.4578 119.334 65.7718 119.543C66.0777 119.76 66.3273 120.018 66.5286 120.332C66.7298 120.646 66.8667 120.992 66.9392 121.354C67.0116 121.725 67.0036 122.087 66.9311 122.457C66.8586 122.82 66.7137 123.158 66.5044 123.472C66.3031 123.778 66.0375 124.043 65.7315 124.245C65.4256 124.454 65.0875 124.599 64.7172 124.671C62.0604 125.13 59.3795 125.339 56.6826 125.307Z" fill="#FF7900"/>
</g>
</g>
</g>
<g id="Clip path group_4">
<mask id="mask3_649_388" style="mask-type:luminance" maskUnits="userSpaceOnUse" x="27" y="108" width="41" height="41">
<g id="1cb083a9d6">
<path id="Vector_12" d="M27 108.989H67.7124V148.148H27V108.989Z" fill="white"/>
</g>
</mask>
<g mask="url(#mask3_649_388)">
<g id="Group_4">
<path id="Vector_13" d="M56.9559 146.666C46.8765 146.666 33.6894 144.388 29.1649 139.928C28.4726 139.316 27.9573 138.575 27.6192 137.706C27.2811 136.844 27.1523 135.951 27.2408 135.025V114.882C27.1845 114.383 27.1925 113.884 27.2811 113.385C27.3374 113.038 27.4662 112.708 27.6433 112.402C27.8285 112.097 28.062 111.831 28.3438 111.614C28.6255 111.396 28.9315 111.235 29.2776 111.13C29.6158 111.026 29.9619 110.986 30.3162 111.01C30.6704 111.042 31.0085 111.13 31.3306 111.291C31.6526 111.453 31.9344 111.662 32.1759 111.928C32.4174 112.185 32.6026 112.491 32.7314 112.821C32.8602 113.159 32.9246 113.505 32.9246 113.86V114.391C34.4059 117.193 52.8179 121.137 63.6622 119.077C64.0325 119.004 64.4028 119.004 64.7812 119.077C65.1515 119.149 65.4977 119.294 65.8197 119.503C66.1337 119.713 66.3994 119.978 66.6087 120.3C66.818 120.622 66.9549 120.968 67.0273 121.339C67.0998 121.717 67.0917 122.087 67.0112 122.466C66.9307 122.836 66.7858 123.182 66.5685 123.496C66.3511 123.81 66.0774 124.068 65.7634 124.269C65.4414 124.479 65.0871 124.615 64.7168 124.68C56.7225 126.185 41.1685 124.962 32.9246 121.033V135.218C32.9246 135.379 32.9085 135.54 32.8843 135.701C34.092 138.519 52.8179 142.56 63.7668 140.451C64.1371 140.379 64.5075 140.379 64.8778 140.459C65.2401 140.532 65.5863 140.677 65.9002 140.894C66.2062 141.103 66.4718 141.369 66.6731 141.683C66.8824 141.997 67.0193 142.343 67.0917 142.713C67.1642 143.084 67.1642 143.454 67.0837 143.824C67.0112 144.195 66.8663 144.541 66.657 144.847C66.4396 145.161 66.182 145.426 65.868 145.628C65.546 145.837 65.2079 145.982 64.8376 146.046C62.2291 146.497 59.5965 146.698 56.9559 146.666Z" fill="#FF7900"/>
</g>
</g>
</g>
<path id="Vector_14" d="M138.085 142.101C135.887 142.117 133.834 141.577 131.926 140.483C131.523 140.233 131.145 139.951 130.783 139.645C130.42 139.347 130.074 139.017 129.752 138.671C129.43 138.325 129.132 137.963 128.859 137.576C128.577 137.198 128.327 136.795 128.102 136.385C127.876 135.966 127.675 135.539 127.498 135.097C127.329 134.654 127.184 134.211 127.063 133.752C126.951 133.293 126.862 132.826 126.798 132.359C126.741 131.884 126.709 131.417 126.709 130.942C126.709 130.467 126.741 129.992 126.798 129.526C126.862 129.059 126.951 128.592 127.063 128.133C127.184 127.674 127.329 127.223 127.498 126.788C127.675 126.345 127.876 125.919 128.102 125.5C128.327 125.082 128.577 124.687 128.859 124.301C129.132 123.922 129.43 123.552 129.752 123.206C130.074 122.86 130.42 122.538 130.783 122.232C131.145 121.934 131.523 121.652 131.926 121.394C133.834 120.324 135.887 119.784 138.085 119.784C140.274 119.784 142.327 120.324 144.243 121.394C144.638 121.652 145.024 121.934 145.387 122.232C145.749 122.538 146.095 122.86 146.417 123.206C146.739 123.552 147.037 123.914 147.311 124.301C147.592 124.687 147.842 125.082 148.067 125.5C148.293 125.919 148.494 126.345 148.671 126.78C148.84 127.223 148.985 127.674 149.106 128.133C149.227 128.592 149.307 129.059 149.372 129.526C149.428 129.992 149.46 130.467 149.46 130.942C149.46 131.417 149.428 131.884 149.372 132.359C149.307 132.826 149.227 133.293 149.106 133.752C148.985 134.211 148.84 134.654 148.671 135.097C148.494 135.539 148.293 135.966 148.067 136.385C147.842 136.795 147.592 137.198 147.311 137.584C147.037 137.963 146.739 138.333 146.417 138.671C146.095 139.017 145.749 139.347 145.387 139.645C145.024 139.951 144.638 140.233 144.243 140.483C142.335 141.577 140.282 142.117 138.085 142.101ZM138.085 125.468C136.909 125.46 135.814 125.75 134.792 126.329C133.987 126.796 133.367 127.44 132.932 128.27C132.505 129.099 132.328 129.976 132.401 130.91V130.991C132.328 131.917 132.505 132.794 132.932 133.623C133.367 134.453 133.987 135.097 134.792 135.564C135.814 136.135 136.909 136.417 138.085 136.417C139.252 136.417 140.355 136.135 141.377 135.564C142.182 135.097 142.802 134.453 143.229 133.623C143.664 132.794 143.841 131.917 143.768 130.983C143.857 130.041 143.68 129.147 143.253 128.31C142.818 127.465 142.19 126.804 141.377 126.329C140.355 125.75 139.26 125.46 138.085 125.468Z" fill="#FF7900"/>
<g id="Clip path group_5">
<mask id="mask4_649_388" style="mask-type:luminance" maskUnits="userSpaceOnUse" x="110" y="104" width="55" height="54">
<g id="c3a1fff479">
<path id="Vector_15" d="M110.992 104.866H164.578V157.461H110.992V104.866Z" fill="white"/>
</g>
</mask>
<g mask="url(#mask4_649_388)">
<g id="Group_5">
<path id="Vector_16" d="M138.284 156.721C137.623 156.713 136.955 156.672 136.295 156.584C131.972 156.56 131.287 151.923 131.07 149.902L129.75 149.354C128.188 150.836 126.336 151.552 124.187 151.512C121.844 151.053 120.025 149.821 118.736 147.809C115.613 144.733 118.471 140.974 119.751 139.388L119.203 138.059C117.046 138.011 115.226 137.206 113.737 135.636C112.401 133.655 111.99 131.498 112.497 129.155C112.457 124.768 117.159 124.14 119.179 123.914L119.719 122.602C118.229 121.04 117.513 119.18 117.561 117.023C118.012 114.672 119.244 112.852 121.256 111.556C124.324 108.425 128.075 111.299 129.661 112.579L130.982 112.031C131.03 109.866 131.835 108.038 133.397 106.541C135.377 105.212 137.535 104.802 139.861 105.301C144.209 105.124 144.869 109.97 145.086 111.999L146.407 112.539C147.969 111.065 149.828 110.341 151.97 110.373C154.312 110.84 156.132 112.072 157.428 114.076C160.552 117.16 157.678 120.919 156.406 122.505L156.945 123.826C159.111 123.882 160.93 124.687 162.428 126.257C163.74 128.237 164.15 130.403 163.659 132.73C163.7 137.125 159.006 137.753 156.985 137.971L156.438 139.291C157.927 140.853 158.644 142.713 158.595 144.87C158.137 147.221 156.905 149.04 154.9 150.337C151.833 153.468 148.081 150.594 146.503 149.314L145.175 149.87C145.127 152.027 144.314 153.855 142.76 155.352C141.431 156.35 139.942 156.801 138.284 156.721ZM136.963 150.932C137.712 151.093 138.461 151.085 139.209 150.9C139.483 149.837 139.636 148.759 139.676 147.656C139.717 147.124 139.902 146.641 140.216 146.207C140.53 145.78 140.932 145.458 141.423 145.257L145.827 143.437C146.705 143.067 147.55 143.131 148.363 143.614C148.91 143.96 149.434 144.355 149.933 144.773C150.392 145.168 150.883 145.53 151.382 145.86C152.783 144.749 152.952 144.266 152.96 144.25C152.396 143.308 151.744 142.439 150.996 141.634C150.649 141.231 150.44 140.764 150.36 140.233C150.271 139.702 150.335 139.194 150.537 138.695L152.316 134.38C152.686 133.478 153.338 132.899 154.272 132.625C154.908 132.48 155.56 132.392 156.212 132.335C156.816 132.279 157.42 132.182 158.024 132.053C158.185 131.305 158.177 130.556 158 129.807C156.929 129.534 155.85 129.381 154.747 129.34C154.216 129.292 153.733 129.115 153.306 128.801C152.871 128.479 152.557 128.076 152.356 127.585L150.537 123.182C150.174 122.304 150.239 121.459 150.714 120.638C151.068 120.09 151.454 119.559 151.873 119.06C152.268 118.593 152.63 118.11 152.968 117.602C151.857 116.202 151.374 116.033 151.358 116.024C150.416 116.588 149.555 117.24 148.749 117.981C148.347 118.327 147.88 118.544 147.357 118.633C146.825 118.713 146.318 118.649 145.827 118.448L141.423 116.628C140.554 116.266 139.998 115.622 139.757 114.712C139.62 114.068 139.523 113.416 139.475 112.756C139.419 112.152 139.33 111.548 139.209 110.953C138.461 110.783 137.712 110.792 136.963 110.977C136.698 112.039 136.537 113.126 136.496 114.229C136.456 114.761 136.271 115.244 135.957 115.67C135.651 116.105 135.248 116.419 134.757 116.628L130.354 118.448C129.484 118.81 128.639 118.746 127.826 118.271C127.27 117.916 126.747 117.53 126.248 117.103C125.781 116.717 125.298 116.355 124.791 116.016C123.398 117.127 123.221 117.61 123.221 117.627C123.776 118.568 124.428 119.438 125.177 120.243C125.523 120.646 125.733 121.112 125.821 121.644C125.902 122.175 125.845 122.682 125.636 123.182L123.816 127.585C123.462 128.455 122.818 129.018 121.908 129.252C121.264 129.389 120.62 129.485 119.96 129.534C119.356 129.59 118.753 129.678 118.157 129.799C117.988 130.556 117.996 131.305 118.181 132.053C119.244 132.319 120.322 132.48 121.417 132.52C121.949 132.561 122.432 132.746 122.858 133.06C123.293 133.374 123.607 133.776 123.808 134.267L125.636 138.687C125.998 139.557 125.934 140.41 125.451 141.223C125.105 141.771 124.718 142.294 124.299 142.793C123.905 143.26 123.543 143.743 123.213 144.25C124.324 145.659 124.799 145.828 124.823 145.828C125.749 145.265 126.618 144.612 127.415 143.872C127.826 143.526 128.293 143.316 128.816 143.228C129.347 143.147 129.854 143.204 130.346 143.413L134.749 145.232C135.619 145.595 136.182 146.231 136.416 147.148C136.561 147.792 136.657 148.445 136.714 149.097C136.762 149.717 136.842 150.32 136.963 150.932Z" fill="#FF7900"/>
</g>
</g>
</g>
<path id="Vector_17" d="M149.452 91.8653C147.045 91.8814 144.791 91.2856 142.706 90.0941C141.804 89.5628 140.991 88.9268 140.258 88.17C139.534 87.4213 138.922 86.584 138.415 85.6662C137.915 84.7485 137.545 83.7824 137.312 82.7599C137.07 81.7456 136.974 80.7151 137.022 79.6685C136.974 78.6219 137.07 77.5914 137.312 76.569C137.545 75.5465 137.915 74.5804 138.415 73.6627C138.922 72.7449 139.534 71.9076 140.258 71.1589C140.991 70.4102 141.804 69.7742 142.706 69.2428C143.736 68.6632 144.823 68.2204 145.966 67.9225C147.109 67.6246 148.269 67.4717 149.452 67.4717C150.636 67.4717 151.803 67.6246 152.946 67.9225C154.089 68.2204 155.176 68.6632 156.207 69.2428C157.108 69.7742 157.921 70.4182 158.654 71.1669C159.387 71.9237 159.999 72.761 160.498 73.6868C160.997 74.6046 161.367 75.5787 161.601 76.6012C161.842 77.6236 161.939 78.6621 161.89 79.7087C161.931 80.7553 161.834 81.7778 161.593 82.7922C161.351 83.8146 160.981 84.7726 160.482 85.6904C159.982 86.6082 159.371 87.4374 158.646 88.1861C157.913 88.9348 157.1 89.5708 156.207 90.0941C154.113 91.2856 151.859 91.8814 149.452 91.8653ZM149.452 73.1555C148.067 73.1474 146.771 73.4775 145.564 74.1618C144.606 74.7254 143.865 75.4982 143.35 76.4885C142.826 77.4706 142.617 78.5253 142.706 79.6363V79.7168C142.617 80.8278 142.834 81.8824 143.35 82.8646C143.865 83.8548 144.606 84.6277 145.572 85.1832C146.779 85.8514 148.075 86.1895 149.452 86.1895C150.829 86.1895 152.125 85.8514 153.333 85.1832C154.299 84.6277 155.031 83.8468 155.555 82.8646C156.07 81.8744 156.287 80.8278 156.199 79.7168C156.295 78.5977 156.086 77.535 155.571 76.5287C155.047 75.5304 154.307 74.7415 153.341 74.1699C152.133 73.4855 150.837 73.1474 149.452 73.1555Z" fill="#FF7900"/>
<g id="Clip path group_6">
<mask id="mask5_649_388" style="mask-type:luminance" maskUnits="userSpaceOnUse" x="119" y="49" width="60" height="60">
<g id="066f2d2ae3">
<path id="Vector_18" d="M119.234 49.2197H178.479V108.988H119.234V49.2197Z" fill="white"/>
</g>
</mask>
<g mask="url(#mask5_649_388)">
<g id="Group_6">
<path id="Vector_19" d="M149.681 108.281C148.948 108.281 148.216 108.24 147.483 108.16H147.387C142.669 108.16 142.105 102.798 141.888 100.753L140.02 99.9723C138.305 101.655 136.261 102.484 133.861 102.452C132.646 102.202 131.519 101.727 130.496 101.027C129.474 100.319 128.62 99.441 127.952 98.3944C124.539 95.0453 127.952 90.8267 129.24 89.2166L128.459 87.3327C126.06 87.3488 124.015 86.4955 122.333 84.7807C120.932 82.5989 120.497 80.2481 121.037 77.7122C120.964 72.8978 126.374 72.3182 128.427 72.1008L129.2 70.2331C127.517 68.5102 126.688 66.4492 126.712 64.0501C126.962 62.8264 127.437 61.6993 128.137 60.6769C128.846 59.6464 129.715 58.793 130.77 58.1248C134.111 54.6952 138.322 58.1248 139.924 59.421L141.816 58.632C141.799 56.2249 142.653 54.1719 144.376 52.4813C146.549 51.0805 148.892 50.6457 151.42 51.1851H151.517C156.234 51.1851 156.798 56.5388 157.015 58.5918V58.6079L158.883 59.3807C160.598 57.6901 162.659 56.8609 165.058 56.885C166.274 57.1346 167.393 57.6096 168.423 58.318C169.445 59.0184 170.291 59.896 170.959 60.9506C174.373 64.2997 170.959 68.5183 169.671 70.1284L170.452 72.0284C172.859 72.0123 174.904 72.8576 176.595 74.5804C177.995 76.7541 178.43 79.113 177.883 81.6489C177.963 86.4633 172.553 87.0349 170.492 87.2522L169.719 89.128C171.402 90.8428 172.231 92.9038 172.207 95.311C171.957 96.5266 171.482 97.6537 170.782 98.6842C170.082 99.7066 169.204 100.56 168.157 101.228C164.808 104.65 160.606 101.228 159.004 99.9321L157.104 100.721C157.12 103.128 156.275 105.181 154.56 106.864C153.103 107.934 151.476 108.401 149.681 108.281ZM147.91 102.476C150.349 102.734 150.913 102.452 150.969 102.42C151.339 101.124 151.549 99.8033 151.605 98.4507C151.653 97.9274 151.839 97.4605 152.145 97.0338C152.459 96.6152 152.861 96.3012 153.344 96.0999L158.295 94.047C159.173 93.6847 160.018 93.7491 160.831 94.2241C161.435 94.6106 162.007 95.0372 162.554 95.5042C163.15 96.0114 163.778 96.4703 164.446 96.8728H164.462C166.41 95.3512 166.523 94.7394 166.531 94.7394C165.943 93.5318 165.187 92.4449 164.253 91.4788C163.907 91.0763 163.697 90.6094 163.609 90.078C163.528 89.5467 163.585 89.0395 163.794 88.5403L165.839 83.5811C166.201 82.7116 166.837 82.1561 167.747 81.9146C168.455 81.7617 169.164 81.6489 169.888 81.5926C170.669 81.5282 171.442 81.4074 172.207 81.2142C172.465 78.7748 172.191 78.2113 172.159 78.1549C170.854 77.7846 169.526 77.5753 168.173 77.5189C167.658 77.4626 167.183 77.2855 166.765 76.9715C166.346 76.6575 166.032 76.263 165.831 75.7719L163.786 70.8047C163.424 69.9271 163.488 69.0818 163.971 68.2687C164.357 67.6568 164.784 67.0852 165.243 66.5378C165.75 65.942 166.209 65.306 166.62 64.6378V64.6217C165.098 62.6654 164.486 62.5527 164.478 62.5527C163.279 63.1404 162.192 63.8972 161.226 64.831C160.823 65.1772 160.356 65.3946 159.833 65.4751C159.302 65.5637 158.794 65.4992 158.303 65.2899L153.352 63.2451C152.483 62.8828 151.927 62.2468 151.694 61.329C151.533 60.6205 151.428 59.904 151.364 59.1875C151.299 58.3985 151.178 57.6257 150.993 56.8609C148.562 56.6032 147.998 56.877 147.942 56.9092C147.572 58.2134 147.362 59.5498 147.306 60.9023C147.25 61.4256 147.073 61.8925 146.759 62.3192C146.445 62.7379 146.05 63.0518 145.567 63.2531L140.616 65.298C139.738 65.6603 138.901 65.6039 138.08 65.1209C137.476 64.7344 136.905 64.3077 136.357 63.8408C135.761 63.3336 135.125 62.8747 134.465 62.4641L134.441 62.4802C132.493 64.0018 132.38 64.6137 132.38 64.6217C132.968 65.8213 133.725 66.9081 134.65 67.8742C134.997 68.2848 135.214 68.7517 135.294 69.2831C135.383 69.8064 135.319 70.3216 135.117 70.8127L133.072 75.7719C132.71 76.6414 132.074 77.205 131.156 77.4384C130.456 77.5994 129.748 77.7041 129.031 77.7605C128.242 77.8249 127.469 77.9537 126.704 78.1388C126.447 80.5863 126.704 81.1417 126.753 81.1981C128.057 81.5684 129.377 81.7778 130.73 81.8341C131.253 81.8824 131.728 82.0676 132.147 82.3816C132.565 82.6955 132.879 83.0981 133.081 83.5811L135.125 88.5403C135.488 89.4179 135.431 90.2712 134.948 91.0844C134.562 91.6882 134.135 92.2678 133.676 92.8153C133.169 93.411 132.71 94.047 132.308 94.7152C133.821 96.6715 134.433 96.7842 134.441 96.7842C135.641 96.1965 136.719 95.4398 137.677 94.5059C138.088 94.1597 138.555 93.9424 139.078 93.8618C139.61 93.7733 140.117 93.8377 140.608 94.039L145.567 96.0919C146.445 96.4542 147 97.0982 147.234 98.016C147.387 98.7164 147.499 99.4329 147.556 100.149C147.612 100.93 147.733 101.711 147.91 102.476Z" fill="#FF7900"/>
</g>
</g>
</g>
</g>
</g>
</svg>
