<svg width="80" height="79" viewBox="0 0 80 79" fill="none" xmlns="http://www.w3.org/2000/svg">
<g id="Group 1171275933">
<g id="Group 1000007595">
<ellipse id="Ellipse 202" cx="40" cy="39.3732" rx="40" ry="39.3732" fill="#FF7900" fill-opacity="0.22"/>
</g>
<path id="Vector" d="M18.9195 54.2748H25.6479V60.1594C25.6479 60.2708 25.6689 60.3793 25.7108 60.4818C25.7527 60.5842 25.8126 60.6746 25.8905 60.7529C25.9683 60.8343 26.0581 60.8945 26.16 60.9367C26.2618 60.9789 26.3666 61 26.4774 61H53.5556C53.6634 61 53.7712 60.9789 53.873 60.9367C53.9718 60.8945 54.0616 60.8343 54.1395 60.7529C54.2173 60.6746 54.2772 60.5842 54.3192 60.4818C54.3611 60.3793 54.382 60.2708 54.382 60.1594V54.2748H61.1104C61.4937 54.2688 61.865 54.1904 62.2183 54.0368C62.5717 53.8831 62.8831 53.6692 63.1526 53.392C63.4221 53.1148 63.6317 52.7954 63.7784 52.4338C63.9251 52.0722 63.997 51.6986 64 51.3069V34.4367C64 34.042 63.9251 33.6623 63.7754 33.2977C63.6287 32.9332 63.4191 32.6138 63.1436 32.3336C62.8711 32.0564 62.5537 31.8394 62.1974 31.6888C61.8381 31.5381 61.4668 31.4598 61.0775 31.4598H58.4544V24.2645C58.4544 24.1531 58.4334 24.0446 58.3915 23.9421C58.3496 23.8397 58.2897 23.7463 58.2119 23.6679C58.134 23.5896 58.0442 23.5293 57.9424 23.4872C57.8435 23.445 57.7357 23.4239 57.6279 23.4239H54.3162V22.4145C54.3162 22.303 54.2922 22.1976 54.2503 22.0951C54.2533 22.074 54.2533 22.0559 54.2503 22.0349C54.2143 21.9625 54.1664 21.8932 54.1095 21.833L49.1029 17.1778C49.046 17.1537 48.9891 17.1356 48.9293 17.1265L48.8304 17.0663C48.7346 17.0241 48.6358 17.003 48.531 17H26.4504C26.3426 17 26.2378 17.0211 26.136 17.0633C26.0342 17.1055 25.9444 17.1687 25.8665 17.2471C25.7886 17.3254 25.7288 17.4158 25.6868 17.5182C25.6449 17.6207 25.624 17.7292 25.624 17.8406V23.5143H22.3152C22.2044 23.5143 22.0996 23.5354 21.9978 23.5806C21.8959 23.6227 21.8061 23.683 21.7283 23.7614C21.6504 23.8397 21.5905 23.9301 21.5486 24.0355C21.5067 24.138 21.4857 24.2434 21.4857 24.3549V31.5532H18.9195C18.5422 31.5532 18.1739 31.6255 17.8236 31.7731C17.4702 31.9178 17.1588 32.1257 16.8863 32.3938C16.6138 32.662 16.4012 32.9723 16.2485 33.3279C16.0928 33.6804 16.012 34.051 16 34.4367V51.3069C16 51.7016 16.0749 52.0783 16.2246 52.4429C16.3713 52.8044 16.5839 53.1268 16.8564 53.404C17.1319 53.6812 17.4463 53.8952 17.8056 54.0458C18.1619 54.1965 18.5333 54.2748 18.9195 54.2748ZM52.7531 45.9286V59.379H27.2559V44.1689H52.7531V45.9286ZM53.5795 42.566H26.4504C26.3426 42.566 26.2378 42.5871 26.136 42.6293C26.0342 42.6714 25.9444 42.7317 25.8665 42.81C25.7886 42.8884 25.7288 42.9818 25.6868 43.0842C25.6449 43.1867 25.624 43.2951 25.624 43.4066V45.1693H25.1778V41.8067H54.7953V45.1693H54.3491V43.3554C54.3431 43.1355 54.2623 42.9456 54.1095 42.7889C53.9568 42.6323 53.7712 42.5479 53.5556 42.5389L53.5795 42.566ZM54.406 25.0961H56.8913V31.4839H54.406V25.0961ZM49.3275 19.6485L51.4954 21.6642H49.3275V19.6485ZM27.2559 18.5879H47.7285V22.4386C47.7285 22.5501 47.7495 22.6586 47.7914 22.761C47.8333 22.8635 47.8932 22.9538 47.9711 23.0322C48.0489 23.1135 48.1387 23.1738 48.2406 23.216C48.3424 23.2582 48.4472 23.2793 48.558 23.2793H52.777V31.4688H27.2559V18.5879ZM23.1177 25.069H25.6V31.4598H23.1177V25.069ZM17.596 34.4367C17.599 34.2589 17.6349 34.0872 17.7008 33.9245C17.7697 33.7618 17.8655 33.6171 17.9913 33.4936C18.114 33.367 18.2548 33.2706 18.4165 33.2013C18.5782 33.135 18.7459 33.0989 18.9195 33.0989H61.0775C61.2542 33.0989 61.4218 33.135 61.5865 33.2043C61.7482 33.2736 61.892 33.3701 62.0147 33.4966C62.1375 33.6262 62.2333 33.7708 62.3022 33.9365C62.3681 34.1022 62.401 34.274 62.401 34.4518V51.3069C62.401 51.4847 62.3651 51.6564 62.2992 51.8191C62.2303 51.9849 62.1345 52.1295 62.0117 52.253C61.886 52.3796 61.7452 52.476 61.5835 52.5423C61.4218 52.6116 61.2512 52.6447 61.0775 52.6447H54.3491V46.7602H55.5978C55.7085 46.7602 55.8134 46.7391 55.9152 46.6969C56.017 46.6517 56.1068 46.5915 56.1847 46.5131C56.2625 46.4348 56.3224 46.3444 56.3643 46.2419C56.4062 46.1365 56.4272 46.031 56.4272 45.9195V40.96C56.4272 40.8485 56.4062 40.7401 56.3643 40.6376C56.3224 40.5352 56.2625 40.4448 56.1847 40.3634C56.1068 40.2851 56.017 40.2248 55.9152 40.1826C55.8134 40.1405 55.7085 40.1194 55.5978 40.1194H24.3993C24.2885 40.1194 24.1837 40.1405 24.0818 40.1826C23.98 40.2248 23.8932 40.2851 23.8153 40.3634C23.7375 40.4448 23.6776 40.5352 23.6357 40.6376C23.5938 40.7401 23.5728 40.8485 23.5728 40.96V45.9195C23.5728 46.031 23.5938 46.1365 23.6357 46.2419C23.6776 46.3444 23.7375 46.4348 23.8153 46.5131C23.8932 46.5915 23.98 46.6517 24.0818 46.6969C24.1837 46.7391 24.2885 46.7602 24.3993 46.7602H25.6479V52.6447H18.9195C18.7459 52.6447 18.5782 52.6116 18.4165 52.5423C18.2548 52.476 18.111 52.3796 17.9883 52.253C17.8625 52.1295 17.7667 51.9849 17.7008 51.8191C17.6319 51.6564 17.599 51.4847 17.596 51.3069V34.4367Z" fill="#FF7900"/>
</g>
</svg>
