<svg width="873" height="785" viewBox="0 0 873 785" fill="none" xmlns="http://www.w3.org/2000/svg">
<path fill-rule="evenodd" clip-rule="evenodd" d="M571.08 8.26367C720.323 38.989 823.173 88.1445 833.251 104.525C845.351 125.005 851.395 149.582 863.509 243.795C867.543 282.704 875.61 383.077 871.576 465.007C869.553 544.888 865.519 632.952 855.442 657.53C851.408 665.727 817.129 700.538 794.938 706.686C792.915 710.784 813.083 626.805 819.139 475.24C825.196 329.823 813.096 235.598 807.039 194.639C803.005 168.012 794.938 149.569 788.894 133.188C780.827 120.893 661.842 75.8361 591.248 61.5046C571.08 86.0823 567.046 94.2792 563.013 102.476C558.979 114.758 619.483 184.406 623.517 190.554C631.584 168.025 615.449 114.771 607.382 108.624C617.46 104.538 653.775 100.427 659.819 108.624C659.819 110.673 673.93 118.87 679.987 188.504C722.346 186.455 718.312 198.738 726.38 204.885C730.413 188.504 734.447 161.865 720.336 147.533C760.659 145.484 768.726 145.484 776.806 161.865C780.853 172.111 784.873 204.885 766.729 254.028C813.121 278.618 805.041 278.618 805.041 340.056C805.041 381.015 803.031 432.219 794.964 481.375C788.907 518.248 784.873 553.059 778.829 589.932C762.695 673.911 740.504 729.214 738.493 733.299C736.483 737.398 712.282 745.595 682.023 755.828C682.023 737.398 702.191 688.243 722.359 573.538C732.437 510.038 744.537 448.6 744.537 419.924C752.605 323.662 754.628 319.564 748.571 268.359C746.561 256.064 738.493 251.966 726.393 247.867C726.393 247.867 720.349 272.458 714.292 284.74C710.258 297.023 700.181 313.416 700.181 313.416C718.326 321.6 730.426 335.945 730.426 348.24C730.426 401.481 704.214 536.665 688.067 589.919C675.966 626.792 663.865 659.553 659.832 665.701C655.798 667.75 639.664 673.885 611.429 680.033C617.473 643.173 643.697 583.771 675.966 387.149C682.01 348.24 692.101 311.367 663.865 301.121C661.842 335.945 627.563 479.313 605.385 528.468C601.338 526.419 563.026 512.074 561.015 510.038C559.005 507.989 512.612 344.129 488.41 223.289C464.209 221.24 409.762 213.043 405.728 235.585H448.087C442.409 239.293 437.596 244.181 433.976 249.916C450.111 251.966 460.188 274.494 468.268 305.219L413.808 307.269C417.855 307.269 421.876 311.354 423.886 321.6V493.644H532.793L625.566 747.618C583.206 770.147 536.827 784.478 508.591 784.478C480.356 784.478 409.762 747.618 401.708 747.618C391.617 747.618 321.036 784.478 292.8 784.478C264.565 784.478 218.185 768.084 175.826 747.618L268.599 493.644H377.506V313.442C375.496 309.344 375.496 307.295 369.439 305.245C357.338 305.245 321.036 303.196 314.992 317.528C306.925 299.098 294.824 262.225 304.901 243.795C308.948 235.611 329.103 223.315 371.462 223.315C381.54 176.209 444.067 180.308 534.816 188.504C534.816 188.504 532.793 192.59 534.816 200.787C550.951 286.815 587.24 419.937 587.24 421.986C601.351 358.499 621.532 288.865 609.418 260.188C603.374 243.795 591.274 233.561 550.938 180.308C528.759 151.631 506.568 122.955 508.591 112.722C510.576 102.489 510.576 75.8491 571.08 8.26367Z" fill="#FF7900"/>
<path fill-rule="evenodd" clip-rule="evenodd" d="M363.356 16.4605C411.759 -1.96956 462.172 0.0666949 476.296 0.0666949C466.219 30.7921 425.883 90.1936 383.524 110.673C361.345 122.955 314.953 131.152 286.717 139.336C254.449 149.582 202.012 165.963 163.699 196.688C137.487 217.168 125.387 245.844 127.397 286.815C151.598 260.188 202.012 229.463 242.348 215.131C232.27 251.991 234.281 282.717 220.17 317.541C212.102 340.069 151.598 391.287 135.477 419.95C123.363 438.38 115.296 471.155 121.353 499.831C121.353 499.831 135.477 479.351 147.565 467.069C171.766 440.442 222.18 405.631 222.18 405.631C222.18 424.061 214.113 505.991 206.045 538.766C197.978 567.442 147.565 618.647 133.441 635.027C133.441 635.027 147.552 673.937 155.619 698.527C163.686 721.056 167.72 737.437 167.72 737.437C149.575 731.289 68.8902 696.478 44.7016 671.901C14.4431 641.175 12.4328 608.401 8.39922 573.59C6.37594 561.294 -1.69125 491.66 0.31906 477.328C2.34234 477.328 44.6886 508.054 64.8566 532.631C80.058 549.49 94.2047 567.271 107.216 585.872C105.615 576.23 103.594 566.662 101.159 557.196C99.1487 534.667 113.26 518.287 111.249 514.188L103.182 497.794C91.0815 471.167 32.6008 430.209 16.4534 403.582C10.4095 393.336 -5.72485 366.722 4.35266 241.771C4.35266 241.771 50.7325 290.927 74.9341 321.652C91.0685 342.144 107.203 374.906 107.203 374.906C101.146 329.849 119.304 307.32 117.28 307.32C117.28 307.32 115.257 290.927 107.203 278.644C85.0246 239.722 34.5981 219.243 26.531 172.137C20.4741 137.313 36.6085 108.637 117.28 75.875C133.415 131.178 123.324 180.333 121.314 225.39C161.65 192.616 155.606 106.6 175.761 75.875C181.818 63.5796 191.895 51.2973 220.131 39.0149C248.366 28.7688 264.5 20.5849 290.712 16.4865C290.712 20.5849 276.601 71.7895 264.5 98.4164C250.389 129.142 230.221 141.424 230.221 143.473C260.48 135.276 284.668 120.945 304.836 90.2325C312.916 79.9864 320.971 67.704 329.038 55.4087C337.131 41.0382 345.198 24.6574 363.356 16.4605Z" fill="#FF7900"/>
<path fill-rule="evenodd" clip-rule="evenodd" d="M659.82 192.603C688.055 188.518 675.954 241.759 667.887 262.238C655.786 237.66 647.719 221.28 629.562 198.738C639.652 194.653 647.706 194.653 659.82 192.603ZM367.391 254.041C399.66 251.992 427.895 251.992 429.905 280.668H349.233C343.176 260.189 349.233 256.09 367.391 254.041ZM292.763 567.417L343.176 727.165C343.176 727.165 312.931 731.264 292.763 731.264C270.584 731.264 238.303 727.165 238.303 727.165L292.763 567.417ZM508.554 567.417L563.001 727.165C563.001 727.165 530.732 731.264 508.554 731.264C490.409 731.264 458.127 727.165 458.127 727.165L508.554 567.417ZM377.468 542.839V585.847C377.468 585.847 377.468 589.945 379.479 589.945C385.535 594.044 387.546 594.044 387.546 594.044L423.848 604.29V542.839H470.241L399.66 741.51L331.088 542.839H377.468Z" fill="white"/>
</svg>
