<svg width="264" height="60" viewBox="0 0 264 60" fill="none" xmlns="http://www.w3.org/2000/svg">
<path d="M263.507 59.041L254.963 57.6278L260.459 50.9349L263.507 59.041ZM0.122727 58.5757C0.636548 57.9262 1.16479 57.2729 1.70731 56.6165L2.8635 57.5722C2.32772 58.2204 1.80623 58.8653 1.29915 59.5063L0.122727 58.5757ZM5.04921 52.7386C6.16438 51.4956 7.32845 50.2456 8.54054 48.9925L9.61871 50.0353C8.41949 51.2752 7.26822 52.5114 6.16572 53.7403L5.04921 52.7386ZM12.1691 45.3726C13.3768 44.2093 14.6251 43.0464 15.9133 41.8869L16.9168 43.0018C15.6411 44.1501 14.4052 45.3014 13.2097 46.453L12.1691 45.3726ZM19.7543 38.5418C21.0383 37.4597 22.357 36.3831 23.71 35.3147L24.6396 36.4919C23.2992 37.5504 21.9928 38.6169 20.7209 39.6888L19.7543 38.5418ZM27.7759 32.2068C29.1339 31.2021 30.5227 30.2071 31.942 29.2239L32.7961 30.457C31.3898 31.4312 30.0136 32.4171 28.668 33.4127L27.7759 32.2068ZM36.1704 26.3902C37.5858 25.4728 39.0286 24.5683 40.4985 23.6786L41.2752 24.9619C39.8186 25.8435 38.3888 26.7398 36.9862 27.6489L36.1704 26.3902ZM44.9226 21.0934C46.3909 20.2656 47.8839 19.4533 49.4013 18.6584L50.0974 19.9871C48.5938 20.7748 47.1143 21.5797 45.6593 22.4001L44.9226 21.0934ZM53.9585 16.3602C55.4838 15.6204 57.032 14.8987 58.6026 14.1967L59.2147 15.5661C57.6585 16.2617 56.1245 16.9768 54.6131 17.7098L53.9585 16.3602ZM63.2888 12.1894C64.8529 11.5482 66.4378 10.927 68.0431 10.3273L68.568 11.7324C66.9776 12.3265 65.4074 12.942 63.8577 13.5773L63.2888 12.1894ZM72.8754 8.60913C74.472 8.06993 76.0876 7.55234 77.7218 7.05772L78.1564 8.4934C76.5375 8.98338 74.937 9.49612 73.3553 10.0303L72.8754 8.60913ZM82.6392 5.65504C84.2751 5.21667 85.9285 4.8016 87.5992 4.41109L87.9406 5.87172C86.2857 6.25854 84.6479 6.66969 83.0275 7.10392L82.6392 5.65504ZM92.5814 3.3308C94.2471 2.99762 95.9289 2.68909 97.6268 2.40639L97.8732 3.88602C96.1914 4.16604 94.5255 4.47164 92.8756 4.80166L92.5814 3.3308ZM102.659 1.65143C104.339 1.42708 106.033 1.22819 107.741 1.05583L107.892 2.54826C106.199 2.71898 104.521 2.91599 102.858 3.13821L102.659 1.65143ZM112.829 0.625004C114.515 0.509491 116.213 0.419964 117.926 0.357407L117.98 1.85641C116.284 1.91838 114.601 2.00706 112.932 2.12149L112.829 0.625004ZM123.046 0.251896C124.731 0.243935 126.427 0.262222 128.136 0.307652L128.096 1.80712C126.403 1.76211 124.722 1.74399 123.053 1.75188L123.046 0.251896ZM133.267 0.524429C134.944 0.621494 136.632 0.744827 138.331 0.895245L138.199 2.3894C136.515 2.24033 134.842 2.11811 133.18 2.02192L133.267 0.524429ZM143.447 1.42691C145.111 1.62545 146.786 1.85009 148.47 2.10155L148.249 3.58511C146.579 3.33582 144.919 3.11314 143.269 2.91636L143.447 1.42691ZM153.546 2.93602C155.195 3.23191 156.852 3.5536 158.519 3.90177L158.212 5.37007C156.559 5.0248 154.916 4.70581 153.281 4.41243L153.546 2.93602ZM163.545 5.02618C165.171 5.4141 166.806 5.82733 168.448 6.26644L168.061 7.71555C166.431 7.27992 164.81 6.87002 163.197 6.48525L163.545 5.02618ZM173.4 7.66204C175.004 8.13749 176.616 8.63773 178.235 9.16329L177.772 10.59C176.165 10.0684 174.566 9.57199 172.974 9.10022L173.4 7.66204ZM183.094 10.8097C184.677 11.3684 186.267 11.9514 187.863 12.5591L187.329 13.9609C185.744 13.3575 184.166 12.7788 182.595 12.2242L183.094 10.8097ZM192.615 14.4345C194.178 15.0729 195.747 15.735 197.322 16.4215L196.723 17.7966C195.158 17.1147 193.6 16.4571 192.048 15.8231L192.615 14.4345ZM201.955 18.5032C203.501 19.2187 205.052 19.9576 206.609 20.7204L205.949 22.0674C204.402 21.3094 202.861 20.5753 201.325 19.8645L201.955 18.5032ZM211.113 22.9857C212.619 23.763 214.13 24.5628 215.646 25.3854L214.931 26.7039C213.424 25.8862 211.922 25.0912 210.425 24.3186L211.113 22.9857ZM220.093 27.8556C221.553 28.6856 223.017 29.5367 224.486 30.4093L223.72 31.6989C222.259 30.8311 220.803 29.9848 219.352 29.1596L220.093 27.8556ZM228.904 33.0914C230.316 33.9668 231.732 34.8622 233.152 35.7778L232.339 37.0384C230.926 36.1276 229.518 35.237 228.114 34.3663L228.904 33.0914ZM237.423 38.5854C238.83 39.5287 240.242 40.4918 241.657 41.4752L240.801 42.7071C239.393 41.7285 237.988 40.7701 236.588 39.8316L237.423 38.5854ZM245.777 44.3879C247.154 45.3779 248.534 46.3871 249.917 47.4158L249.022 48.6195C247.645 47.5956 246.272 46.5911 244.902 45.6057L245.777 44.3879ZM253.987 50.491C255.313 51.5087 256.642 52.5444 257.973 53.5981L257.042 54.7744C255.717 53.7251 254.394 52.694 253.074 51.6808L253.987 50.491Z" fill="#FF7900"/>
</svg>
