<svg width="264" height="60" viewBox="0 0 264 60" fill="none" xmlns="http://www.w3.org/2000/svg">
<path d="M263.507 0.958984L254.963 2.37217L260.459 9.06505L263.507 0.958984ZM0.122727 1.42429C0.636548 2.07383 1.16479 2.72709 1.70731 3.38346L2.8635 2.42783C2.32772 1.77961 1.80623 1.1347 1.29915 0.49368L0.122727 1.42429ZM5.04921 7.26143C6.16438 8.50442 7.32845 9.75439 8.54054 11.0075L9.61871 9.96467C8.41949 8.72484 7.26822 7.48859 6.16572 6.25973L5.04921 7.26143ZM12.1691 14.6274C13.3768 15.7907 14.6251 16.9536 15.9133 18.1131L16.9168 16.9982C15.6411 15.8499 14.4052 14.6986 13.2097 13.547L12.1691 14.6274ZM19.7543 21.4582C21.0383 22.5403 22.357 23.6169 23.71 24.6853L24.6396 23.5081C23.2992 22.4496 21.9928 21.3831 20.7209 20.3112L19.7543 21.4582ZM27.7759 27.7932C29.1339 28.7979 30.5227 29.7929 31.942 30.7761L32.7961 29.543C31.3898 28.5688 30.0136 27.5829 28.668 26.5873L27.7759 27.7932ZM36.1704 33.6098C37.5858 34.5272 39.0286 35.4317 40.4985 36.3214L41.2752 35.0381C39.8186 34.1565 38.3888 33.2602 36.9862 32.3511L36.1704 33.6098ZM44.9226 38.9066C46.3909 39.7344 47.8839 40.5467 49.4013 41.3416L50.0974 40.0129C48.5938 39.2252 47.1143 38.4203 45.6593 37.5999L44.9226 38.9066ZM53.9585 43.6398C55.4838 44.3796 57.032 45.1013 58.6026 45.8033L59.2147 44.4339C57.6585 43.7383 56.1245 43.0232 54.6131 42.2902L53.9585 43.6398ZM63.2888 47.8106C64.8529 48.4518 66.4378 49.073 68.0431 49.6727L68.568 48.2676C66.9776 47.6735 65.4074 47.058 63.8577 46.4227L63.2888 47.8106ZM72.8754 51.3909C74.472 51.9301 76.0876 52.4477 77.7218 52.9423L78.1564 51.5066C76.5375 51.0166 74.937 50.5039 73.3553 49.9697L72.8754 51.3909ZM82.6392 54.345C84.2751 54.7833 85.9285 55.1984 87.5992 55.5889L87.9406 54.1283C86.2857 53.7415 84.6479 53.3303 83.0275 52.8961L82.6392 54.345ZM92.5814 56.6692C94.2471 57.0024 95.9289 57.3109 97.6268 57.5936L97.8732 56.114C96.1914 55.834 94.5255 55.5284 92.8756 55.1983L92.5814 56.6692ZM102.659 58.3486C104.339 58.5729 106.033 58.7718 107.741 58.9442L107.892 57.4517C106.199 57.281 104.521 57.084 102.858 56.8618L102.659 58.3486ZM112.829 59.375C114.515 59.4905 116.213 59.58 117.926 59.6426L117.98 58.1436C116.284 58.0816 114.601 57.9929 112.932 57.8785L112.829 59.375ZM123.046 59.7481C124.731 59.7561 126.427 59.7378 128.136 59.6923L128.096 58.1929C126.403 58.2379 124.722 58.256 123.053 58.2481L123.046 59.7481ZM133.267 59.4756C134.944 59.3785 136.632 59.2552 138.331 59.1048L138.199 57.6106C136.515 57.7597 134.842 57.8819 133.18 57.9781L133.267 59.4756ZM143.447 58.5731C145.111 58.3745 146.786 58.1499 148.47 57.8984L148.249 56.4149C146.579 56.6642 144.919 56.8869 143.269 57.0836L143.447 58.5731ZM153.546 57.064C155.195 56.7681 156.852 56.4464 158.519 56.0982L158.212 54.6299C156.559 54.9752 154.916 55.2942 153.281 55.5876L153.546 57.064ZM163.545 54.9738C165.171 54.5859 166.806 54.1727 168.448 53.7336L168.061 52.2845C166.431 52.7201 164.81 53.13 163.197 53.5148L163.545 54.9738ZM173.4 52.338C175.004 51.8625 176.616 51.3623 178.235 50.8367L177.772 49.41C176.165 49.9316 174.566 50.428 172.974 50.8998L173.4 52.338ZM183.094 49.1903C184.677 48.6316 186.267 48.0486 187.863 47.4409L187.329 46.0391C185.744 46.6425 184.166 47.2212 182.595 47.7758L183.094 49.1903ZM192.615 45.5655C194.178 44.9271 195.747 44.265 197.322 43.5785L196.723 42.2034C195.158 42.8853 193.6 43.5429 192.048 44.1769L192.615 45.5655ZM201.955 41.4968C203.501 40.7813 205.052 40.0424 206.609 39.2796L205.949 37.9326C204.402 38.6906 202.861 39.4247 201.325 40.1355L201.955 41.4968ZM211.113 37.0143C212.619 36.237 214.13 35.4372 215.646 34.6146L214.931 33.2961C213.424 34.1138 211.922 34.9088 210.425 35.6814L211.113 37.0143ZM220.093 32.1444C221.553 31.3144 223.017 30.4633 224.486 29.5907L223.72 28.3011C222.259 29.1689 220.803 30.0152 219.352 30.8404L220.093 32.1444ZM228.904 26.9086C230.316 26.0332 231.732 25.1378 233.152 24.2222L232.339 22.9616C230.926 23.8724 229.518 24.763 228.114 25.6337L228.904 26.9086ZM237.423 21.4146C238.83 20.4713 240.242 19.5082 241.657 18.5248L240.801 17.2929C239.393 18.2715 237.988 19.2299 236.588 20.1684L237.423 21.4146ZM245.777 15.6121C247.154 14.6221 248.534 13.6129 249.917 12.5842L249.022 11.3805C247.645 12.4044 246.272 13.4089 244.902 14.3943L245.777 15.6121ZM253.987 9.50902C255.313 8.49128 256.642 7.45565 257.973 6.40189L257.042 5.22564C255.717 6.27486 254.394 7.30597 253.074 8.31919L253.987 9.50902Z" fill="#FF7900"/>
</svg>
