<svg xmlns="http://www.w3.org/2000/svg" xmlns:xlink="http://www.w3.org/1999/xlink" width="1080" zoomAndPan="magnify" viewBox="0 0 810 809.999993" height="1080" preserveAspectRatio="xMidYMid meet" version="1.0"><defs><clipPath id="d9d052786c"><path d="M 743 415.632812 L 758.824219 415.632812 L 758.824219 431 L 743 431 Z M 743 415.632812 " clip-rule="nonzero"/></clipPath><clipPath id="b0aa711a11"><path d="M 289 692 L 374 692 L 374 779.039062 L 289 779.039062 Z M 289 692 " clip-rule="nonzero"/></clipPath><clipPath id="5f466f39fd"><path d="M 50.441406 362 L 170 362 L 170 485 L 50.441406 485 Z M 50.441406 362 " clip-rule="nonzero"/></clipPath><clipPath id="d5771715ec"><path d="M 254 31.289062 L 410 31.289062 L 410 191 L 254 191 Z M 254 31.289062 " clip-rule="nonzero"/></clipPath></defs><g clip-path="url(#d9d052786c)"><path fill="#ff7900" d="M 751.386719 415.65625 C 747.285156 415.65625 743.953125 419.066406 743.953125 423.273438 C 743.953125 427.484375 747.285156 430.894531 751.386719 430.894531 C 755.492188 430.894531 758.824219 427.484375 758.824219 423.273438 C 758.824219 419.066406 755.492188 415.65625 751.386719 415.65625 " fill-opacity="1" fill-rule="nonzero"/></g><path fill="#ff7900" d="M 690.183594 604.800781 C 683.921875 604.800781 678.832031 610.011719 678.832031 616.441406 C 678.832031 622.875 683.921875 628.085938 690.183594 628.085938 C 696.457031 628.085938 701.546875 622.875 701.546875 616.441406 C 701.546875 610.011719 696.457031 604.800781 690.183594 604.800781 " fill-opacity="1" fill-rule="nonzero"/><path fill="#ff7900" d="M 529.945312 704.921875 C 513.261719 704.921875 499.746094 718.785156 499.746094 735.878906 C 499.746094 752.976562 513.261719 766.839844 529.945312 766.839844 C 546.625 766.839844 560.140625 752.976562 560.140625 735.878906 C 560.140625 718.785156 546.625 704.921875 529.945312 704.921875 " fill-opacity="1" fill-rule="nonzero"/><g clip-path="url(#b0aa711a11)"><path fill="#ff7900" d="M 331.769531 692.753906 C 308.527344 692.753906 289.6875 712.066406 289.6875 735.894531 C 289.6875 759.726562 308.527344 779.039062 331.769531 779.039062 C 355.015625 779.039062 373.859375 759.726562 373.859375 735.894531 C 373.859375 712.066406 355.015625 692.753906 331.769531 692.753906 " fill-opacity="1" fill-rule="nonzero"/></g><path fill="#ff7900" d="M 171.488281 563.710938 C 143.078125 563.710938 120.035156 587.328125 120.035156 616.453125 C 120.035156 645.59375 143.078125 669.207031 171.488281 669.207031 C 199.902344 669.207031 222.945312 645.59375 222.945312 616.453125 C 222.945312 587.328125 199.902344 563.710938 171.488281 563.710938 " fill-opacity="1" fill-rule="nonzero"/><g clip-path="url(#5f466f39fd)"><path fill="#ff7900" d="M 169.761719 423.273438 C 169.761719 389.601562 143.128906 362.296875 110.277344 362.296875 C 77.425781 362.296875 50.792969 389.601562 50.792969 423.273438 C 50.792969 456.949219 77.425781 484.253906 110.277344 484.253906 C 143.128906 484.253906 169.761719 456.949219 169.761719 423.273438 " fill-opacity="1" fill-rule="nonzero"/></g><path fill="#ff7900" d="M 171.480469 157.734375 C 132.488281 157.734375 100.875 190.136719 100.875 230.109375 C 100.875 270.082031 132.488281 302.488281 171.480469 302.488281 C 210.46875 302.488281 242.082031 270.082031 242.082031 230.109375 C 242.082031 190.136719 210.46875 157.734375 171.480469 157.734375 " fill-opacity="1" fill-rule="nonzero"/><g clip-path="url(#d5771715ec)"><path fill="#ff7900" d="M 331.722656 31.289062 C 288.953125 31.289062 254.285156 66.828125 254.285156 110.671875 C 254.285156 154.515625 288.953125 190.054688 331.722656 190.054688 C 374.488281 190.054688 409.164062 154.515625 409.164062 110.671875 C 409.164062 66.828125 374.488281 31.289062 331.722656 31.289062 " fill-opacity="1" fill-rule="nonzero"/></g><path fill="#ff7900" d="M 529.898438 43.65625 C 493.800781 43.65625 464.535156 73.652344 464.535156 110.65625 C 464.535156 147.65625 493.800781 177.652344 529.898438 177.652344 C 565.988281 177.652344 595.25 147.65625 595.25 110.65625 C 595.25 73.652344 565.988281 43.65625 529.898438 43.65625 " fill-opacity="1" fill-rule="nonzero"/><path fill="#ff7900" d="M 690.175781 198.953125 C 673.398438 198.953125 659.792969 212.898438 659.792969 230.097656 C 659.792969 247.292969 673.398438 261.238281 690.175781 261.238281 C 706.957031 261.238281 720.554688 247.292969 720.554688 230.097656 C 720.554688 212.898438 706.957031 198.953125 690.175781 198.953125 " fill-opacity="1" fill-rule="nonzero"/></svg>