<svg width="571" height="555" viewBox="0 0 571 555" fill="none" xmlns="http://www.w3.org/2000/svg">
<path d="M48.5892 293.124C40.573 373.246 88.0039 436.788 253.037 429.162C418.07 421.536 491.169 298.643 522.755 181.083C554.341 63.5231 490.173 -3.47893 418.405 23.3214C346.636 50.1217 381.134 110.83 243.022 153.672C104.909 196.515 56.8367 210.687 48.5892 293.124Z" fill="#FCFE72" fill-opacity="0.22"/>
<path d="M56.789 270.844C43.6226 337.855 82.8545 426.794 221.904 432.204C360.954 437.614 518.624 246.213 534.418 147.637C550.211 49.0616 475.681 21.4331 433.915 30.2886C392.149 39.1442 374.441 84.327 339.33 102.828C304.219 121.328 75.9324 173.409 56.789 270.844Z" stroke="#0A2A42" stroke-miterlimit="10" stroke-linecap="round" stroke-linejoin="round"/>
<path d="M357.803 13.7623L364.859 1" stroke="#0A2A42" stroke-miterlimit="10" stroke-linecap="round" stroke-linejoin="round"/>
<path d="M367.533 19.9842L381.732 5.14795" stroke="#0A2A42" stroke-miterlimit="10" stroke-linecap="round" stroke-linejoin="round"/>
<path d="M372.959 29.0771L386.04 26.6836" stroke="#0A2A42" stroke-miterlimit="10" stroke-linecap="round" stroke-linejoin="round"/>
<path d="M207.885 457.507L199.426 469.387" stroke="#0A2A42" stroke-miterlimit="10" stroke-linecap="round" stroke-linejoin="round"/>
<path d="M198.921 450.222L183.131 463.351" stroke="#0A2A42" stroke-miterlimit="10" stroke-linecap="round" stroke-linejoin="round"/>
<path d="M194.565 440.572L181.297 441.465" stroke="#0A2A42" stroke-miterlimit="10" stroke-linecap="round" stroke-linejoin="round"/>
<path d="M1.48633 279.477H340.047C351.595 279.477 360.957 270.115 360.957 258.566V48.7768C360.957 37.2293 351.595 27.8677 340.047 27.8677H90.0876C79.4739 27.8677 70.545 35.8192 69.3177 46.3608L47.3592 235.087L1.48633 279.477Z" fill="#F2F9F1"/>
<path d="M1.48633 279.477H340.047C351.595 279.477 360.957 270.115 360.957 258.566V48.7768C360.957 37.2293 351.595 27.8677 340.047 27.8677H90.0876C79.4739 27.8677 70.545 35.8192 69.3177 46.3608L47.3592 235.087L1.48633 279.477Z" stroke="#0A2A42" stroke-miterlimit="10" stroke-linecap="round" stroke-linejoin="round"/>
<path d="M88.7918 239.323C55.3392 236.958 31.686 209.25 44.1884 176.811C56.6908 144.372 80.6823 144.372 92.1701 113.624C103.659 82.8744 115.598 51.3367 151.866 51.1117C188.134 50.8866 173.491 97.5167 166.283 103.599C159.075 109.682 142.18 131.307 142.18 131.307L124.383 202.492L88.7918 239.323Z" fill="#0A2A42"/>
<path d="M201.901 120.792L197.869 114.831C197.869 114.831 192.035 113.716 189.821 109.258C187.608 104.801 191.114 98.274 193.594 99.3595C196.072 100.445 195.021 104.251 195.021 104.251L206.418 95.4502C206.418 95.4502 210.273 100.602 209.667 106.728L213.475 111.202L201.901 120.792Z" fill="#F6C199"/>
<path d="M211.473 88.6958L210.666 104.052C210.607 105.182 209.643 106.049 208.513 105.99L177.459 104.356C176.329 104.297 175.462 103.333 175.52 102.203L176.329 86.8469C176.388 85.7179 177.352 84.85 178.481 84.9096L209.536 86.5435C210.665 86.6019 211.533 87.5668 211.473 88.6958Z" fill="#F2F9F1"/>
<path d="M178.262 86.5824L177.416 102.674L204.733 104.11L205.579 88.0185L178.262 86.5824Z" fill="#0A2A42"/>
<path d="M207.717 94.9675C207.047 94.9327 206.475 95.4474 206.439 96.1176C206.404 96.7878 206.919 97.3598 207.589 97.3959C208.259 97.4307 208.831 96.9159 208.866 96.2457C208.902 95.5743 208.388 95.0023 207.717 94.9675Z" fill="#0A2A42"/>
<path d="M211.473 88.6958L210.666 104.052C210.607 105.182 209.643 106.049 208.513 105.99L177.459 104.356C176.329 104.297 175.462 103.333 175.52 102.203L176.329 86.8469C176.388 85.7179 177.352 84.85 178.481 84.9096L209.536 86.5435C210.665 86.6019 211.533 87.5668 211.473 88.6958Z" stroke="#0A2A42" stroke-miterlimit="10" stroke-linecap="round" stroke-linejoin="round"/>
<path d="M197.869 114.831C197.869 114.831 192.035 113.715 189.821 109.258C187.608 104.8 191.114 98.2736 193.594 99.3591C196.072 100.445 195.021 104.251 195.021 104.251" fill="#F6C199"/>
<path d="M197.869 114.831C197.869 114.831 192.035 113.715 189.821 109.258C187.608 104.8 191.114 98.2736 193.594 99.3591C196.072 100.445 195.021 104.251 195.021 104.251" stroke="#0A2A42" stroke-miterlimit="10" stroke-linecap="round" stroke-linejoin="round"/>
<path d="M195.021 104.251C194.759 106.058 194.59 106.344 194.59 106.344C194.59 106.344 197.21 104.946 201.136 106.673" stroke="#0A2A42" stroke-miterlimit="10" stroke-linecap="round" stroke-linejoin="round"/>
<path d="M145.053 316.414L150.32 319.804C150.32 319.804 152.773 317.523 159.835 319.055C166.898 320.587 168.141 319.556 169.115 322.075C170.088 324.594 166.021 325.952 163.261 326.335C160.502 326.719 160.109 329.328 161.607 330.641C163.107 331.954 172.386 338.042 175.638 338.998C178.889 339.954 179.181 343.769 176.298 344.12C176.298 344.12 178.869 345.16 178.358 347.212C177.847 349.264 175.111 349.363 173.584 348.858C173.584 348.858 174.789 349.99 173.914 351.42C173.04 352.85 169.381 353.05 163.056 350.158C156.731 347.265 153.577 344.729 153.577 344.729C153.577 344.729 157.646 349.505 159.149 351.504C160.654 353.504 159.518 356.182 156.54 353.875C153.564 351.57 142.916 339.438 139.926 333.864L136.371 331.743L145.053 316.414Z" fill="#F6C199"/>
<path d="M176.297 344.121C171.739 342.928 166.372 341.103 159.545 336.71" stroke="#0A2A42" stroke-miterlimit="10" stroke-linecap="round" stroke-linejoin="round"/>
<path d="M173.584 348.859C167.88 347.42 161.983 344.297 157.229 341.342" stroke="#0A2A42" stroke-miterlimit="10" stroke-linecap="round" stroke-linejoin="round"/>
<path d="M150.318 319.804C150.318 319.804 152.772 317.523 159.834 319.055C166.897 320.587 168.14 319.556 169.114 322.075C170.087 324.595 166.02 325.952 163.26 326.335C160.501 326.72 160.108 329.328 161.606 330.641C163.106 331.954 172.385 338.042 175.637 338.998C178.888 339.954 179.18 343.769 176.297 344.12C176.297 344.12 178.868 345.16 178.357 347.212C177.846 349.264 175.109 349.363 173.582 348.858C173.582 348.858 174.787 349.99 173.913 351.42C173.039 352.85 169.38 353.05 163.055 350.158C156.729 347.266 153.576 344.729 153.576 344.729" stroke="#0A2A42" stroke-miterlimit="10" stroke-linecap="round" stroke-linejoin="round"/>
<path d="M148.262 134.179C111.093 134.179 80.0051 161.21 69.1924 205.814C58.3798 250.417 64.1243 279.138 81.0185 301.44C97.9138 323.742 134.699 334.697 134.699 334.697L145.051 316.414L107.712 279.476H195.904C195.904 279.476 198.945 228.792 195.904 200.745C195.904 200.745 258.416 232.17 275.648 213.248C292.881 194.326 213.475 111.202 213.475 111.202L201.647 121.001L229.693 177.769C229.696 177.769 194.554 134.179 148.262 134.179Z" fill="#FF7900"/>
<path d="M275.651 213.248C276.103 212.752 276.473 212.202 276.797 211.62C271.239 211.974 256.377 212.366 240.536 208.084C220.472 202.66 194.252 185.653 194.252 185.653C195.274 189.054 195.81 197.448 195.988 200.786C198.354 201.965 258.756 231.798 275.651 213.248Z" fill="#D97B26"/>
<path d="M217.535 210.047C237.312 217.476 265.049 224.888 275.65 213.249C292.882 194.327 213.476 111.203 213.476 111.203L201.649 121.002L229.695 177.77C229.695 177.77 200.285 141.289 159.832 135.075" stroke="#0A2A42" stroke-miterlimit="10" stroke-linecap="round" stroke-linejoin="round"/>
<path d="M192.527 177.769C192.527 177.769 194.828 184.523 195.907 200.745" stroke="#0A2A42" stroke-miterlimit="10" stroke-linecap="round" stroke-linejoin="round"/>
<path d="M136.371 331.745C136.371 331.745 108.252 313.212 90.8626 297.897C73.4848 282.592 66.6237 239.723 66.9619 216.017C59.3622 254.874 65.4512 280.889 81.0198 301.44C97.9152 323.741 134.7 334.697 134.7 334.697L136.371 331.745Z" fill="#D97B26"/>
<path d="M104.746 191.179C104.746 191.179 113.995 241.672 117.823 279.477H107.714L104.746 191.179Z" fill="#D97B26"/>
<path d="M104.561 185.653L107.714 279.476" stroke="#0A2A42" stroke-miterlimit="10" stroke-linecap="round" stroke-linejoin="round"/>
<path d="M101.672 319.49C117.816 329.669 134.699 334.697 134.699 334.697L145.052 316.414L107.712 279.476H195.904C195.904 279.476 198.946 228.791 195.904 200.745" stroke="#0A2A42" stroke-miterlimit="10" stroke-linecap="round" stroke-linejoin="round"/>
<path d="M69.1924 205.813C58.3798 250.417 64.1243 279.138 81.0185 301.44C86.4671 308.633 93.9859 314.645 101.671 319.49" stroke="#0A2A42" stroke-miterlimit="10" stroke-linecap="round" stroke-linejoin="round"/>
<path d="M132.627 135.832L131.999 107.963C131.999 107.963 117.362 103.965 124.646 95.2775C129.338 89.681 130.859 96.7273 134.519 96.6142C139.091 96.4737 133.818 80.7459 146.741 78.3113C158.399 76.1154 162.116 74.5375 166.508 68.4561C166.508 68.4561 173.504 82.6483 173.057 97.0655C172.606 111.641 161.609 120.888 151.472 122.07L151.308 134.245C151.308 134.245 145.762 146.133 132.627 135.832Z" fill="#F6C199"/>
<path d="M167.672 71.0896C166.667 68.5021 166.508 68.4561 166.508 68.4561C162.115 74.5388 158.398 76.1154 146.74 78.3113C143.788 78.8671 141.794 80.1204 140.406 81.7194C143.952 80.2634 148.912 79.2289 154.373 78.9442C161.253 78.5861 164.895 74.361 167.672 71.0896Z" fill="#DDA57F"/>
<path d="M144.881 122.072L151.419 125.848L151.47 122.072C151.47 122.072 151.189 122.477 144.881 122.072Z" fill="#DDA57F"/>
<path d="M166.508 68.4575C166.508 68.4575 173.503 82.6497 173.057 97.067C172.606 111.642 161.609 120.889 151.472 122.072C151.472 122.072 147.698 122.635 144.883 122.072" stroke="#0A2A42" stroke-miterlimit="10" stroke-linecap="round" stroke-linejoin="round"/>
<path d="M142.746 92.3354C142.746 93.5154 143.702 94.4716 144.882 94.4716C146.062 94.4716 147.018 93.5154 147.018 92.3354" stroke="#0A2A42" stroke-miterlimit="10" stroke-linecap="round" stroke-linejoin="round"/>
<path d="M163.465 89.6821C163.465 90.8621 164.421 91.8183 165.601 91.8183C166.781 91.8183 167.737 90.8621 167.737 89.6821" stroke="#0A2A42" stroke-miterlimit="10" stroke-linecap="round" stroke-linejoin="round"/>
<path d="M155.469 91.3223C155.469 91.3223 160.537 93.0121 157.609 96.7286" stroke="#0A2A42" stroke-miterlimit="10" stroke-linecap="round" stroke-linejoin="round"/>
<path d="M144.186 108.434C144.999 104.367 148.968 106.362 151.453 105.925C154.396 105.405 156.905 103.069 159.156 105.405C161.406 107.741 157.858 113.194 151.28 113.194C144.701 113.194 143.667 111.03 144.186 108.434Z" fill="#0A2A42"/>
<path d="M126.145 102.486C125.078 99.7316 124.575 96.0872 129.556 96.352" stroke="#0A2A42" stroke-miterlimit="10" stroke-linecap="round" stroke-linejoin="round"/>
<path d="M128.627 100.407L125.793 97.7881" stroke="#0A2A42" stroke-miterlimit="10" stroke-linecap="round" stroke-linejoin="round"/>
<path d="M261.571 63.5775C261.841 63.5775 262.078 63.6788 262.28 63.8814C262.494 64.0728 262.601 64.3148 262.601 64.6074V74.3657C262.601 74.6583 262.494 74.9059 262.28 75.1085C262.067 75.2998 261.819 75.3955 261.538 75.3955C261.222 75.3955 260.969 75.2998 260.778 75.1085C260.586 74.9059 260.491 74.6583 260.491 74.3657V64.6074C260.491 64.3148 260.592 64.0728 260.795 63.8814C260.997 63.6788 261.256 63.5775 261.571 63.5775ZM269.05 63.5775C269.366 63.5775 269.619 63.6788 269.81 63.8814C270.001 64.0728 270.097 64.3148 270.097 64.6074V74.3657C270.097 74.6583 269.996 74.9059 269.793 75.1085C269.602 75.2998 269.343 75.3955 269.017 75.3955C268.747 75.3955 268.505 75.2998 268.291 75.1085C268.088 74.9059 267.987 74.6583 267.987 74.3657V64.6074C267.987 64.3148 268.094 64.0728 268.308 63.8814C268.521 63.6788 268.769 63.5775 269.05 63.5775ZM261.521 68.4904H269.05V70.432H261.521V68.4904ZM274.364 74.3657C274.364 74.6583 274.269 74.9059 274.077 75.1085C273.886 75.2998 273.644 75.3955 273.351 75.3955C273.059 75.3955 272.817 75.2998 272.625 75.1085C272.434 74.9059 272.338 74.6583 272.338 74.3657V67.3931C272.338 67.1004 272.434 66.8584 272.625 66.6671C272.817 66.4645 273.059 66.3632 273.351 66.3632C273.644 66.3632 273.886 66.4645 274.077 66.6671C274.269 66.8584 274.364 67.1004 274.364 67.3931V74.3657ZM273.334 65.2658C272.952 65.2658 272.682 65.2039 272.524 65.0801C272.366 64.9563 272.288 64.7368 272.288 64.4217V64.1009C272.288 63.7745 272.372 63.555 272.541 63.4425C272.721 63.3187 272.991 63.2568 273.351 63.2568C273.745 63.2568 274.021 63.3187 274.179 63.4425C274.336 63.5663 274.415 63.7858 274.415 64.1009V64.4217C274.415 64.7481 274.33 64.9732 274.162 65.097C273.993 65.2096 273.717 65.2658 273.334 65.2658ZM279.013 75.2604C279.013 75.6319 278.906 76.0033 278.692 76.3747C278.489 76.7574 278.219 77.0725 277.881 77.3201C277.555 77.579 277.206 77.7085 276.835 77.7085C276.711 77.7085 276.576 77.6578 276.43 77.5565C276.294 77.4552 276.227 77.2808 276.227 77.0331C276.227 76.7743 276.306 76.6167 276.463 76.5604C276.632 76.5154 276.773 76.4648 276.885 76.4085C277.032 76.3297 277.144 76.234 277.223 76.1215C277.313 76.0202 277.358 75.8907 277.358 75.7332C277.358 75.6094 277.296 75.4968 277.172 75.3955C277.06 75.3055 276.908 75.2604 276.717 75.2604C276.649 75.2604 276.57 75.2717 276.48 75.2942C276.39 75.3055 276.311 75.3336 276.244 75.3786C276.131 75.3223 276.03 75.2548 275.94 75.176C275.861 75.086 275.822 74.9453 275.822 74.754C275.822 74.4051 275.979 74.1068 276.294 73.8592C276.621 73.6003 276.998 73.4709 277.426 73.4709C277.91 73.4709 278.292 73.6341 278.574 73.9605C278.866 74.2869 279.013 74.7202 279.013 75.2604Z" fill="#0A2A42"/>
<path d="M262.209 92.8218H342.764" stroke="#0A2A42" stroke-miterlimit="10" stroke-linecap="round" stroke-linejoin="round"/>
<path d="M262.209 104.955H342.764" stroke="#0A2A42" stroke-miterlimit="10" stroke-linecap="round" stroke-linejoin="round"/>
<path d="M262.209 117.089H309.249" stroke="#0A2A42" stroke-miterlimit="10" stroke-linecap="round" stroke-linejoin="round"/>
<path d="M570.351 448.484H231.791C220.242 448.484 210.881 439.122 210.881 427.574V217.785C210.881 206.237 220.242 196.875 231.791 196.875H481.75C492.364 196.875 501.293 204.827 502.52 215.368L524.478 404.094L570.351 448.484Z" fill="#F2F9F1"/>
<path d="M570.351 448.484H231.791C220.242 448.484 210.881 439.122 210.881 427.574V217.785C210.881 206.237 220.242 196.875 231.791 196.875H481.75C492.364 196.875 501.293 204.827 502.52 215.368L524.478 404.094L570.351 448.484Z" stroke="#0A2A42" stroke-miterlimit="10" stroke-linecap="round" stroke-linejoin="round"/>
<path d="M281.46 444.492L281.431 444.564L281.433 444.017C281.433 444.017 278.701 445.835 268.412 444.329C258.123 442.823 250.977 443.449 250.898 446.189C250.82 448.929 256.849 450.109 256.849 450.109C256.849 450.109 245.141 454.292 241.62 456.23C238.098 458.168 241.158 462.008 243.688 461.106C243.688 461.106 239.075 463.14 240.311 465.863C241.547 468.586 245.634 466.619 245.634 466.619C245.634 466.619 242.068 468.354 243.314 470.943C244.918 474.273 258.192 468.273 258.192 468.273C258.192 468.273 255.826 470.792 254.326 473.061C252.828 475.331 255.459 477.661 257.363 475.962C259.267 474.263 262.29 470.514 265.107 470.593C267.923 470.673 277.745 466.989 281.409 460.62L286.061 459.241L281.46 444.492Z" fill="#F6C199"/>
<path d="M256.85 450.109C259.806 450.868 261.008 450.885 261.008 450.885C261.008 450.885 261.828 456.306 267.889 457.975" stroke="#0A2A42" stroke-miterlimit="10" stroke-linecap="round" stroke-linejoin="round"/>
<path d="M243.688 461.107C243.688 461.107 251.139 457.651 257.528 456.225" stroke="#0A2A42" stroke-miterlimit="10" stroke-linecap="round" stroke-linejoin="round"/>
<path d="M245.633 466.621C245.633 466.621 254.567 462.785 259.227 461.637" stroke="#0A2A42" stroke-miterlimit="10" stroke-linecap="round" stroke-linejoin="round"/>
<path d="M258.193 468.273C258.193 468.273 259.755 467.443 261.313 466.873" stroke="#0A2A42" stroke-miterlimit="10" stroke-linecap="round" stroke-linejoin="round"/>
<path d="M257.209 454.98C257.209 454.98 257.675 456.683 257.935 457.329" stroke="#0A2A42" stroke-miterlimit="10" stroke-linecap="round" stroke-linejoin="round"/>
<path d="M259.082 460.656C259.082 460.656 259.167 461.573 259.464 462.479" stroke="#0A2A42" stroke-miterlimit="10" stroke-linecap="round" stroke-linejoin="round"/>
<path d="M260.967 466.061C260.967 466.061 261.363 467.194 261.6 467.668" stroke="#0A2A42" stroke-miterlimit="10" stroke-linecap="round" stroke-linejoin="round"/>
<path d="M278.625 464.067C274.145 468.296 267.369 470.658 265.109 470.593C262.292 470.514 259.268 474.263 257.365 475.962C255.461 477.662 252.829 475.331 254.328 473.062C255.828 470.792 258.194 468.273 258.194 468.273C258.194 468.273 244.92 474.273 243.316 470.943C242.068 468.355 245.636 466.619 245.636 466.619C245.636 466.619 241.55 468.587 240.313 465.863C239.076 463.14 243.69 461.106 243.69 461.106C241.16 462.008 238.1 458.168 241.622 456.23C245.145 454.291 256.851 450.11 256.851 450.11C256.851 450.11 250.821 448.93 250.9 446.189C250.979 443.449 258.126 442.822 268.414 444.329" stroke="#0A2A42" stroke-miterlimit="10" stroke-linecap="round" stroke-linejoin="round"/>
<path d="M373.852 424.737V448.484H485.864C487.038 418.381 488.467 379.247 488.467 367.122C488.467 336.667 482.739 308.807 421.796 308.683C378.797 308.596 365.004 326.791 354.303 356.011C343.604 385.229 341.134 412.803 341.134 412.803L281.461 444.492L286.947 462.077C286.947 462.077 353.687 450.253 373.852 424.737Z" fill="#FCFE72"/>
<path d="M487.251 411.33L421.051 405.101L375.188 390.984L374.637 403.818C374.637 403.818 406.01 450.11 485.948 446.274C486.546 430.87 486.759 426.256 487.251 411.33Z" fill="#FCFE72"/>
<path d="M373.853 424.738C374.641 403.625 375.526 379.146 375.964 366.931C375.958 366.921 375.945 366.897 375.945 366.897C375.945 366.897 369.402 415.471 359.681 423.765C348.142 433.612 321.763 450.451 310.207 456.697C331.479 450.926 361.459 440.419 373.853 424.738Z" fill="#FCFE72"/>
<path d="M373.852 424.737C373.852 424.737 375.703 371.649 376.526 352.1" stroke="black" stroke-miterlimit="10" stroke-linecap="round" stroke-linejoin="round"/>
<path d="M402.399 310.166C374.23 315.05 363.199 331.721 354.303 356.011C343.604 385.23 341.134 412.804 341.134 412.804L281.461 444.493L286.947 462.077C286.947 462.077 353.687 450.254 373.852 424.739V448.486H485.864C487.038 418.383 488.467 379.249 488.467 367.123C488.467 342.928 484.852 320.369 452.802 312.057" stroke="black" stroke-miterlimit="10" stroke-linecap="round" stroke-linejoin="round"/>
<path d="M443.036 310.121C436.826 309.204 429.798 308.699 421.796 308.682C417.035 308.672 412.649 308.9 408.568 309.329C410.677 313.53 415.778 320.697 426.22 321.132C434.625 321.483 439.976 315.427 443.036 310.121Z" fill="#FF7900"/>
<path d="M466.049 360.27C466.049 361.545 464.798 411.642 464.798 411.642L451.557 408.93L466.049 360.27Z" fill="#FCFE72"/>
<path d="M357.051 401.661L315.185 394.575C312.126 394.058 310.066 391.157 310.583 388.098L321.228 325.203C321.747 322.143 324.646 320.083 327.705 320.601L369.571 327.688C372.629 328.206 374.69 331.106 374.172 334.164L363.528 397.06C363.009 400.12 360.109 402.18 357.051 401.661Z" fill="black"/>
<path d="M348.781 362.216C349.379 358.679 346.998 355.329 343.461 354.729C339.925 354.131 336.574 356.512 335.975 360.048C335.377 363.585 337.758 366.936 341.294 367.535C344.832 368.132 348.183 365.751 348.781 362.216Z" fill="white"/>
<path d="M348.781 362.216C349.379 358.679 346.998 355.329 343.461 354.729C339.925 354.131 336.574 356.512 335.975 360.048C335.377 363.585 337.758 366.936 341.294 367.535C344.832 368.132 348.183 365.751 348.781 362.216Z" stroke="#0A2A42" stroke-miterlimit="10" stroke-linecap="round" stroke-linejoin="round"/>
<path d="M372.981 341.203L363.528 397.06C363.01 400.12 360.109 402.179 357.051 401.661L315.185 394.575C312.126 394.058 310.066 391.157 310.583 388.098L321.228 325.203C321.747 322.143 324.646 320.083 327.705 320.601L369.571 327.688C372.629 328.206 374.69 331.106 374.172 334.164L373.85 336.071" stroke="#0A2A42" stroke-miterlimit="10" stroke-linecap="round" stroke-linejoin="round"/>
<path d="M377.884 395.637C377.884 395.637 376.116 393.226 369.147 391.946C362.176 390.666 359.097 390.708 357.133 391.095C355.168 391.481 352.399 388.326 356.183 386.842C358.931 385.765 364.216 386.494 364.216 386.494C364.216 386.494 357.763 384.583 352.198 380.46C346.632 376.337 349.043 373.305 350.583 373.309C350.583 373.309 347.435 370.365 348.755 368.021C350.075 365.677 352.744 366.898 352.744 366.898C352.744 366.898 350.678 363.931 352.455 361.922C354.232 359.913 363.632 365.042 368.754 366.934L369.731 361.145C369.731 361.145 373.726 360.588 379.737 366.941C385.747 373.295 383.376 375.329 387.228 379.88L377.884 395.637Z" fill="#F6C199"/>
<path d="M352.742 366.898C355.149 369.357 366.614 374.118 366.614 374.118" stroke="#0A2A42" stroke-miterlimit="10" stroke-linecap="round" stroke-linejoin="round"/>
<path d="M350.58 373.308C353.238 375.503 362.149 379.882 364.767 380.786" stroke="#0A2A42" stroke-miterlimit="10" stroke-linecap="round" stroke-linejoin="round"/>
<path d="M374.956 393.667C373.625 393.058 371.748 392.424 369.147 391.945C362.176 390.665 359.097 390.707 357.133 391.094C355.168 391.48 352.399 388.325 356.183 386.841C358.931 385.764 364.216 386.493 364.216 386.493C364.216 386.493 357.763 384.582 352.198 380.459C346.632 376.336 349.043 373.304 350.583 373.308C350.583 373.308 347.435 370.364 348.755 368.02C350.075 365.676 352.744 366.897 352.744 366.897C352.744 366.897 350.678 363.93 352.455 361.921C354.232 359.912 363.632 365.041 368.754 366.933L369.731 361.144C369.731 361.144 373.726 360.587 379.737 366.941C380.734 367.994 381.5 368.929 382.102 369.775" stroke="#0A2A42" stroke-miterlimit="10" stroke-linecap="round" stroke-linejoin="round"/>
<path d="M466.971 317.562C499.989 332.963 502.87 381.937 500.401 408.276C499.821 414.453 498.613 420.089 497.102 425.095C492.513 440.304 475.866 448.275 461.153 442.282C437.283 432.56 400.142 415.827 376.799 397.467L387.226 379.881L465.007 407.66L466.971 317.562Z" fill="#FCFE72"/>
<path d="M466.971 317.562C499.989 332.963 502.87 381.937 500.401 408.276C499.821 414.453 498.613 420.089 497.102 425.095C492.513 440.304 475.866 448.275 461.153 442.282C437.283 432.56 400.142 415.827 376.799 397.467L387.226 379.881L465.007 407.66L466.059 359.411" stroke="#0A2A42" stroke-miterlimit="10" stroke-linecap="round" stroke-linejoin="round"/>
<path d="M390.909 252.88C385.324 246.798 381.619 225.809 404.151 220.098C426.683 214.388 439.801 231.827 439.801 231.827C439.801 231.827 450.295 232.599 454.77 249.266C457.345 258.854 452.609 283.476 437.948 296.387C423.287 309.299 419.737 301.583 418.966 300.503C418.195 299.424 390.909 252.88 390.909 252.88Z" fill="#0A2A42"/>
<path d="M414.949 308.835V296.8C414.949 296.8 392.56 295.534 390.519 272.107C389.321 258.373 392.731 245.717 392.731 245.717C392.731 245.717 406.394 250.913 418.906 248.996C423.65 248.27 428.046 251.628 428.454 256.411C428.797 260.444 429.637 264.178 431.543 264.622C435.864 265.625 436.328 255.748 443.504 259.375C450.679 263.002 443.041 274.833 435.325 274.421C435.325 274.421 434.442 284.79 437.948 296.387L437.116 309.388C437.116 309.388 424.873 321.23 414.949 308.835Z" fill="#F6C199"/>
<path d="M427.293 252.872C425.611 250.105 422.355 248.468 418.905 248.996C406.394 250.913 392.73 245.717 392.73 245.717C392.73 245.717 392.587 246.253 392.371 247.211C392.371 247.211 398.833 254.139 408.244 252.568C416.789 251.142 421.913 249.972 427.293 252.872Z" fill="#DDA57F"/>
<path d="M412.869 296.529C414.161 296.755 414.949 296.8 414.949 296.8V300.907C416.971 300.474 419.93 299.493 422.774 297.264C422.774 297.264 415.818 296.993 412.869 296.529Z" fill="#DDA57F"/>
<path d="M392.731 245.717C392.731 245.717 389.321 258.373 390.519 272.107C392.56 295.533 414.949 296.8 414.949 296.8C414.949 296.8 419.327 297.161 422.774 297.263" stroke="#0A2A42" stroke-miterlimit="10" stroke-linecap="round" stroke-linejoin="round"/>
<path d="M400.242 262.527C399.503 261.536 398.332 260.886 397 260.886C395.67 260.886 394.498 261.536 393.76 262.527" stroke="#0A2A42" stroke-miterlimit="10" stroke-linecap="round" stroke-linejoin="round"/>
<path d="M421.052 262.527C420.314 261.536 419.142 260.886 417.811 260.886C416.48 260.886 415.309 261.536 414.57 262.527" stroke="#0A2A42" stroke-miterlimit="10" stroke-linecap="round" stroke-linejoin="round"/>
<path d="M407.313 263.003C407.313 263.003 404.381 265.183 407.313 268.424" stroke="#0A2A42" stroke-miterlimit="10" stroke-linecap="round" stroke-linejoin="round"/>
<path d="M415.931 281.778C418.09 281.778 419.84 280.581 419.84 279.104C419.84 277.627 418.09 276.429 415.931 276.429C413.772 276.429 412.021 277.627 412.021 279.104C412.021 280.581 413.772 281.778 415.931 281.778Z" fill="#0A2A42"/>
<path d="M440.39 277.287C434.094 276.803 429.396 270.872 429.921 264.066C430.444 257.259 435.994 252.117 442.29 252.6C448.588 253.085 453.286 259.015 452.762 265.823C452.237 272.628 446.688 277.771 440.39 277.287Z" fill="#FF7654"/>
<path d="M417.863 290.122C417.863 290.122 434.498 288.88 440.018 273.601" stroke="#FF7654" stroke-width="1.1774" stroke-miterlimit="10" stroke-linecap="round"/>
<path d="M411.55 292.679C410.379 292.589 409.438 291.633 409.394 290.431C409.347 289.139 410.357 288.053 411.647 288.006L417.778 287.782C419.068 287.728 420.156 288.744 420.203 290.035C420.25 291.327 419.241 292.413 417.95 292.46L411.819 292.684C411.728 292.688 411.638 292.686 411.55 292.679Z" fill="#FF7654"/>
<path d="M449.651 265.583C450.044 260.484 446.64 256.065 442.052 255.711C437.463 255.358 433.426 259.205 433.033 264.305C432.641 269.404 436.043 273.823 440.631 274.176C445.219 274.529 449.259 270.681 449.651 265.583Z" fill="#0A2A42"/>
<path d="M442.356 252.954C443.411 240.367 443.518 228.288 431.604 223.614" stroke="#FF7654" stroke-width="1.1774" stroke-miterlimit="10" stroke-linecap="round"/>
<path d="M248.318 245.032C248.611 245.032 248.853 245.127 249.044 245.319C249.247 245.499 249.348 245.735 249.348 246.028C249.348 246.309 249.247 246.545 249.044 246.737C248.853 246.917 248.611 247.007 248.318 247.007H242.831C242.539 247.007 242.291 246.911 242.088 246.72C241.897 246.517 241.801 246.27 241.801 245.977V236.219C241.801 235.926 241.903 235.684 242.105 235.493C242.308 235.29 242.567 235.189 242.882 235.189C243.152 235.189 243.388 235.29 243.591 235.493C243.805 235.684 243.912 235.926 243.912 236.219V245.319L243.54 245.032H248.318ZM255.367 247.176C254.41 247.176 253.578 246.979 252.868 246.585C252.171 246.18 251.63 245.634 251.248 244.947C250.876 244.261 250.691 243.484 250.691 242.617C250.691 241.604 250.893 240.743 251.298 240.034C251.715 239.314 252.255 238.762 252.919 238.38C253.583 237.997 254.287 237.806 255.029 237.806C255.603 237.806 256.144 237.924 256.65 238.16C257.168 238.397 257.624 238.723 258.018 239.139C258.412 239.545 258.721 240.017 258.946 240.558C259.183 241.098 259.301 241.672 259.301 242.28C259.29 242.55 259.183 242.769 258.98 242.938C258.777 243.107 258.541 243.191 258.271 243.191H251.822L251.315 241.503H257.511L257.14 241.841V241.385C257.117 241.058 256.999 240.766 256.785 240.507C256.583 240.248 256.324 240.045 256.009 239.899C255.705 239.742 255.378 239.663 255.029 239.663C254.692 239.663 254.377 239.708 254.084 239.798C253.791 239.888 253.538 240.04 253.324 240.254C253.11 240.468 252.942 240.755 252.818 241.115C252.694 241.475 252.632 241.931 252.632 242.482C252.632 243.09 252.756 243.608 253.003 244.035C253.262 244.452 253.589 244.773 253.983 244.998C254.388 245.212 254.816 245.319 255.266 245.319C255.682 245.319 256.014 245.285 256.262 245.217C256.509 245.15 256.706 245.071 256.853 244.981C257.01 244.88 257.151 244.795 257.275 244.728C257.477 244.626 257.669 244.576 257.849 244.576C258.096 244.576 258.299 244.66 258.457 244.829C258.625 244.998 258.71 245.195 258.71 245.42C258.71 245.724 258.552 245.999 258.237 246.247C257.945 246.495 257.534 246.714 257.005 246.906C256.476 247.086 255.93 247.176 255.367 247.176ZM261.172 238.143H265.173C265.443 238.143 265.669 238.233 265.849 238.413C266.029 238.594 266.119 238.819 266.119 239.089C266.119 239.348 266.029 239.567 265.849 239.747C265.669 239.916 265.443 240 265.173 240H261.172C260.902 240 260.677 239.91 260.497 239.73C260.317 239.55 260.227 239.325 260.227 239.055C260.227 238.796 260.317 238.582 260.497 238.413C260.677 238.233 260.902 238.143 261.172 238.143ZM262.979 236.033C263.271 236.033 263.508 236.134 263.688 236.337C263.879 236.528 263.975 236.77 263.975 237.063V244.576C263.975 244.733 264.003 244.863 264.059 244.964C264.127 245.065 264.211 245.138 264.312 245.183C264.425 245.229 264.543 245.251 264.667 245.251C264.802 245.251 264.926 245.229 265.038 245.183C265.151 245.127 265.28 245.099 265.427 245.099C265.584 245.099 265.725 245.172 265.849 245.319C265.984 245.465 266.051 245.667 266.051 245.926C266.051 246.241 265.877 246.5 265.528 246.703C265.19 246.906 264.824 247.007 264.431 247.007C264.194 247.007 263.93 246.99 263.637 246.956C263.356 246.911 263.086 246.815 262.827 246.669C262.579 246.512 262.371 246.275 262.202 245.96C262.033 245.645 261.949 245.212 261.949 244.66V237.063C261.949 236.77 262.044 236.528 262.236 236.337C262.438 236.134 262.686 236.033 262.979 236.033ZM277.455 237.806C278.355 237.806 279.019 238.025 279.447 238.464C279.875 238.892 280.156 239.449 280.291 240.136L280.004 239.984L280.139 239.713C280.274 239.455 280.482 239.179 280.764 238.886C281.045 238.582 281.383 238.329 281.777 238.126C282.182 237.913 282.632 237.806 283.127 237.806C283.938 237.806 284.551 237.98 284.968 238.329C285.395 238.678 285.688 239.145 285.846 239.73C286.003 240.304 286.082 240.946 286.082 241.655V245.977C286.082 246.27 285.986 246.517 285.795 246.72C285.604 246.911 285.362 247.007 285.069 247.007C284.776 247.007 284.534 246.911 284.343 246.72C284.152 246.517 284.056 246.27 284.056 245.977V241.655C284.056 241.284 284.011 240.952 283.921 240.659C283.831 240.355 283.668 240.113 283.431 239.933C283.195 239.753 282.857 239.663 282.418 239.663C281.991 239.663 281.625 239.753 281.321 239.933C281.017 240.113 280.786 240.355 280.629 240.659C280.482 240.952 280.409 241.284 280.409 241.655V245.977C280.409 246.27 280.314 246.517 280.122 246.72C279.931 246.911 279.689 247.007 279.396 247.007C279.104 247.007 278.862 246.911 278.67 246.72C278.479 246.517 278.383 246.27 278.383 245.977V241.655C278.383 241.284 278.338 240.952 278.248 240.659C278.158 240.355 277.995 240.113 277.759 239.933C277.522 239.753 277.185 239.663 276.746 239.663C276.318 239.663 275.952 239.753 275.648 239.933C275.344 240.113 275.114 240.355 274.956 240.659C274.81 240.952 274.737 241.284 274.737 241.655V245.977C274.737 246.27 274.641 246.517 274.45 246.72C274.258 246.911 274.016 247.007 273.724 247.007C273.431 247.007 273.189 246.911 272.998 246.72C272.806 246.517 272.711 246.27 272.711 245.977V239.004C272.711 238.712 272.806 238.47 272.998 238.278C273.189 238.076 273.431 237.975 273.724 237.975C274.016 237.975 274.258 238.076 274.45 238.278C274.641 238.47 274.737 238.712 274.737 239.004V239.73L274.483 239.68C274.585 239.488 274.725 239.286 274.906 239.072C275.086 238.847 275.305 238.639 275.564 238.447C275.823 238.256 276.11 238.104 276.425 237.991C276.74 237.868 277.083 237.806 277.455 237.806ZM292.529 247.176C291.572 247.176 290.739 246.979 290.03 246.585C289.333 246.18 288.792 245.634 288.41 244.947C288.038 244.261 287.852 243.484 287.852 242.617C287.852 241.604 288.055 240.743 288.46 240.034C288.877 239.314 289.417 238.762 290.081 238.38C290.745 237.997 291.449 237.806 292.191 237.806C292.765 237.806 293.306 237.924 293.812 238.16C294.33 238.397 294.786 238.723 295.18 239.139C295.574 239.545 295.883 240.017 296.108 240.558C296.345 241.098 296.463 241.672 296.463 242.28C296.451 242.55 296.345 242.769 296.142 242.938C295.939 243.107 295.703 243.191 295.433 243.191H288.984L288.477 241.503H294.673L294.302 241.841V241.385C294.279 241.058 294.161 240.766 293.947 240.507C293.745 240.248 293.486 240.045 293.171 239.899C292.867 239.742 292.54 239.663 292.191 239.663C291.854 239.663 291.539 239.708 291.246 239.798C290.953 239.888 290.7 240.04 290.486 240.254C290.272 240.468 290.104 240.755 289.98 241.115C289.856 241.475 289.794 241.931 289.794 242.482C289.794 243.09 289.918 243.608 290.165 244.035C290.424 244.452 290.751 244.773 291.145 244.998C291.55 245.212 291.978 245.319 292.428 245.319C292.844 245.319 293.176 245.285 293.424 245.217C293.671 245.15 293.868 245.071 294.015 244.981C294.172 244.88 294.313 244.795 294.437 244.728C294.639 244.626 294.831 244.576 295.011 244.576C295.258 244.576 295.461 244.66 295.619 244.829C295.787 244.998 295.872 245.195 295.872 245.42C295.872 245.724 295.714 245.999 295.399 246.247C295.106 246.495 294.696 246.714 294.167 246.906C293.638 247.086 293.092 247.176 292.529 247.176ZM302.441 245.606C302.329 245.448 302.278 245.245 302.289 244.998C302.301 244.75 302.447 244.536 302.728 244.356C302.908 244.244 303.1 244.199 303.302 244.221C303.505 244.232 303.702 244.334 303.893 244.525C304.22 244.851 304.563 245.105 304.923 245.285C305.283 245.465 305.733 245.555 306.274 245.555C306.442 245.544 306.628 245.521 306.831 245.487C307.033 245.442 307.208 245.352 307.354 245.217C307.512 245.071 307.59 244.851 307.59 244.559C307.59 244.311 307.506 244.114 307.337 243.968C307.168 243.822 306.943 243.698 306.662 243.597C306.392 243.495 306.088 243.4 305.75 243.31C305.401 243.208 305.041 243.096 304.67 242.972C304.31 242.848 303.978 242.69 303.674 242.499C303.37 242.297 303.122 242.032 302.931 241.706C302.739 241.379 302.644 240.968 302.644 240.473C302.644 239.91 302.801 239.432 303.117 239.038C303.432 238.644 303.837 238.34 304.332 238.126C304.839 237.913 305.368 237.806 305.919 237.806C306.268 237.806 306.634 237.851 307.016 237.941C307.399 238.02 307.765 238.155 308.114 238.346C308.463 238.526 308.755 238.768 308.992 239.072C309.116 239.241 309.189 239.443 309.211 239.68C309.234 239.916 309.127 240.13 308.89 240.321C308.722 240.456 308.525 240.518 308.3 240.507C308.074 240.484 307.889 240.406 307.742 240.271C307.551 240.023 307.292 239.826 306.966 239.68C306.651 239.533 306.285 239.46 305.868 239.46C305.7 239.46 305.514 239.483 305.311 239.528C305.12 239.562 304.951 239.646 304.805 239.781C304.658 239.905 304.585 240.107 304.585 240.389C304.585 240.648 304.67 240.856 304.839 241.013C305.007 241.16 305.233 241.284 305.514 241.385C305.807 241.475 306.116 241.565 306.442 241.655C306.78 241.745 307.123 241.852 307.472 241.976C307.821 242.1 308.142 242.263 308.435 242.465C308.727 242.668 308.964 242.932 309.144 243.259C309.324 243.574 309.414 243.979 309.414 244.474C309.414 245.048 309.245 245.538 308.907 245.943C308.57 246.348 308.148 246.658 307.641 246.872C307.135 247.074 306.617 247.176 306.088 247.176C305.424 247.176 304.76 247.063 304.096 246.838C303.432 246.602 302.88 246.191 302.441 245.606ZM315.364 247.176C314.407 247.176 313.574 246.979 312.865 246.585C312.167 246.18 311.627 245.634 311.244 244.947C310.873 244.261 310.687 243.484 310.687 242.617C310.687 241.604 310.89 240.743 311.295 240.034C311.711 239.314 312.252 238.762 312.916 238.38C313.58 237.997 314.283 237.806 315.026 237.806C315.6 237.806 316.14 237.924 316.647 238.16C317.165 238.397 317.62 238.723 318.014 239.139C318.408 239.545 318.718 240.017 318.943 240.558C319.179 241.098 319.297 241.672 319.297 242.28C319.286 242.55 319.179 242.769 318.977 242.938C318.774 243.107 318.538 243.191 318.268 243.191H311.818L311.312 241.503H317.508L317.136 241.841V241.385C317.114 241.058 316.996 240.766 316.782 240.507C316.579 240.248 316.32 240.045 316.005 239.899C315.701 239.742 315.375 239.663 315.026 239.663C314.688 239.663 314.373 239.708 314.081 239.798C313.788 239.888 313.535 240.04 313.321 240.254C313.107 240.468 312.938 240.755 312.814 241.115C312.691 241.475 312.629 241.931 312.629 242.482C312.629 243.09 312.752 243.608 313 244.035C313.259 244.452 313.585 244.773 313.979 244.998C314.384 245.212 314.812 245.319 315.262 245.319C315.679 245.319 316.011 245.285 316.258 245.217C316.506 245.15 316.703 245.071 316.849 244.981C317.007 244.88 317.148 244.795 317.271 244.728C317.474 244.626 317.665 244.576 317.845 244.576C318.093 244.576 318.296 244.66 318.453 244.829C318.622 244.998 318.706 245.195 318.706 245.42C318.706 245.724 318.549 245.999 318.234 246.247C317.941 246.495 317.53 246.714 317.001 246.906C316.472 247.086 315.926 247.176 315.364 247.176ZM325.322 247.176C324.365 247.176 323.532 246.979 322.823 246.585C322.125 246.18 321.585 245.634 321.202 244.947C320.831 244.261 320.645 243.484 320.645 242.617C320.645 241.604 320.848 240.743 321.253 240.034C321.67 239.314 322.21 238.762 322.874 238.38C323.538 237.997 324.241 237.806 324.984 237.806C325.558 237.806 326.099 237.924 326.605 238.16C327.123 238.397 327.579 238.723 327.972 239.139C328.366 239.545 328.676 240.017 328.901 240.558C329.137 241.098 329.256 241.672 329.256 242.28C329.244 242.55 329.137 242.769 328.935 242.938C328.732 243.107 328.496 243.191 328.226 243.191H321.777L321.27 241.503H327.466L327.095 241.841V241.385C327.072 241.058 326.954 240.766 326.74 240.507C326.537 240.248 326.279 240.045 325.963 239.899C325.66 239.742 325.333 239.663 324.984 239.663C324.647 239.663 324.331 239.708 324.039 239.798C323.746 239.888 323.493 240.04 323.279 240.254C323.065 240.468 322.896 240.755 322.773 241.115C322.649 241.475 322.587 241.931 322.587 242.482C322.587 243.09 322.711 243.608 322.958 244.035C323.217 244.452 323.544 244.773 323.938 244.998C324.343 245.212 324.77 245.319 325.221 245.319C325.637 245.319 325.969 245.285 326.217 245.217C326.464 245.15 326.661 245.071 326.808 244.981C326.965 244.88 327.106 244.795 327.23 244.728C327.432 244.626 327.624 244.576 327.804 244.576C328.051 244.576 328.254 244.66 328.411 244.829C328.58 244.998 328.665 245.195 328.665 245.42C328.665 245.724 328.507 245.999 328.192 246.247C327.899 246.495 327.489 246.714 326.96 246.906C326.431 247.086 325.885 247.176 325.322 247.176ZM333.592 246.872C333.592 247.243 333.485 247.615 333.271 247.986C333.068 248.369 332.798 248.684 332.461 248.931C332.134 249.19 331.785 249.32 331.414 249.32C331.29 249.32 331.155 249.269 331.009 249.168C330.874 249.067 330.806 248.892 330.806 248.644C330.806 248.386 330.885 248.228 331.043 248.172C331.211 248.127 331.352 248.076 331.465 248.02C331.611 247.941 331.723 247.845 331.802 247.733C331.892 247.631 331.937 247.502 331.937 247.344C331.937 247.221 331.875 247.108 331.752 247.007C331.639 246.917 331.487 246.872 331.296 246.872C331.228 246.872 331.149 246.883 331.059 246.906C330.969 246.917 330.891 246.945 330.823 246.99C330.71 246.934 330.609 246.866 330.519 246.787C330.44 246.697 330.401 246.557 330.401 246.365C330.401 246.016 330.559 245.718 330.874 245.471C331.2 245.212 331.577 245.082 332.005 245.082C332.489 245.082 332.871 245.245 333.153 245.572C333.446 245.898 333.592 246.332 333.592 246.872Z" fill="#0A2A42"/>
<path d="M243.021 301.303H303.043" stroke="#0A2A42" stroke-miterlimit="10" stroke-linecap="round" stroke-linejoin="round"/>
<path d="M243.021 264.903H354.511" stroke="#0A2A42" stroke-miterlimit="10" stroke-linecap="round" stroke-linejoin="round"/>
<path d="M243.021 277.036H354.511" stroke="#0A2A42" stroke-miterlimit="10" stroke-linecap="round" stroke-linejoin="round"/>
<path d="M243.021 289.17H354.511" stroke="#0A2A42" stroke-miterlimit="10" stroke-linecap="round" stroke-linejoin="round"/>
<rect x="87.4863" y="499" width="200" height="56" rx="28" fill="#FF7900"/>
<path d="M112.152 526.718C112.152 525.494 112.434 524.396 112.998 523.424C113.574 522.452 114.348 521.696 115.32 521.156C116.304 520.604 117.378 520.328 118.542 520.328C119.874 520.328 121.056 520.658 122.088 521.318C123.132 521.966 123.888 522.89 124.356 524.09H121.89C121.566 523.43 121.116 522.938 120.54 522.614C119.964 522.29 119.298 522.128 118.542 522.128C117.714 522.128 116.976 522.314 116.328 522.686C115.68 523.058 115.17 523.592 114.798 524.288C114.438 524.984 114.258 525.794 114.258 526.718C114.258 527.642 114.438 528.452 114.798 529.148C115.17 529.844 115.68 530.384 116.328 530.768C116.976 531.14 117.714 531.326 118.542 531.326C119.298 531.326 119.964 531.164 120.54 530.84C121.116 530.516 121.566 530.024 121.89 529.364H124.356C123.888 530.564 123.132 531.488 122.088 532.136C121.056 532.784 119.874 533.108 118.542 533.108C117.366 533.108 116.292 532.838 115.32 532.298C114.348 531.746 113.574 530.984 112.998 530.012C112.434 529.04 112.152 527.942 112.152 526.718ZM131.708 522.92C132.464 522.92 133.136 523.082 133.724 523.406C134.324 523.73 134.792 524.21 135.128 524.846C135.476 525.482 135.65 526.25 135.65 527.15V533H133.616V527.456C133.616 526.568 133.394 525.89 132.95 525.422C132.506 524.942 131.9 524.702 131.132 524.702C130.364 524.702 129.752 524.942 129.296 525.422C128.852 525.89 128.63 526.568 128.63 527.456V533H126.578V519.68H128.63V524.234C128.978 523.814 129.416 523.49 129.944 523.262C130.484 523.034 131.072 522.92 131.708 522.92ZM137.404 527.996C137.404 527 137.608 526.118 138.016 525.35C138.436 524.582 139 523.988 139.708 523.568C140.428 523.136 141.22 522.92 142.084 522.92C142.864 522.92 143.542 523.076 144.118 523.388C144.706 523.688 145.174 524.066 145.522 524.522V523.082H147.592V533H145.522V531.524C145.174 531.992 144.7 532.382 144.1 532.694C143.5 533.006 142.816 533.162 142.048 533.162C141.196 533.162 140.416 532.946 139.708 532.514C139 532.07 138.436 531.458 138.016 530.678C137.608 529.886 137.404 528.992 137.404 527.996ZM145.522 528.032C145.522 527.348 145.378 526.754 145.09 526.25C144.814 525.746 144.448 525.362 143.992 525.098C143.536 524.834 143.044 524.702 142.516 524.702C141.988 524.702 141.496 524.834 141.04 525.098C140.584 525.35 140.212 525.728 139.924 526.232C139.648 526.724 139.51 527.312 139.51 527.996C139.51 528.68 139.648 529.28 139.924 529.796C140.212 530.312 140.584 530.708 141.04 530.984C141.508 531.248 142 531.38 142.516 531.38C143.044 531.38 143.536 531.248 143.992 530.984C144.448 530.72 144.814 530.336 145.09 529.832C145.378 529.316 145.522 528.716 145.522 528.032ZM152.501 524.756V530.246C152.501 530.618 152.585 530.888 152.753 531.056C152.933 531.212 153.233 531.29 153.653 531.29H154.913V533H153.293C152.369 533 151.661 532.784 151.169 532.352C150.677 531.92 150.431 531.218 150.431 530.246V524.756H149.261V523.082H150.431V520.616H152.501V523.082H154.913V524.756H152.501ZM177.41 520.49L173.702 533H171.38L168.752 523.532L165.962 533L163.658 533.018L160.112 520.49H162.29L164.882 530.678L167.69 520.49H169.994L172.604 530.624L175.214 520.49H177.41ZM179.966 521.768C179.594 521.768 179.282 521.642 179.03 521.39C178.778 521.138 178.652 520.826 178.652 520.454C178.652 520.082 178.778 519.77 179.03 519.518C179.282 519.266 179.594 519.14 179.966 519.14C180.326 519.14 180.632 519.266 180.884 519.518C181.136 519.77 181.262 520.082 181.262 520.454C181.262 520.826 181.136 521.138 180.884 521.39C180.632 521.642 180.326 521.768 179.966 521.768ZM180.974 523.082V533H178.922V523.082H180.974ZM185.882 524.756V530.246C185.882 530.618 185.966 530.888 186.134 531.056C186.314 531.212 186.614 531.29 187.034 531.29H188.294V533H186.674C185.75 533 185.042 532.784 184.55 532.352C184.058 531.92 183.812 531.218 183.812 530.246V524.756H182.642V523.082H183.812V520.616H185.882V523.082H188.294V524.756H185.882ZM195.136 522.92C195.892 522.92 196.564 523.082 197.152 523.406C197.752 523.73 198.22 524.21 198.556 524.846C198.904 525.482 199.078 526.25 199.078 527.15V533H197.044V527.456C197.044 526.568 196.822 525.89 196.378 525.422C195.934 524.942 195.328 524.702 194.56 524.702C193.792 524.702 193.18 524.942 192.724 525.422C192.28 525.89 192.058 526.568 192.058 527.456V533H190.006V519.68H192.058V524.234C192.406 523.814 192.844 523.49 193.372 523.262C193.912 523.034 194.5 522.92 195.136 522.92ZM208.045 520.49V528.464C208.045 529.412 208.291 530.126 208.783 530.606C209.287 531.086 209.983 531.326 210.871 531.326C211.771 531.326 212.467 531.086 212.959 530.606C213.463 530.126 213.715 529.412 213.715 528.464V520.49H215.767V528.428C215.767 529.448 215.545 530.312 215.101 531.02C214.657 531.728 214.063 532.256 213.319 532.604C212.575 532.952 211.753 533.126 210.853 533.126C209.953 533.126 209.131 532.952 208.387 532.604C207.655 532.256 207.073 531.728 206.641 531.02C206.209 530.312 205.993 529.448 205.993 528.428V520.49H208.045ZM221.859 533.162C221.079 533.162 220.377 533.024 219.753 532.748C219.141 532.46 218.655 532.076 218.295 531.596C217.935 531.104 217.743 530.558 217.719 529.958H219.843C219.879 530.378 220.077 530.732 220.437 531.02C220.809 531.296 221.271 531.434 221.823 531.434C222.399 531.434 222.843 531.326 223.155 531.11C223.479 530.882 223.641 530.594 223.641 530.246C223.641 529.874 223.461 529.598 223.101 529.418C222.753 529.238 222.195 529.04 221.427 528.824C220.683 528.62 220.077 528.422 219.609 528.23C219.141 528.038 218.733 527.744 218.385 527.348C218.049 526.952 217.881 526.43 217.881 525.782C217.881 525.254 218.037 524.774 218.349 524.342C218.661 523.898 219.105 523.55 219.681 523.298C220.269 523.046 220.941 522.92 221.697 522.92C222.825 522.92 223.731 523.208 224.415 523.784C225.111 524.348 225.483 525.122 225.531 526.106H223.479C223.443 525.662 223.263 525.308 222.939 525.044C222.615 524.78 222.177 524.648 221.625 524.648C221.085 524.648 220.671 524.75 220.383 524.954C220.095 525.158 219.951 525.428 219.951 525.764C219.951 526.028 220.047 526.25 220.239 526.43C220.431 526.61 220.665 526.754 220.941 526.862C221.217 526.958 221.625 527.084 222.165 527.24C222.885 527.432 223.473 527.63 223.929 527.834C224.397 528.026 224.799 528.314 225.135 528.698C225.471 529.082 225.645 529.592 225.657 530.228C225.657 530.792 225.501 531.296 225.189 531.74C224.877 532.184 224.433 532.532 223.857 532.784C223.293 533.036 222.627 533.162 221.859 533.162Z" fill="#243853"/>
<circle cx="257.486" cy="527" r="20" fill="black"/>
<path d="M265.027 519.544C263.212 517.59 249.559 522.378 249.57 524.126C249.583 526.108 254.902 526.718 256.376 527.132C257.263 527.381 257.5 527.636 257.705 528.565C258.631 532.776 259.095 534.87 260.155 534.917C261.843 534.991 266.798 521.452 265.027 519.544Z" stroke="white" stroke-width="1.5"/>
<path d="M257.07 527.417L259.987 524.5" stroke="white" stroke-width="1.5" stroke-linecap="round" stroke-linejoin="round"/>
</svg>
