<svg width="545" height="400" viewBox="0 0 545 400" fill="none" xmlns="http://www.w3.org/2000/svg">
<mask id="mask0_1312_293" style="mask-type:luminance" maskUnits="userSpaceOnUse" x="0" y="36" width="523" height="364">
<path d="M0 36.7993H522.082V400H0V36.7993Z" fill="white"/>
</mask>
<g mask="url(#mask0_1312_293)">
<path d="M95.9019 316.537C59.4764 349.634 0 389.98 0 389.98C26.8448 367.28 118.064 361.782 138.426 364.376C174.732 377.854 211.109 388.251 221.65 390.002C307.323 404.322 455.426 393.793 504.721 297.694C532.623 243.294 520.017 178.63 490.819 134.626C425.531 36.1341 260.02 14.7198 150.48 70.9378C86.3933 103.813 26.9889 177.788 47.0625 259.809C53.8818 287.697 74.7237 299.335 95.9019 316.537Z" fill="#797870"/>
</g>
<mask id="mask1_1312_293" style="mask-type:luminance" maskUnits="userSpaceOnUse" x="497" y="104" width="48" height="149">
<path d="M497.492 104.9H544.002V252.45H497.492V104.9Z" fill="white"/>
</mask>
<g mask="url(#mask1_1312_293)">
<path d="M536.319 248.128C536.079 248.128 535.839 248.105 535.599 248.083C532.91 247.706 531.037 245.401 531.445 242.918C533.846 227.733 534.134 211.949 532.261 195.988C530.533 181.003 526.907 166.039 521.552 151.542C516.366 137.554 509.667 124.319 501.647 112.216C500.23 110.065 500.95 107.272 503.28 105.964C505.609 104.656 508.634 105.321 510.051 107.472C518.455 120.13 525.442 133.962 530.869 148.615C536.463 163.734 540.233 179.362 542.058 195.035C544.003 211.728 543.715 228.287 541.17 244.226C540.809 246.487 538.72 248.128 536.319 248.128Z" fill="black"/>
</g>
<mask id="mask2_1312_293" style="mask-type:luminance" maskUnits="userSpaceOnUse" x="196" y="0" width="222" height="37">
<path d="M196.301 0H417.591V36.7989H196.301V0Z" fill="white"/>
</mask>
<g mask="url(#mask2_1312_293)">
<path d="M409.022 36.333C408.302 36.333 407.606 36.2 406.909 35.8896C369.355 19.5518 325.967 10.9063 281.449 10.9063C256.477 10.9063 231.769 13.6108 208.046 18.9532C205.405 19.5518 202.74 18.0665 202.091 15.628C201.443 13.1896 203.076 10.7289 205.717 10.1304C230.209 4.61055 255.685 1.81738 281.449 1.81738C327.407 1.81738 372.237 10.7511 411.111 27.6653C413.584 28.7293 414.641 31.4338 413.464 33.7171C412.624 35.3576 410.871 36.333 409.022 36.333Z" fill="black"/>
</g>
<path d="M36.6672 127.6C35.6827 127.6 34.6982 127.334 33.8338 126.78C31.6248 125.339 31.0725 122.501 32.6332 120.44C46.0316 102.794 62.3835 86.0791 81.2805 70.7389C83.3215 69.0984 86.4189 69.2758 88.2198 71.16C90.0207 73.0443 89.8286 75.9262 87.7876 77.5888C69.4668 92.4413 53.6433 108.602 40.7011 125.649C39.7406 126.935 38.2039 127.6 36.6672 127.6Z" fill="black"/>
<mask id="mask3_1312_293" style="mask-type:luminance" maskUnits="userSpaceOnUse" x="0" y="25" width="523" height="370">
<path d="M0 25.4487H522.082V394.324H0V25.4487Z" fill="white"/>
</mask>
<g mask="url(#mask3_1312_293)">
<path d="M67.9285 315.894C31.5031 348.991 0 389.98 0 389.98C26.8448 367.28 96.6702 358.102 138.858 354.533C175.14 368.011 208.3 373.553 218.817 375.305C304.49 389.625 452.616 379.118 501.888 283.019C529.813 228.597 517.183 163.955 488.009 119.929C422.722 21.4368 257.187 0.0446415 147.671 56.2405C83.584 89.1378 2.97742 166.881 23.051 248.903C29.8703 276.768 46.7263 298.692 67.9285 315.894Z" fill="black"/>
</g>
<path d="M227.072 91.056V100.848H238.592V105.312H227.072V115.536H240.032V120H221.6V86.592H240.032V91.056H227.072ZM257.1 106.608L265.644 120H259.452L253.74 111.024L248.364 120H242.652L251.196 106.992L242.652 93.552H248.844L254.556 102.528L259.932 93.552H265.644L257.1 106.608ZM279.717 120.336C277.477 120.336 275.461 119.952 273.669 119.184C271.877 118.384 270.469 117.264 269.445 115.824C268.421 114.384 267.909 112.704 267.909 110.784H273.765C273.893 112.224 274.453 113.408 275.445 114.336C276.469 115.264 277.893 115.728 279.717 115.728C281.605 115.728 283.077 115.28 284.133 114.384C285.189 113.456 285.717 112.272 285.717 110.832C285.717 109.712 285.381 108.8 284.709 108.096C284.069 107.392 283.253 106.848 282.261 106.464C281.301 106.08 279.957 105.664 278.229 105.216C276.053 104.64 274.277 104.064 272.901 103.488C271.557 102.88 270.405 101.952 269.445 100.704C268.485 99.456 268.005 97.792 268.005 95.712C268.005 93.792 268.485 92.112 269.445 90.672C270.405 89.232 271.749 88.128 273.477 87.36C275.205 86.592 277.205 86.208 279.477 86.208C282.709 86.208 285.349 87.024 287.397 88.656C289.477 90.256 290.629 92.464 290.853 95.28H284.805C284.709 94.064 284.133 93.024 283.077 92.16C282.021 91.296 280.629 90.864 278.901 90.864C277.333 90.864 276.053 91.264 275.061 92.064C274.069 92.864 273.573 94.016 273.573 95.52C273.573 96.544 273.877 97.392 274.485 98.064C275.125 98.704 275.925 99.216 276.885 99.6C277.845 99.984 279.157 100.4 280.821 100.848C283.029 101.456 284.821 102.064 286.197 102.672C287.605 103.28 288.789 104.224 289.749 105.504C290.741 106.752 291.237 108.432 291.237 110.544C291.237 112.24 290.773 113.84 289.845 115.344C288.949 116.848 287.621 118.064 285.861 118.992C284.133 119.888 282.085 120.336 279.717 120.336ZM318.246 86.64V91.104H309.366V120H303.894V91.104H294.966V86.64H318.246ZM342.9 113.184H328.932L326.532 120H320.82L332.772 86.592H339.108L351.06 120H345.3L342.9 113.184ZM341.364 108.72L335.94 93.216L330.468 108.72H341.364ZM372.584 120L364.904 106.656H360.728V120H355.256V86.64H366.776C369.336 86.64 371.496 87.088 373.256 87.984C375.048 88.88 376.376 90.08 377.24 91.584C378.136 93.088 378.584 94.768 378.584 96.624C378.584 98.8 377.944 100.784 376.664 102.576C375.416 104.336 373.48 105.536 370.856 106.176L379.112 120H372.584ZM360.728 102.288H366.776C368.824 102.288 370.36 101.776 371.384 100.752C372.44 99.728 372.968 98.352 372.968 96.624C372.968 94.896 372.456 93.552 371.432 92.592C370.408 91.6 368.856 91.104 366.776 91.104H360.728V102.288ZM395.576 120.336C393.336 120.336 391.32 119.952 389.528 119.184C387.736 118.384 386.328 117.264 385.304 115.824C384.28 114.384 383.768 112.704 383.768 110.784H389.624C389.752 112.224 390.312 113.408 391.304 114.336C392.328 115.264 393.752 115.728 395.576 115.728C397.464 115.728 398.936 115.28 399.992 114.384C401.048 113.456 401.576 112.272 401.576 110.832C401.576 109.712 401.24 108.8 400.568 108.096C399.928 107.392 399.112 106.848 398.12 106.464C397.16 106.08 395.816 105.664 394.088 105.216C391.912 104.64 390.136 104.064 388.76 103.488C387.416 102.88 386.264 101.952 385.304 100.704C384.344 99.456 383.864 97.792 383.864 95.712C383.864 93.792 384.344 92.112 385.304 90.672C386.264 89.232 387.608 88.128 389.336 87.36C391.064 86.592 393.064 86.208 395.336 86.208C398.568 86.208 401.208 87.024 403.256 88.656C405.336 90.256 406.488 92.464 406.712 95.28H400.664C400.568 94.064 399.992 93.024 398.936 92.16C397.88 91.296 396.488 90.864 394.76 90.864C393.192 90.864 391.912 91.264 390.92 92.064C389.928 92.864 389.432 94.016 389.432 95.52C389.432 96.544 389.736 97.392 390.344 98.064C390.984 98.704 391.784 99.216 392.744 99.6C393.704 99.984 395.016 100.4 396.68 100.848C398.888 101.456 400.68 102.064 402.056 102.672C403.464 103.28 404.648 104.224 405.608 105.504C406.6 106.752 407.096 108.432 407.096 110.544C407.096 112.24 406.632 113.84 405.704 115.344C404.808 116.848 403.48 118.064 401.72 118.992C399.992 119.888 397.944 120.336 395.576 120.336ZM419.417 86.64L418.793 109.92H414.233L413.609 86.64H419.417ZM416.681 120.336C415.689 120.336 414.857 120 414.185 119.328C413.513 118.656 413.177 117.824 413.177 116.832C413.177 115.84 413.513 115.008 414.185 114.336C414.857 113.664 415.689 113.328 416.681 113.328C417.641 113.328 418.457 113.664 419.129 114.336C419.801 115.008 420.137 115.84 420.137 116.832C420.137 117.824 419.801 118.656 419.129 119.328C418.457 120 417.641 120.336 416.681 120.336Z" fill="white"/>
<path d="M77.072 184.056V193.848H88.592V198.312H77.072V208.536H90.032V213H71.6V179.592H90.032V184.056H77.072ZM107.1 199.608L115.644 213H109.452L103.74 204.024L98.3639 213H92.6519L101.196 199.992L92.6519 186.552H98.8439L104.556 195.528L109.932 186.552H115.644L107.1 199.608ZM129.717 213.336C127.477 213.336 125.461 212.952 123.669 212.184C121.877 211.384 120.469 210.264 119.445 208.824C118.421 207.384 117.909 205.704 117.909 203.784H123.765C123.893 205.224 124.453 206.408 125.445 207.336C126.469 208.264 127.893 208.728 129.717 208.728C131.605 208.728 133.077 208.28 134.133 207.384C135.189 206.456 135.717 205.272 135.717 203.832C135.717 202.712 135.381 201.8 134.709 201.096C134.069 200.392 133.253 199.848 132.261 199.464C131.301 199.08 129.957 198.664 128.229 198.216C126.053 197.64 124.277 197.064 122.901 196.488C121.557 195.88 120.405 194.952 119.445 193.704C118.485 192.456 118.005 190.792 118.005 188.712C118.005 186.792 118.485 185.112 119.445 183.672C120.405 182.232 121.749 181.128 123.477 180.36C125.205 179.592 127.205 179.208 129.477 179.208C132.709 179.208 135.349 180.024 137.397 181.656C139.477 183.256 140.629 185.464 140.853 188.28H134.805C134.709 187.064 134.133 186.024 133.077 185.16C132.021 184.296 130.629 183.864 128.901 183.864C127.333 183.864 126.053 184.264 125.061 185.064C124.069 185.864 123.573 187.016 123.573 188.52C123.573 189.544 123.877 190.392 124.485 191.064C125.125 191.704 125.925 192.216 126.885 192.6C127.845 192.984 129.157 193.4 130.821 193.848C133.029 194.456 134.821 195.064 136.197 195.672C137.605 196.28 138.789 197.224 139.749 198.504C140.741 199.752 141.237 201.432 141.237 203.544C141.237 205.24 140.773 206.84 139.845 208.344C138.949 209.848 137.621 211.064 135.861 211.992C134.133 212.888 132.085 213.336 129.717 213.336ZM168.246 179.64V184.104H159.366V213H153.894V184.104H144.966V179.64H168.246ZM192.9 206.184H178.932L176.532 213H170.82L182.772 179.592H189.108L201.06 213H195.3L192.9 206.184ZM191.364 201.72L185.94 186.216L180.468 201.72H191.364ZM222.584 213L214.904 199.656H210.728V213H205.256V179.64H216.776C219.336 179.64 221.496 180.088 223.256 180.984C225.048 181.88 226.376 183.08 227.24 184.584C228.136 186.088 228.584 187.768 228.584 189.624C228.584 191.8 227.944 193.784 226.664 195.576C225.416 197.336 223.48 198.536 220.856 199.176L229.112 213H222.584ZM210.728 195.288H216.776C218.824 195.288 220.36 194.776 221.384 193.752C222.44 192.728 222.968 191.352 222.968 189.624C222.968 187.896 222.456 186.552 221.432 185.592C220.408 184.6 218.856 184.104 216.776 184.104H210.728V195.288ZM245.576 213.336C243.336 213.336 241.32 212.952 239.528 212.184C237.736 211.384 236.328 210.264 235.304 208.824C234.28 207.384 233.768 205.704 233.768 203.784H239.624C239.752 205.224 240.312 206.408 241.304 207.336C242.328 208.264 243.752 208.728 245.576 208.728C247.464 208.728 248.936 208.28 249.992 207.384C251.048 206.456 251.576 205.272 251.576 203.832C251.576 202.712 251.24 201.8 250.568 201.096C249.928 200.392 249.112 199.848 248.12 199.464C247.16 199.08 245.816 198.664 244.088 198.216C241.912 197.64 240.136 197.064 238.76 196.488C237.416 195.88 236.264 194.952 235.304 193.704C234.344 192.456 233.864 190.792 233.864 188.712C233.864 186.792 234.344 185.112 235.304 183.672C236.264 182.232 237.608 181.128 239.336 180.36C241.064 179.592 243.064 179.208 245.336 179.208C248.568 179.208 251.208 180.024 253.256 181.656C255.336 183.256 256.488 185.464 256.712 188.28H250.664C250.568 187.064 249.992 186.024 248.936 185.16C247.88 184.296 246.488 183.864 244.76 183.864C243.192 183.864 241.912 184.264 240.92 185.064C239.928 185.864 239.432 187.016 239.432 188.52C239.432 189.544 239.736 190.392 240.344 191.064C240.984 191.704 241.784 192.216 242.744 192.6C243.704 192.984 245.016 193.4 246.68 193.848C248.888 194.456 250.68 195.064 252.056 195.672C253.464 196.28 254.648 197.224 255.608 198.504C256.6 199.752 257.096 201.432 257.096 203.544C257.096 205.24 256.632 206.84 255.704 208.344C254.808 209.848 253.48 211.064 251.72 211.992C249.992 212.888 247.944 213.336 245.576 213.336ZM269.417 179.64L268.793 202.92H264.233L263.609 179.64H269.417ZM266.681 213.336C265.689 213.336 264.857 213 264.185 212.328C263.513 211.656 263.177 210.824 263.177 209.832C263.177 208.84 263.513 208.008 264.185 207.336C264.857 206.664 265.689 206.328 266.681 206.328C267.641 206.328 268.457 206.664 269.129 207.336C269.801 208.008 270.137 208.84 270.137 209.832C270.137 210.824 269.801 211.656 269.129 212.328C268.457 213 267.641 213.336 266.681 213.336Z" fill="white"/>
<path d="M268.072 259.056V268.848H279.592V273.312H268.072V283.536H281.032V288H262.6V254.592H281.032V259.056H268.072ZM298.1 274.608L306.644 288H300.452L294.74 279.024L289.364 288H283.652L292.196 274.992L283.652 261.552H289.844L295.556 270.528L300.932 261.552H306.644L298.1 274.608ZM320.717 288.336C318.477 288.336 316.461 287.952 314.669 287.184C312.877 286.384 311.469 285.264 310.445 283.824C309.421 282.384 308.909 280.704 308.909 278.784H314.765C314.893 280.224 315.453 281.408 316.445 282.336C317.469 283.264 318.893 283.728 320.717 283.728C322.605 283.728 324.077 283.28 325.133 282.384C326.189 281.456 326.717 280.272 326.717 278.832C326.717 277.712 326.381 276.8 325.709 276.096C325.069 275.392 324.253 274.848 323.261 274.464C322.301 274.08 320.957 273.664 319.229 273.216C317.053 272.64 315.277 272.064 313.901 271.488C312.557 270.88 311.405 269.952 310.445 268.704C309.485 267.456 309.005 265.792 309.005 263.712C309.005 261.792 309.485 260.112 310.445 258.672C311.405 257.232 312.749 256.128 314.477 255.36C316.205 254.592 318.205 254.208 320.477 254.208C323.709 254.208 326.349 255.024 328.397 256.656C330.477 258.256 331.629 260.464 331.853 263.28H325.805C325.709 262.064 325.133 261.024 324.077 260.16C323.021 259.296 321.629 258.864 319.901 258.864C318.333 258.864 317.053 259.264 316.061 260.064C315.069 260.864 314.573 262.016 314.573 263.52C314.573 264.544 314.877 265.392 315.485 266.064C316.125 266.704 316.925 267.216 317.885 267.6C318.845 267.984 320.157 268.4 321.821 268.848C324.029 269.456 325.821 270.064 327.197 270.672C328.605 271.28 329.789 272.224 330.749 273.504C331.741 274.752 332.237 276.432 332.237 278.544C332.237 280.24 331.773 281.84 330.845 283.344C329.949 284.848 328.621 286.064 326.861 286.992C325.133 287.888 323.085 288.336 320.717 288.336ZM359.246 254.64V259.104H350.366V288H344.894V259.104H335.966V254.64H359.246ZM383.9 281.184H369.932L367.532 288H361.82L373.772 254.592H380.108L392.06 288H386.3L383.9 281.184ZM382.364 276.72L376.94 261.216L371.468 276.72H382.364ZM413.584 288L405.904 274.656H401.728V288H396.256V254.64H407.776C410.336 254.64 412.496 255.088 414.256 255.984C416.048 256.88 417.376 258.08 418.24 259.584C419.136 261.088 419.584 262.768 419.584 264.624C419.584 266.8 418.944 268.784 417.664 270.576C416.416 272.336 414.48 273.536 411.856 274.176L420.112 288H413.584ZM401.728 270.288H407.776C409.824 270.288 411.36 269.776 412.384 268.752C413.44 267.728 413.968 266.352 413.968 264.624C413.968 262.896 413.456 261.552 412.432 260.592C411.408 259.6 409.856 259.104 407.776 259.104H401.728V270.288ZM436.576 288.336C434.336 288.336 432.32 287.952 430.528 287.184C428.736 286.384 427.328 285.264 426.304 283.824C425.28 282.384 424.768 280.704 424.768 278.784H430.624C430.752 280.224 431.312 281.408 432.304 282.336C433.328 283.264 434.752 283.728 436.576 283.728C438.464 283.728 439.936 283.28 440.992 282.384C442.048 281.456 442.576 280.272 442.576 278.832C442.576 277.712 442.24 276.8 441.568 276.096C440.928 275.392 440.112 274.848 439.12 274.464C438.16 274.08 436.816 273.664 435.088 273.216C432.912 272.64 431.136 272.064 429.76 271.488C428.416 270.88 427.264 269.952 426.304 268.704C425.344 267.456 424.864 265.792 424.864 263.712C424.864 261.792 425.344 260.112 426.304 258.672C427.264 257.232 428.608 256.128 430.336 255.36C432.064 254.592 434.064 254.208 436.336 254.208C439.568 254.208 442.208 255.024 444.256 256.656C446.336 258.256 447.488 260.464 447.712 263.28H441.664C441.568 262.064 440.992 261.024 439.936 260.16C438.88 259.296 437.488 258.864 435.76 258.864C434.192 258.864 432.912 259.264 431.92 260.064C430.928 260.864 430.432 262.016 430.432 263.52C430.432 264.544 430.736 265.392 431.344 266.064C431.984 266.704 432.784 267.216 433.744 267.6C434.704 267.984 436.016 268.4 437.68 268.848C439.888 269.456 441.68 270.064 443.056 270.672C444.464 271.28 445.648 272.224 446.608 273.504C447.6 274.752 448.096 276.432 448.096 278.544C448.096 280.24 447.632 281.84 446.704 283.344C445.808 284.848 444.48 286.064 442.72 286.992C440.992 287.888 438.944 288.336 436.576 288.336ZM460.417 254.64L459.793 277.92H455.233L454.609 254.64H460.417ZM457.681 288.336C456.689 288.336 455.857 288 455.185 287.328C454.513 286.656 454.177 285.824 454.177 284.832C454.177 283.84 454.513 283.008 455.185 282.336C455.857 281.664 456.689 281.328 457.681 281.328C458.641 281.328 459.457 281.664 460.129 282.336C460.801 283.008 461.137 283.84 461.137 284.832C461.137 285.824 460.801 286.656 460.129 287.328C459.457 288 458.641 288.336 457.681 288.336Z" fill="white"/>
</svg>
