<svg width="826" height="631" viewBox="0 0 826 631" fill="none" xmlns="http://www.w3.org/2000/svg">
<path d="M0.450264 457.317C-10.4253 563.651 177.208 640.223 401.106 630.102C625.005 619.982 765.956 515.57 808.809 359.552C851.662 203.533 812.21 66.9824 714.843 102.55C617.475 138.118 422.289 -45.8657 234.913 10.9925C47.5378 67.8506 11.6395 347.913 0.450264 457.317Z" fill="#FCFE72" fill-opacity="0.22"/>
<path d="M221.36 189.2V192.92H209.56V201.12H218.76V204.84H209.56V217H205V189.2H221.36ZM226.906 192.04C226.079 192.04 225.386 191.76 224.826 191.2C224.266 190.64 223.986 189.947 223.986 189.12C223.986 188.293 224.266 187.6 224.826 187.04C225.386 186.48 226.079 186.2 226.906 186.2C227.706 186.2 228.386 186.48 228.946 187.04C229.506 187.6 229.786 188.293 229.786 189.12C229.786 189.947 229.506 190.64 228.946 191.2C228.386 191.76 227.706 192.04 226.906 192.04ZM229.146 194.96V217H224.586V194.96H229.146ZM238.693 187.4V217H234.133V187.4H238.693ZM263.88 205.44C263.88 206.267 263.826 207.013 263.72 207.68H246.88C247.013 209.44 247.666 210.853 248.84 211.92C250.013 212.987 251.453 213.52 253.16 213.52C255.613 213.52 257.346 212.493 258.36 210.44H263.28C262.613 212.467 261.4 214.133 259.64 215.44C257.906 216.72 255.746 217.36 253.16 217.36C251.053 217.36 249.16 216.893 247.48 215.96C245.826 215 244.52 213.667 243.56 211.96C242.626 210.227 242.16 208.227 242.16 205.96C242.16 203.693 242.613 201.707 243.52 200C244.453 198.267 245.746 196.933 247.4 196C249.08 195.067 251 194.6 253.16 194.6C255.24 194.6 257.093 195.053 258.72 195.96C260.346 196.867 261.613 198.147 262.52 199.8C263.426 201.427 263.88 203.307 263.88 205.44ZM259.12 204C259.093 202.32 258.493 200.973 257.32 199.96C256.146 198.947 254.693 198.44 252.96 198.44C251.386 198.44 250.04 198.947 248.92 199.96C247.8 200.947 247.133 202.293 246.92 204H259.12ZM290.708 192.88V201.04H300.308V204.76H290.708V213.28H301.508V217H286.148V189.16H301.508V192.88H290.708ZM315.565 205.84L322.685 217H317.525L312.765 209.52L308.285 217H303.525L310.645 206.16L303.525 194.96H308.685L313.445 202.44L317.925 194.96H322.685L315.565 205.84ZM334.246 217.28C332.379 217.28 330.699 216.96 329.206 216.32C327.713 215.653 326.539 214.72 325.686 213.52C324.833 212.32 324.406 210.92 324.406 209.32H329.286C329.393 210.52 329.859 211.507 330.686 212.28C331.539 213.053 332.726 213.44 334.246 213.44C335.819 213.44 337.046 213.067 337.926 212.32C338.806 211.547 339.246 210.56 339.246 209.36C339.246 208.427 338.966 207.667 338.406 207.08C337.873 206.493 337.193 206.04 336.366 205.72C335.566 205.4 334.446 205.053 333.006 204.68C331.193 204.2 329.713 203.72 328.566 203.24C327.446 202.733 326.486 201.96 325.686 200.92C324.886 199.88 324.486 198.493 324.486 196.76C324.486 195.16 324.886 193.76 325.686 192.56C326.486 191.36 327.606 190.44 329.046 189.8C330.486 189.16 332.153 188.84 334.046 188.84C336.739 188.84 338.939 189.52 340.646 190.88C342.379 192.213 343.339 194.053 343.526 196.4H338.486C338.406 195.387 337.926 194.52 337.046 193.8C336.166 193.08 335.006 192.72 333.566 192.72C332.259 192.72 331.193 193.053 330.366 193.72C329.539 194.387 329.126 195.347 329.126 196.6C329.126 197.453 329.379 198.16 329.886 198.72C330.419 199.253 331.086 199.68 331.886 200C332.686 200.32 333.779 200.667 335.166 201.04C337.006 201.547 338.499 202.053 339.646 202.56C340.819 203.067 341.806 203.853 342.606 204.92C343.433 205.96 343.846 207.36 343.846 209.12C343.846 210.533 343.459 211.867 342.686 213.12C341.939 214.373 340.833 215.387 339.366 216.16C337.926 216.907 336.219 217.28 334.246 217.28ZM366.187 189.2V192.92H358.787V217H354.227V192.92H346.787V189.2H366.187ZM386.565 211.32H374.925L372.925 217H368.165L378.125 189.16H383.405L393.365 217H388.565L386.565 211.32ZM385.285 207.6L380.765 194.68L376.205 207.6H385.285ZM411.135 217L404.735 205.88H401.255V217H396.695V189.2H406.295C408.429 189.2 410.229 189.573 411.695 190.32C413.189 191.067 414.295 192.067 415.015 193.32C415.762 194.573 416.135 195.973 416.135 197.52C416.135 199.333 415.602 200.987 414.535 202.48C413.495 203.947 411.882 204.947 409.695 205.48L416.575 217H411.135ZM401.255 202.24H406.295C408.002 202.24 409.282 201.813 410.135 200.96C411.015 200.107 411.455 198.96 411.455 197.52C411.455 196.08 411.029 194.96 410.175 194.16C409.322 193.333 408.029 192.92 406.295 192.92H401.255V202.24ZM430.129 217.28C428.262 217.28 426.582 216.96 425.089 216.32C423.595 215.653 422.422 214.72 421.569 213.52C420.715 212.32 420.289 210.92 420.289 209.32H425.169C425.275 210.52 425.742 211.507 426.569 212.28C427.422 213.053 428.609 213.44 430.129 213.44C431.702 213.44 432.929 213.067 433.809 212.32C434.689 211.547 435.129 210.56 435.129 209.36C435.129 208.427 434.849 207.667 434.289 207.08C433.755 206.493 433.075 206.04 432.249 205.72C431.449 205.4 430.329 205.053 428.889 204.68C427.075 204.2 425.595 203.72 424.449 203.24C423.329 202.733 422.369 201.96 421.569 200.92C420.769 199.88 420.369 198.493 420.369 196.76C420.369 195.16 420.769 193.76 421.569 192.56C422.369 191.36 423.489 190.44 424.929 189.8C426.369 189.16 428.035 188.84 429.929 188.84C432.622 188.84 434.822 189.52 436.529 190.88C438.262 192.213 439.222 194.053 439.409 196.4H434.369C434.289 195.387 433.809 194.52 432.929 193.8C432.049 193.08 430.889 192.72 429.449 192.72C428.142 192.72 427.075 193.053 426.249 193.72C425.422 194.387 425.009 195.347 425.009 196.6C425.009 197.453 425.262 198.16 425.769 198.72C426.302 199.253 426.969 199.68 427.769 200C428.569 200.32 429.662 200.667 431.049 201.04C432.889 201.547 434.382 202.053 435.529 202.56C436.702 203.067 437.689 203.853 438.489 204.92C439.315 205.96 439.729 207.36 439.729 209.12C439.729 210.533 439.342 211.867 438.569 213.12C437.822 214.373 436.715 215.387 435.249 216.16C433.809 216.907 432.102 217.28 430.129 217.28ZM471.38 191.36L460.26 217H455.66L466.9 191.84H452.1V187.96H471.38V191.36ZM476.803 210.8C479.363 208.587 481.376 206.773 482.843 205.36C484.336 203.92 485.576 202.427 486.563 200.88C487.549 199.333 488.043 197.787 488.043 196.24C488.043 194.64 487.656 193.387 486.883 192.48C486.136 191.573 484.949 191.12 483.323 191.12C481.749 191.12 480.523 191.627 479.643 192.64C478.789 193.627 478.336 194.96 478.283 196.64H473.883C473.963 193.6 474.869 191.28 476.603 189.68C478.363 188.053 480.589 187.24 483.283 187.24C486.189 187.24 488.456 188.04 490.083 189.64C491.736 191.24 492.563 193.373 492.563 196.04C492.563 197.96 492.069 199.813 491.083 201.6C490.123 203.36 488.963 204.947 487.603 206.36C486.269 207.747 484.563 209.36 482.483 211.2L480.683 212.8H493.363V216.6H473.923V213.28L476.803 210.8ZM496.369 202.04C496.369 197.427 497.142 193.827 498.689 191.24C500.262 188.627 502.955 187.32 506.769 187.32C510.582 187.32 513.262 188.627 514.809 191.24C516.382 193.827 517.169 197.427 517.169 202.04C517.169 206.707 516.382 210.36 514.809 213C513.262 215.613 510.582 216.92 506.769 216.92C502.955 216.92 500.262 215.613 498.689 213C497.142 210.36 496.369 206.707 496.369 202.04ZM512.689 202.04C512.689 199.88 512.542 198.053 512.249 196.56C511.982 195.067 511.422 193.853 510.569 192.92C509.715 191.96 508.449 191.48 506.769 191.48C505.089 191.48 503.822 191.96 502.969 192.92C502.115 193.853 501.542 195.067 501.249 196.56C500.982 198.053 500.849 199.88 500.849 202.04C500.849 204.28 500.982 206.16 501.249 207.68C501.515 209.2 502.075 210.427 502.929 211.36C503.809 212.293 505.089 212.76 506.769 212.76C508.449 212.76 509.715 212.293 510.569 211.36C511.449 210.427 512.022 209.2 512.289 207.68C512.555 206.16 512.689 204.28 512.689 202.04ZM547.904 200.6V204.44H531.464V200.6H547.904ZM580.733 189.2V192.92H573.333V217H568.773V192.92H561.333V189.2H580.733ZM597.032 217.28C594.445 217.28 592.058 216.68 589.872 215.48C587.712 214.253 585.992 212.56 584.712 210.4C583.458 208.213 582.832 205.76 582.832 203.04C582.832 200.32 583.458 197.88 584.712 195.72C585.992 193.56 587.712 191.88 589.872 190.68C592.058 189.453 594.445 188.84 597.032 188.84C599.645 188.84 602.032 189.453 604.192 190.68C606.378 191.88 608.098 193.56 609.352 195.72C610.605 197.88 611.232 200.32 611.232 203.04C611.232 205.76 610.605 208.213 609.352 210.4C608.098 212.56 606.378 214.253 604.192 215.48C602.032 216.68 599.645 217.28 597.032 217.28ZM597.032 213.32C598.872 213.32 600.512 212.907 601.952 212.08C603.392 211.227 604.512 210.027 605.312 208.48C606.138 206.907 606.552 205.093 606.552 203.04C606.552 200.987 606.138 199.187 605.312 197.64C604.512 196.093 603.392 194.907 601.952 194.08C600.512 193.253 598.872 192.84 597.032 192.84C595.192 192.84 593.552 193.253 592.112 194.08C590.672 194.907 589.538 196.093 588.712 197.64C587.912 199.187 587.512 200.987 587.512 203.04C587.512 205.093 587.912 206.907 588.712 208.48C589.538 210.027 590.672 211.227 592.112 212.08C593.552 212.907 595.192 213.32 597.032 213.32ZM215.08 286.44C212.467 283.933 210.453 280.747 209.04 276.88C207.653 273.013 206.96 268.867 206.96 264.44C206.96 259.907 207.707 255.627 209.2 251.6C210.72 247.573 212.947 244.253 215.88 241.64H220.6V242.08C217.533 244.907 215.227 248.293 213.68 252.24C212.133 256.187 211.36 260.253 211.36 264.44C211.36 268.467 212.08 272.36 213.52 276.12C214.96 279.88 217.053 283.173 219.8 286V286.44H215.08ZM241.648 251.2V254.92H234.248V279H229.688V254.92H222.248V251.2H241.648ZM265.466 267.44C265.466 268.267 265.412 269.013 265.306 269.68H248.466C248.599 271.44 249.252 272.853 250.426 273.92C251.599 274.987 253.039 275.52 254.746 275.52C257.199 275.52 258.932 274.493 259.946 272.44H264.866C264.199 274.467 262.986 276.133 261.226 277.44C259.492 278.72 257.332 279.36 254.746 279.36C252.639 279.36 250.746 278.893 249.066 277.96C247.412 277 246.106 275.667 245.146 273.96C244.212 272.227 243.746 270.227 243.746 267.96C243.746 265.693 244.199 263.707 245.106 262C246.039 260.267 247.332 258.933 248.986 258C250.666 257.067 252.586 256.6 254.746 256.6C256.826 256.6 258.679 257.053 260.306 257.96C261.932 258.867 263.199 260.147 264.106 261.8C265.012 263.427 265.466 265.307 265.466 267.44ZM260.706 266C260.679 264.32 260.079 262.973 258.906 261.96C257.732 260.947 256.279 260.44 254.546 260.44C252.972 260.44 251.626 260.947 250.506 261.96C249.386 262.947 248.719 264.293 248.506 266H260.706ZM273.513 260.16C274.18 259.04 275.06 258.173 276.153 257.56C277.273 256.92 278.593 256.6 280.113 256.6V261.32H278.953C277.166 261.32 275.806 261.773 274.873 262.68C273.966 263.587 273.513 265.16 273.513 267.4V279H268.953V256.96H273.513V260.16ZM309.985 256.6C311.718 256.6 313.265 256.96 314.625 257.68C316.011 258.4 317.091 259.467 317.865 260.88C318.665 262.293 319.065 264 319.065 266V279H314.545V266.68C314.545 264.707 314.051 263.2 313.065 262.16C312.078 261.093 310.731 260.56 309.025 260.56C307.318 260.56 305.958 261.093 304.945 262.16C303.958 263.2 303.465 264.707 303.465 266.68V279H298.945V266.68C298.945 264.707 298.451 263.2 297.465 262.16C296.478 261.093 295.131 260.56 293.425 260.56C291.718 260.56 290.358 261.093 289.345 262.16C288.358 263.2 287.865 264.707 287.865 266.68V279H283.305V256.96H287.865V259.48C288.611 258.573 289.558 257.867 290.705 257.36C291.851 256.853 293.078 256.6 294.385 256.6C296.145 256.6 297.718 256.973 299.105 257.72C300.491 258.467 301.558 259.547 302.305 260.96C302.971 259.627 304.011 258.573 305.425 257.8C306.838 257 308.358 256.6 309.985 256.6ZM326.187 254.04C325.361 254.04 324.667 253.76 324.107 253.2C323.547 252.64 323.267 251.947 323.267 251.12C323.267 250.293 323.547 249.6 324.107 249.04C324.667 248.48 325.361 248.2 326.187 248.2C326.987 248.2 327.667 248.48 328.227 249.04C328.787 249.6 329.067 250.293 329.067 251.12C329.067 251.947 328.787 252.64 328.227 253.2C327.667 253.76 326.987 254.04 326.187 254.04ZM328.427 256.96V279H323.867V256.96H328.427ZM344.534 256.6C346.267 256.6 347.814 256.96 349.174 257.68C350.561 258.4 351.641 259.467 352.414 260.88C353.187 262.293 353.574 264 353.574 266V279H349.054V266.68C349.054 264.707 348.561 263.2 347.574 262.16C346.587 261.093 345.241 260.56 343.534 260.56C341.827 260.56 340.467 261.093 339.454 262.16C338.467 263.2 337.974 264.707 337.974 266.68V279H333.414V256.96H337.974V259.48C338.721 258.573 339.667 257.867 340.814 257.36C341.987 256.853 343.227 256.6 344.534 256.6ZM356.871 267.88C356.871 265.667 357.324 263.707 358.231 262C359.164 260.293 360.417 258.973 361.991 258.04C363.591 257.08 365.351 256.6 367.271 256.6C369.004 256.6 370.511 256.947 371.791 257.64C373.097 258.307 374.137 259.147 374.911 260.16V256.96H379.511V279H374.911V275.72C374.137 276.76 373.084 277.627 371.751 278.32C370.417 279.013 368.897 279.36 367.191 279.36C365.297 279.36 363.564 278.88 361.991 277.92C360.417 276.933 359.164 275.573 358.231 273.84C357.324 272.08 356.871 270.093 356.871 267.88ZM374.911 267.96C374.911 266.44 374.591 265.12 373.951 264C373.337 262.88 372.524 262.027 371.511 261.44C370.497 260.853 369.404 260.56 368.231 260.56C367.057 260.56 365.964 260.853 364.951 261.44C363.937 262 363.111 262.84 362.471 263.96C361.857 265.053 361.551 266.36 361.551 267.88C361.551 269.4 361.857 270.733 362.471 271.88C363.111 273.027 363.937 273.907 364.951 274.52C365.991 275.107 367.084 275.4 368.231 275.4C369.404 275.4 370.497 275.107 371.511 274.52C372.524 273.933 373.337 273.08 373.951 271.96C374.591 270.813 374.911 269.48 374.911 267.96ZM389.06 249.4V279H384.5V249.4H389.06ZM416.118 279.28C413.531 279.28 411.144 278.68 408.958 277.48C406.798 276.253 405.078 274.56 403.798 272.4C402.544 270.213 401.918 267.76 401.918 265.04C401.918 262.32 402.544 259.88 403.798 257.72C405.078 255.56 406.798 253.88 408.958 252.68C411.144 251.453 413.531 250.84 416.118 250.84C418.731 250.84 421.118 251.453 423.278 252.68C425.464 253.88 427.184 255.56 428.438 257.72C429.691 259.88 430.318 262.32 430.318 265.04C430.318 267.76 429.691 270.213 428.438 272.4C427.184 274.56 425.464 276.253 423.278 277.48C421.118 278.68 418.731 279.28 416.118 279.28ZM416.118 275.32C417.958 275.32 419.598 274.907 421.038 274.08C422.478 273.227 423.598 272.027 424.398 270.48C425.224 268.907 425.638 267.093 425.638 265.04C425.638 262.987 425.224 261.187 424.398 259.64C423.598 258.093 422.478 256.907 421.038 256.08C419.598 255.253 417.958 254.84 416.118 254.84C414.278 254.84 412.638 255.253 411.198 256.08C409.758 256.907 408.624 258.093 407.798 259.64C406.998 261.187 406.598 262.987 406.598 265.04C406.598 267.093 406.998 268.907 407.798 270.48C408.624 272.027 409.758 273.227 411.198 274.08C412.638 274.907 414.278 275.32 416.118 275.32ZM438.365 260.2C439.138 259.187 440.191 258.333 441.525 257.64C442.858 256.947 444.365 256.6 446.045 256.6C447.965 256.6 449.711 257.08 451.285 258.04C452.885 258.973 454.138 260.293 455.045 262C455.951 263.707 456.405 265.667 456.405 267.88C456.405 270.093 455.951 272.08 455.045 273.84C454.138 275.573 452.885 276.933 451.285 277.92C449.711 278.88 447.965 279.36 446.045 279.36C444.365 279.36 442.871 279.027 441.565 278.36C440.258 277.667 439.191 276.813 438.365 275.8V289.48H433.805V256.96H438.365V260.2ZM451.765 267.88C451.765 266.36 451.445 265.053 450.805 263.96C450.191 262.84 449.365 262 448.325 261.44C447.311 260.853 446.218 260.56 445.045 260.56C443.898 260.56 442.805 260.853 441.765 261.44C440.751 262.027 439.925 262.88 439.285 264C438.671 265.12 438.365 266.44 438.365 267.96C438.365 269.48 438.671 270.813 439.285 271.96C439.925 273.08 440.751 273.933 441.765 274.52C442.805 275.107 443.898 275.4 445.045 275.4C446.218 275.4 447.311 275.107 448.325 274.52C449.365 273.907 450.191 273.027 450.805 271.88C451.445 270.733 451.765 269.4 451.765 267.88ZM480.114 267.44C480.114 268.267 480.061 269.013 479.954 269.68H463.114C463.247 271.44 463.901 272.853 465.074 273.92C466.247 274.987 467.687 275.52 469.394 275.52C471.847 275.52 473.581 274.493 474.594 272.44H479.514C478.847 274.467 477.634 276.133 475.874 277.44C474.141 278.72 471.981 279.36 469.394 279.36C467.287 279.36 465.394 278.893 463.714 277.96C462.061 277 460.754 275.667 459.794 273.96C458.861 272.227 458.394 270.227 458.394 267.96C458.394 265.693 458.847 263.707 459.754 262C460.687 260.267 461.981 258.933 463.634 258C465.314 257.067 467.234 256.6 469.394 256.6C471.474 256.6 473.327 257.053 474.954 257.96C476.581 258.867 477.847 260.147 478.754 261.8C479.661 263.427 480.114 265.307 480.114 267.44ZM475.354 266C475.327 264.32 474.727 262.973 473.554 261.96C472.381 260.947 470.927 260.44 469.194 260.44C467.621 260.44 466.274 260.947 465.154 261.96C464.034 262.947 463.367 264.293 463.154 266H475.354ZM488.162 260.16C488.828 259.04 489.708 258.173 490.802 257.56C491.922 256.92 493.242 256.6 494.762 256.6V261.32H493.602C491.815 261.32 490.455 261.773 489.522 262.68C488.615 263.587 488.162 265.16 488.162 267.4V279H483.602V256.96H488.162V260.16ZM496.433 267.88C496.433 265.667 496.886 263.707 497.793 262C498.726 260.293 499.98 258.973 501.553 258.04C503.153 257.08 504.913 256.6 506.833 256.6C508.566 256.6 510.073 256.947 511.353 257.64C512.66 258.307 513.7 259.147 514.473 260.16V256.96H519.073V279H514.473V275.72C513.7 276.76 512.646 277.627 511.313 278.32C509.98 279.013 508.46 279.36 506.753 279.36C504.86 279.36 503.126 278.88 501.553 277.92C499.98 276.933 498.726 275.573 497.793 273.84C496.886 272.08 496.433 270.093 496.433 267.88ZM514.473 267.96C514.473 266.44 514.153 265.12 513.513 264C512.9 262.88 512.086 262.027 511.073 261.44C510.06 260.853 508.966 260.56 507.793 260.56C506.62 260.56 505.526 260.853 504.513 261.44C503.5 262 502.673 262.84 502.033 263.96C501.42 265.053 501.113 266.36 501.113 267.88C501.113 269.4 501.42 270.733 502.033 271.88C502.673 273.027 503.5 273.907 504.513 274.52C505.553 275.107 506.646 275.4 507.793 275.4C508.966 275.4 510.06 275.107 511.073 274.52C512.086 273.933 512.9 273.08 513.513 271.96C514.153 270.813 514.473 269.48 514.473 267.96ZM529.383 260.68V272.88C529.383 273.707 529.569 274.307 529.943 274.68C530.343 275.027 531.009 275.2 531.943 275.2H534.743V279H531.143C529.089 279 527.516 278.52 526.423 277.56C525.329 276.6 524.783 275.04 524.783 272.88V260.68H522.183V256.96H524.783V251.48H529.383V256.96H534.743V260.68H529.383ZM547.505 279.36C545.425 279.36 543.545 278.893 541.865 277.96C540.185 277 538.865 275.667 537.905 273.96C536.945 272.227 536.465 270.227 536.465 267.96C536.465 265.72 536.959 263.733 537.945 262C538.932 260.267 540.279 258.933 541.985 258C543.692 257.067 545.599 256.6 547.705 256.6C549.812 256.6 551.719 257.067 553.425 258C555.132 258.933 556.479 260.267 557.465 262C558.452 263.733 558.945 265.72 558.945 267.96C558.945 270.2 558.439 272.187 557.425 273.92C556.412 275.653 555.025 277 553.265 277.96C551.532 278.893 549.612 279.36 547.505 279.36ZM547.505 275.4C548.679 275.4 549.772 275.12 550.785 274.56C551.825 274 552.665 273.16 553.305 272.04C553.945 270.92 554.265 269.56 554.265 267.96C554.265 266.36 553.959 265.013 553.345 263.92C552.732 262.8 551.919 261.96 550.905 261.4C549.892 260.84 548.799 260.56 547.625 260.56C546.452 260.56 545.359 260.84 544.345 261.4C543.359 261.96 542.572 262.8 541.985 263.92C541.399 265.013 541.105 266.36 541.105 267.96C541.105 270.333 541.705 272.173 542.905 273.48C544.132 274.76 545.665 275.4 547.505 275.4ZM567.013 260.16C567.68 259.04 568.56 258.173 569.653 257.56C570.773 256.92 572.093 256.6 573.613 256.6V261.32H572.453C570.666 261.32 569.306 261.773 568.373 262.68C567.466 263.587 567.013 265.16 567.013 267.4V279H562.453V256.96H567.013V260.16ZM575.685 286.44V286C578.431 283.173 580.525 279.88 581.965 276.12C583.405 272.36 584.125 268.467 584.125 264.44C584.125 260.253 583.351 256.187 581.805 252.24C580.258 248.293 577.951 244.907 574.885 242.08V241.64H579.605C582.538 244.253 584.751 247.573 586.245 251.6C587.765 255.627 588.525 259.907 588.525 264.44C588.525 268.867 587.818 273.013 586.405 276.88C585.018 280.747 583.018 283.933 580.405 286.44H575.685ZM623.833 279.36C621.753 279.36 619.873 278.893 618.193 277.96C616.513 277 615.193 275.667 614.233 273.96C613.273 272.227 612.793 270.227 612.793 267.96C612.793 265.72 613.287 263.733 614.273 262C615.26 260.267 616.607 258.933 618.313 258C620.02 257.067 621.927 256.6 624.033 256.6C626.14 256.6 628.047 257.067 629.753 258C631.46 258.933 632.807 260.267 633.793 262C634.78 263.733 635.273 265.72 635.273 267.96C635.273 270.2 634.767 272.187 633.753 273.92C632.74 275.653 631.353 277 629.593 277.96C627.86 278.893 625.94 279.36 623.833 279.36ZM623.833 275.4C625.007 275.4 626.1 275.12 627.113 274.56C628.153 274 628.993 273.16 629.633 272.04C630.273 270.92 630.593 269.56 630.593 267.96C630.593 266.36 630.287 265.013 629.673 263.92C629.06 262.8 628.247 261.96 627.233 261.4C626.22 260.84 625.127 260.56 623.953 260.56C622.78 260.56 621.687 260.84 620.673 261.4C619.687 261.96 618.9 262.8 618.313 263.92C617.727 265.013 617.433 266.36 617.433 267.96C617.433 270.333 618.033 272.173 619.233 273.48C620.46 274.76 621.993 275.4 623.833 275.4ZM643.341 260.16C644.008 259.04 644.888 258.173 645.981 257.56C647.101 256.92 648.421 256.6 649.941 256.6V261.32H648.781C646.995 261.32 645.635 261.773 644.701 262.68C643.795 263.587 643.341 265.16 643.341 267.4V279H638.781V256.96H643.341V260.16ZM222.88 315.36L211.76 341H207.16L218.4 315.84H203.6V311.96H222.88V315.36ZM228.303 334.8C230.863 332.587 232.876 330.773 234.343 329.36C235.836 327.92 237.076 326.427 238.063 324.88C239.049 323.333 239.543 321.787 239.543 320.24C239.543 318.64 239.156 317.387 238.383 316.48C237.636 315.573 236.449 315.12 234.823 315.12C233.249 315.12 232.023 315.627 231.143 316.64C230.289 317.627 229.836 318.96 229.783 320.64H225.383C225.463 317.6 226.369 315.28 228.103 313.68C229.863 312.053 232.089 311.24 234.783 311.24C237.689 311.24 239.956 312.04 241.583 313.64C243.236 315.24 244.063 317.373 244.063 320.04C244.063 321.96 243.569 323.813 242.583 325.6C241.623 327.36 240.463 328.947 239.103 330.36C237.769 331.747 236.063 333.36 233.983 335.2L232.183 336.8H244.863V340.6H225.423V337.28L228.303 334.8ZM247.869 326.04C247.869 321.427 248.642 317.827 250.189 315.24C251.762 312.627 254.455 311.32 258.269 311.32C262.082 311.32 264.762 312.627 266.309 315.24C267.882 317.827 268.669 321.427 268.669 326.04C268.669 330.707 267.882 334.36 266.309 337C264.762 339.613 262.082 340.92 258.269 340.92C254.455 340.92 251.762 339.613 250.189 337C248.642 334.36 247.869 330.707 247.869 326.04ZM264.189 326.04C264.189 323.88 264.042 322.053 263.749 320.56C263.482 319.067 262.922 317.853 262.069 316.92C261.215 315.96 259.949 315.48 258.269 315.48C256.589 315.48 255.322 315.96 254.469 316.92C253.615 317.853 253.042 319.067 252.749 320.56C252.482 322.053 252.349 323.88 252.349 326.04C252.349 328.28 252.482 330.16 252.749 331.68C253.015 333.2 253.575 334.427 254.429 335.36C255.309 336.293 256.589 336.76 258.269 336.76C259.949 336.76 261.215 336.293 262.069 335.36C262.949 334.427 263.522 333.2 263.789 331.68C264.055 330.16 264.189 328.28 264.189 326.04ZM290.014 324.6V328.44H273.574V324.6H290.014ZM293.972 327.04C293.972 324.32 294.599 321.88 295.852 319.72C297.132 317.56 298.852 315.88 301.012 314.68C303.199 313.453 305.586 312.84 308.172 312.84C311.132 312.84 313.759 313.573 316.052 315.04C318.372 316.48 320.052 318.533 321.092 321.2H315.612C314.892 319.733 313.892 318.64 312.612 317.92C311.332 317.2 309.852 316.84 308.172 316.84C306.332 316.84 304.692 317.253 303.252 318.08C301.812 318.907 300.679 320.093 299.852 321.64C299.052 323.187 298.652 324.987 298.652 327.04C298.652 329.093 299.052 330.893 299.852 332.44C300.679 333.987 301.812 335.187 303.252 336.04C304.692 336.867 306.332 337.28 308.172 337.28C309.852 337.28 311.332 336.92 312.612 336.2C313.892 335.48 314.892 334.387 315.612 332.92H321.092C320.052 335.587 318.372 337.64 316.052 339.08C313.759 340.52 311.132 341.24 308.172 341.24C305.559 341.24 303.172 340.64 301.012 339.44C298.852 338.213 297.132 336.52 295.852 334.36C294.599 332.2 293.972 329.76 293.972 327.04ZM334.59 341.28C332.723 341.28 331.043 340.96 329.55 340.32C328.056 339.653 326.883 338.72 326.03 337.52C325.176 336.32 324.75 334.92 324.75 333.32H329.63C329.736 334.52 330.203 335.507 331.03 336.28C331.883 337.053 333.07 337.44 334.59 337.44C336.163 337.44 337.39 337.067 338.27 336.32C339.15 335.547 339.59 334.56 339.59 333.36C339.59 332.427 339.31 331.667 338.75 331.08C338.216 330.493 337.536 330.04 336.71 329.72C335.91 329.4 334.79 329.053 333.35 328.68C331.536 328.2 330.056 327.72 328.91 327.24C327.79 326.733 326.83 325.96 326.03 324.92C325.23 323.88 324.83 322.493 324.83 320.76C324.83 319.16 325.23 317.76 326.03 316.56C326.83 315.36 327.95 314.44 329.39 313.8C330.83 313.16 332.496 312.84 334.39 312.84C337.083 312.84 339.283 313.52 340.99 314.88C342.723 316.213 343.683 318.053 343.87 320.4H338.83C338.75 319.387 338.27 318.52 337.39 317.8C336.51 317.08 335.35 316.72 333.91 316.72C332.603 316.72 331.536 317.053 330.71 317.72C329.883 318.387 329.47 319.347 329.47 320.6C329.47 321.453 329.723 322.16 330.23 322.72C330.763 323.253 331.43 323.68 332.23 324C333.03 324.32 334.123 324.667 335.51 325.04C337.35 325.547 338.843 326.053 339.99 326.56C341.163 327.067 342.15 327.853 342.95 328.92C343.776 329.96 344.19 331.36 344.19 333.12C344.19 334.533 343.803 335.867 343.03 337.12C342.283 338.373 341.176 339.387 339.71 340.16C338.27 340.907 336.563 341.28 334.59 341.28ZM368.041 348.44C365.428 345.933 363.414 342.747 362.001 338.88C360.614 335.013 359.921 330.867 359.921 326.44C359.921 321.907 360.668 317.627 362.161 313.6C363.681 309.573 365.908 306.253 368.841 303.64H373.561V304.08C370.494 306.907 368.188 310.293 366.641 314.24C365.094 318.187 364.321 322.253 364.321 326.44C364.321 330.467 365.041 334.36 366.481 338.12C367.921 341.88 370.014 345.173 372.761 348V348.44H368.041ZM375.128 327.04C375.128 324.32 375.755 321.88 377.008 319.72C378.288 317.56 380.008 315.88 382.168 314.68C384.355 313.453 386.742 312.84 389.328 312.84C392.288 312.84 394.915 313.573 397.208 315.04C399.528 316.48 401.208 318.533 402.248 321.2H396.768C396.048 319.733 395.048 318.64 393.768 317.92C392.488 317.2 391.008 316.84 389.328 316.84C387.488 316.84 385.848 317.253 384.408 318.08C382.968 318.907 381.835 320.093 381.008 321.64C380.208 323.187 379.808 324.987 379.808 327.04C379.808 329.093 380.208 330.893 381.008 332.44C381.835 333.987 382.968 335.187 384.408 336.04C385.848 336.867 387.488 337.28 389.328 337.28C391.008 337.28 392.488 336.92 393.768 336.2C395.048 335.48 396.048 334.387 396.768 332.92H402.248C401.208 335.587 399.528 337.64 397.208 339.08C394.915 340.52 392.288 341.24 389.328 341.24C386.715 341.24 384.328 340.64 382.168 339.44C380.008 338.213 378.288 336.52 377.008 334.36C375.755 332.2 375.128 329.76 375.128 327.04ZM405.066 329.88C405.066 327.667 405.519 325.707 406.426 324C407.359 322.293 408.613 320.973 410.186 320.04C411.786 319.08 413.546 318.6 415.466 318.6C417.199 318.6 418.706 318.947 419.986 319.64C421.293 320.307 422.333 321.147 423.106 322.16V318.96H427.706V341H423.106V337.72C422.333 338.76 421.279 339.627 419.946 340.32C418.613 341.013 417.093 341.36 415.386 341.36C413.493 341.36 411.759 340.88 410.186 339.92C408.613 338.933 407.359 337.573 406.426 335.84C405.519 334.08 405.066 332.093 405.066 329.88ZM423.106 329.96C423.106 328.44 422.786 327.12 422.146 326C421.533 324.88 420.719 324.027 419.706 323.44C418.693 322.853 417.599 322.56 416.426 322.56C415.253 322.56 414.159 322.853 413.146 323.44C412.133 324 411.306 324.84 410.666 325.96C410.053 327.053 409.746 328.36 409.746 329.88C409.746 331.4 410.053 332.733 410.666 333.88C411.306 335.027 412.133 335.907 413.146 336.52C414.186 337.107 415.279 337.4 416.426 337.4C417.599 337.4 418.693 337.107 419.706 336.52C420.719 335.933 421.533 335.08 422.146 333.96C422.786 332.813 423.106 331.48 423.106 329.96ZM437.255 322.16C437.922 321.04 438.802 320.173 439.895 319.56C441.015 318.92 442.335 318.6 443.855 318.6V323.32H442.695C440.909 323.32 439.549 323.773 438.615 324.68C437.709 325.587 437.255 327.16 437.255 329.4V341H432.695V318.96H437.255V322.16ZM451.607 322.16C452.274 321.04 453.154 320.173 454.247 319.56C455.367 318.92 456.687 318.6 458.207 318.6V323.32H457.047C455.26 323.32 453.9 323.773 452.967 324.68C452.06 325.587 451.607 327.16 451.607 329.4V341H447.047V318.96H451.607V322.16ZM463.718 316.04C462.892 316.04 462.198 315.76 461.638 315.2C461.078 314.64 460.798 313.947 460.798 313.12C460.798 312.293 461.078 311.6 461.638 311.04C462.198 310.48 462.892 310.2 463.718 310.2C464.518 310.2 465.198 310.48 465.758 311.04C466.318 311.6 466.598 312.293 466.598 313.12C466.598 313.947 466.318 314.64 465.758 315.2C465.198 315.76 464.518 316.04 463.718 316.04ZM465.958 318.96V341H461.398V318.96H465.958ZM491.145 329.44C491.145 330.267 491.092 331.013 490.985 331.68H474.145C474.279 333.44 474.932 334.853 476.105 335.92C477.279 336.987 478.719 337.52 480.425 337.52C482.879 337.52 484.612 336.493 485.625 334.44H490.545C489.879 336.467 488.665 338.133 486.905 339.44C485.172 340.72 483.012 341.36 480.425 341.36C478.319 341.36 476.425 340.893 474.745 339.96C473.092 339 471.785 337.667 470.825 335.96C469.892 334.227 469.425 332.227 469.425 329.96C469.425 327.693 469.879 325.707 470.785 324C471.719 322.267 473.012 320.933 474.665 320C476.345 319.067 478.265 318.6 480.425 318.6C482.505 318.6 484.359 319.053 485.985 319.96C487.612 320.867 488.879 322.147 489.785 323.8C490.692 325.427 491.145 327.307 491.145 329.44ZM486.385 328C486.359 326.32 485.759 324.973 484.585 323.96C483.412 322.947 481.959 322.44 480.225 322.44C478.652 322.44 477.305 322.947 476.185 323.96C475.065 324.947 474.399 326.293 474.185 328H486.385ZM499.193 322.16C499.859 321.04 500.739 320.173 501.833 319.56C502.953 318.92 504.273 318.6 505.793 318.6V323.32H504.633C502.846 323.32 501.486 323.773 500.553 324.68C499.646 325.587 499.193 327.16 499.193 329.4V341H494.633V318.96H499.193V322.16ZM527.535 341.28C525.668 341.28 523.988 340.96 522.495 340.32C521.002 339.653 519.828 338.72 518.975 337.52C518.122 336.32 517.695 334.92 517.695 333.32H522.575C522.682 334.52 523.148 335.507 523.975 336.28C524.828 337.053 526.015 337.44 527.535 337.44C529.108 337.44 530.335 337.067 531.215 336.32C532.095 335.547 532.535 334.56 532.535 333.36C532.535 332.427 532.255 331.667 531.695 331.08C531.162 330.493 530.482 330.04 529.655 329.72C528.855 329.4 527.735 329.053 526.295 328.68C524.482 328.2 523.002 327.72 521.855 327.24C520.735 326.733 519.775 325.96 518.975 324.92C518.175 323.88 517.775 322.493 517.775 320.76C517.775 319.16 518.175 317.76 518.975 316.56C519.775 315.36 520.895 314.44 522.335 313.8C523.775 313.16 525.442 312.84 527.335 312.84C530.028 312.84 532.228 313.52 533.935 314.88C535.668 316.213 536.628 318.053 536.815 320.4H531.775C531.695 319.387 531.215 318.52 530.335 317.8C529.455 317.08 528.295 316.72 526.855 316.72C525.548 316.72 524.482 317.053 523.655 317.72C522.828 318.387 522.415 319.347 522.415 320.6C522.415 321.453 522.668 322.16 523.175 322.72C523.708 323.253 524.375 323.68 525.175 324C525.975 324.32 527.068 324.667 528.455 325.04C530.295 325.547 531.788 326.053 532.935 326.56C534.108 327.067 535.095 327.853 535.895 328.92C536.722 329.96 537.135 331.36 537.135 333.12C537.135 334.533 536.748 335.867 535.975 337.12C535.228 338.373 534.122 339.387 532.655 340.16C531.215 340.907 529.508 341.28 527.535 341.28ZM561.476 318.96V341H556.916V338.4C556.196 339.307 555.249 340.027 554.076 340.56C552.929 341.067 551.702 341.32 550.396 341.32C548.662 341.32 547.102 340.96 545.716 340.24C544.356 339.52 543.276 338.453 542.476 337.04C541.702 335.627 541.316 333.92 541.316 331.92V318.96H545.836V331.24C545.836 333.213 546.329 334.733 547.316 335.8C548.302 336.84 549.649 337.36 551.356 337.36C553.062 337.36 554.409 336.84 555.396 335.8C556.409 334.733 556.916 333.213 556.916 331.24V318.96H561.476ZM593.172 318.6C594.906 318.6 596.452 318.96 597.812 319.68C599.199 320.4 600.279 321.467 601.052 322.88C601.852 324.293 602.252 326 602.252 328V341H597.732V328.68C597.732 326.707 597.239 325.2 596.252 324.16C595.266 323.093 593.919 322.56 592.212 322.56C590.506 322.56 589.146 323.093 588.132 324.16C587.146 325.2 586.652 326.707 586.652 328.68V341H582.132V328.68C582.132 326.707 581.639 325.2 580.652 324.16C579.666 323.093 578.319 322.56 576.612 322.56C574.906 322.56 573.546 323.093 572.532 324.16C571.546 325.2 571.052 326.707 571.052 328.68V341H566.492V318.96H571.052V321.48C571.799 320.573 572.746 319.867 573.892 319.36C575.039 318.853 576.266 318.6 577.572 318.6C579.332 318.6 580.906 318.973 582.292 319.72C583.679 320.467 584.746 321.547 585.492 322.96C586.159 321.627 587.199 320.573 588.612 319.8C590.026 319 591.546 318.6 593.172 318.6ZM633.735 318.6C635.468 318.6 637.015 318.96 638.375 319.68C639.761 320.4 640.841 321.467 641.615 322.88C642.415 324.293 642.815 326 642.815 328V341H638.295V328.68C638.295 326.707 637.801 325.2 636.815 324.16C635.828 323.093 634.481 322.56 632.775 322.56C631.068 322.56 629.708 323.093 628.695 324.16C627.708 325.2 627.215 326.707 627.215 328.68V341H622.695V328.68C622.695 326.707 622.201 325.2 621.215 324.16C620.228 323.093 618.881 322.56 617.175 322.56C615.468 322.56 614.108 323.093 613.095 324.16C612.108 325.2 611.615 326.707 611.615 328.68V341H607.055V318.96H611.615V321.48C612.361 320.573 613.308 319.867 614.455 319.36C615.601 318.853 616.828 318.6 618.135 318.6C619.895 318.6 621.468 318.973 622.855 319.72C624.241 320.467 625.308 321.547 626.055 322.96C626.721 321.627 627.761 320.573 629.175 319.8C630.588 319 632.108 318.6 633.735 318.6ZM646.097 329.88C646.097 327.667 646.551 325.707 647.457 324C648.391 322.293 649.644 320.973 651.217 320.04C652.817 319.08 654.577 318.6 656.497 318.6C658.231 318.6 659.737 318.947 661.017 319.64C662.324 320.307 663.364 321.147 664.137 322.16V318.96H668.737V341H664.137V337.72C663.364 338.76 662.311 339.627 660.977 340.32C659.644 341.013 658.124 341.36 656.417 341.36C654.524 341.36 652.791 340.88 651.217 339.92C649.644 338.933 648.391 337.573 647.457 335.84C646.551 334.08 646.097 332.093 646.097 329.88ZM664.137 329.96C664.137 328.44 663.817 327.12 663.177 326C662.564 324.88 661.751 324.027 660.737 323.44C659.724 322.853 658.631 322.56 657.457 322.56C656.284 322.56 655.191 322.853 654.177 323.44C653.164 324 652.337 324.84 651.697 325.96C651.084 327.053 650.777 328.36 650.777 329.88C650.777 331.4 651.084 332.733 651.697 333.88C652.337 335.027 653.164 335.907 654.177 336.52C655.217 337.107 656.311 337.4 657.457 337.4C658.631 337.4 659.724 337.107 660.737 336.52C661.751 335.933 662.564 335.08 663.177 333.96C663.817 332.813 664.137 331.48 664.137 329.96ZM678.287 322.16C678.953 321.04 679.833 320.173 680.927 319.56C682.047 318.92 683.367 318.6 684.887 318.6V323.32H683.727C681.94 323.32 680.58 323.773 679.647 324.68C678.74 325.587 678.287 327.16 678.287 329.4V341H673.727V318.96H678.287V322.16ZM707.918 318.96L694.398 351.36H689.678L694.158 340.64L685.478 318.96H690.558L696.758 335.76L703.198 318.96H707.918ZM709.239 348.44V348C711.986 345.173 714.079 341.88 715.519 338.12C716.959 334.36 717.679 330.467 717.679 326.44C717.679 322.253 716.906 318.187 715.359 314.24C713.813 310.293 711.506 306.907 708.439 304.08V303.64H713.159C716.093 306.253 718.306 309.573 719.799 313.6C721.319 317.627 722.079 321.907 722.079 326.44C722.079 330.867 721.373 335.013 719.959 338.88C718.573 342.747 716.573 345.933 713.959 348.44H709.239ZM209.56 384.16C210.227 383.04 211.107 382.173 212.2 381.56C213.32 380.92 214.64 380.6 216.16 380.6V385.32H215C213.213 385.32 211.853 385.773 210.92 386.68C210.013 387.587 209.56 389.16 209.56 391.4V403H205V380.96H209.56V384.16ZM239.552 391.44C239.552 392.267 239.498 393.013 239.392 393.68H222.552C222.685 395.44 223.338 396.853 224.512 397.92C225.685 398.987 227.125 399.52 228.832 399.52C231.285 399.52 233.018 398.493 234.032 396.44H238.952C238.285 398.467 237.072 400.133 235.312 401.44C233.578 402.72 231.418 403.36 228.832 403.36C226.725 403.36 224.832 402.893 223.152 401.96C221.498 401 220.192 399.667 219.232 397.96C218.298 396.227 217.832 394.227 217.832 391.96C217.832 389.693 218.285 387.707 219.192 386C220.125 384.267 221.418 382.933 223.072 382C224.752 381.067 226.672 380.6 228.832 380.6C230.912 380.6 232.765 381.053 234.392 381.96C236.018 382.867 237.285 384.147 238.192 385.8C239.098 387.427 239.552 389.307 239.552 391.44ZM234.792 390C234.765 388.32 234.165 386.973 232.992 385.96C231.818 384.947 230.365 384.44 228.632 384.44C227.058 384.44 225.712 384.947 224.592 385.96C223.472 386.947 222.805 388.293 222.592 390H234.792ZM247.599 384.2C248.372 383.187 249.426 382.333 250.759 381.64C252.092 380.947 253.599 380.6 255.279 380.6C257.199 380.6 258.946 381.08 260.519 382.04C262.119 382.973 263.372 384.293 264.279 386C265.186 387.707 265.639 389.667 265.639 391.88C265.639 394.093 265.186 396.08 264.279 397.84C263.372 399.573 262.119 400.933 260.519 401.92C258.946 402.88 257.199 403.36 255.279 403.36C253.599 403.36 252.106 403.027 250.799 402.36C249.492 401.667 248.426 400.813 247.599 399.8V413.48H243.039V380.96H247.599V384.2ZM260.999 391.88C260.999 390.36 260.679 389.053 260.039 387.96C259.426 386.84 258.599 386 257.559 385.44C256.546 384.853 255.452 384.56 254.279 384.56C253.132 384.56 252.039 384.853 250.999 385.44C249.986 386.027 249.159 386.88 248.519 388C247.906 389.12 247.599 390.44 247.599 391.96C247.599 393.48 247.906 394.813 248.519 395.96C249.159 397.08 249.986 397.933 250.999 398.52C252.039 399.107 253.132 399.4 254.279 399.4C255.452 399.4 256.546 399.107 257.559 398.52C258.599 397.907 259.426 397.027 260.039 395.88C260.679 394.733 260.999 393.4 260.999 391.88ZM278.708 403.36C276.628 403.36 274.748 402.893 273.068 401.96C271.388 401 270.068 399.667 269.108 397.96C268.148 396.227 267.668 394.227 267.668 391.96C267.668 389.72 268.162 387.733 269.148 386C270.135 384.267 271.482 382.933 273.188 382C274.895 381.067 276.802 380.6 278.908 380.6C281.015 380.6 282.922 381.067 284.628 382C286.335 382.933 287.682 384.267 288.668 386C289.655 387.733 290.148 389.72 290.148 391.96C290.148 394.2 289.642 396.187 288.628 397.92C287.615 399.653 286.228 401 284.468 401.96C282.735 402.893 280.815 403.36 278.708 403.36ZM278.708 399.4C279.882 399.4 280.975 399.12 281.988 398.56C283.028 398 283.868 397.16 284.508 396.04C285.148 394.92 285.468 393.56 285.468 391.96C285.468 390.36 285.162 389.013 284.548 387.92C283.935 386.8 283.122 385.96 282.108 385.4C281.095 384.84 280.002 384.56 278.828 384.56C277.655 384.56 276.562 384.84 275.548 385.4C274.562 385.96 273.775 386.8 273.188 387.92C272.602 389.013 272.308 390.36 272.308 391.96C272.308 394.333 272.908 396.173 274.108 397.48C275.335 398.76 276.868 399.4 278.708 399.4ZM298.216 384.16C298.883 383.04 299.763 382.173 300.856 381.56C301.976 380.92 303.296 380.6 304.816 380.6V385.32H303.656C301.87 385.32 300.51 385.773 299.576 386.68C298.67 387.587 298.216 389.16 298.216 391.4V403H293.656V380.96H298.216V384.16ZM313.328 384.68V396.88C313.328 397.707 313.514 398.307 313.888 398.68C314.288 399.027 314.954 399.2 315.888 399.2H318.688V403H315.088C313.034 403 311.461 402.52 310.368 401.56C309.274 400.6 308.728 399.04 308.728 396.88V384.68H306.128V380.96H308.728V375.48H313.328V380.96H318.688V384.68H313.328ZM347.641 375.2V378.92H335.841V387.12H345.041V390.84H335.841V403H331.281V375.2H347.641ZM365.307 403L358.907 391.88H355.427V403H350.867V375.2H360.467C362.601 375.2 364.401 375.573 365.867 376.32C367.361 377.067 368.467 378.067 369.187 379.32C369.934 380.573 370.307 381.973 370.307 383.52C370.307 385.333 369.774 386.987 368.707 388.48C367.667 389.947 366.054 390.947 363.867 391.48L370.747 403H365.307ZM355.427 388.24H360.467C362.174 388.24 363.454 387.813 364.307 386.96C365.187 386.107 365.627 384.96 365.627 383.52C365.627 382.08 365.201 380.96 364.347 380.16C363.494 379.333 362.201 378.92 360.467 378.92H355.427V388.24ZM379.701 378.88V387.04H389.301V390.76H379.701V399.28H390.501V403H375.141V375.16H390.501V378.88H379.701ZM399.677 378.88V387.04H409.277V390.76H399.677V399.28H410.477V403H395.117V375.16H410.477V378.88H399.677ZM433.724 384.68H429.644V403H425.044V384.68H422.444V380.96H425.044V379.4C425.044 376.867 425.711 375.027 427.044 373.88C428.404 372.707 430.524 372.12 433.404 372.12V375.92C432.018 375.92 431.044 376.187 430.484 376.72C429.924 377.227 429.644 378.12 429.644 379.4V380.96H433.724V384.68ZM446.326 403.36C444.246 403.36 442.366 402.893 440.686 401.96C439.006 401 437.686 399.667 436.726 397.96C435.766 396.227 435.286 394.227 435.286 391.96C435.286 389.72 435.779 387.733 436.766 386C437.752 384.267 439.099 382.933 440.806 382C442.512 381.067 444.419 380.6 446.526 380.6C448.632 380.6 450.539 381.067 452.246 382C453.952 382.933 455.299 384.267 456.286 386C457.272 387.733 457.766 389.72 457.766 391.96C457.766 394.2 457.259 396.187 456.246 397.92C455.232 399.653 453.846 401 452.086 401.96C450.352 402.893 448.432 403.36 446.326 403.36ZM446.326 399.4C447.499 399.4 448.592 399.12 449.606 398.56C450.646 398 451.486 397.16 452.126 396.04C452.766 394.92 453.086 393.56 453.086 391.96C453.086 390.36 452.779 389.013 452.166 387.92C451.552 386.8 450.739 385.96 449.726 385.4C448.712 384.84 447.619 384.56 446.446 384.56C445.272 384.56 444.179 384.84 443.166 385.4C442.179 385.96 441.392 386.8 440.806 387.92C440.219 389.013 439.926 390.36 439.926 391.96C439.926 394.333 440.526 396.173 441.726 397.48C442.952 398.76 444.486 399.4 446.326 399.4ZM465.833 384.16C466.5 383.04 467.38 382.173 468.473 381.56C469.593 380.92 470.913 380.6 472.433 380.6V385.32H471.273C469.487 385.32 468.127 385.773 467.193 386.68C466.287 387.587 465.833 389.16 465.833 391.4V403H461.273V380.96H465.833V384.16ZM490.336 384.68V396.88C490.336 397.707 490.522 398.307 490.896 398.68C491.296 399.027 491.962 399.2 492.896 399.2H495.696V403H492.096C490.042 403 488.469 402.52 487.376 401.56C486.282 400.6 485.736 399.04 485.736 396.88V384.68H483.136V380.96H485.736V375.48H490.336V380.96H495.696V384.68H490.336ZM510.298 380.6C511.978 380.6 513.472 380.96 514.778 381.68C516.112 382.4 517.152 383.467 517.898 384.88C518.672 386.293 519.058 388 519.058 390V403H514.538V390.68C514.538 388.707 514.045 387.2 513.058 386.16C512.072 385.093 510.725 384.56 509.018 384.56C507.312 384.56 505.952 385.093 504.938 386.16C503.952 387.2 503.458 388.707 503.458 390.68V403H498.898V373.4H503.458V383.52C504.232 382.587 505.205 381.867 506.378 381.36C507.578 380.853 508.885 380.6 510.298 380.6ZM528.435 384.16C529.102 383.04 529.982 382.173 531.075 381.56C532.195 380.92 533.515 380.6 535.035 380.6V385.32H533.875C532.088 385.32 530.728 385.773 529.795 386.68C528.888 387.587 528.435 389.16 528.435 391.4V403H523.875V380.96H528.435V384.16ZM558.427 391.44C558.427 392.267 558.373 393.013 558.267 393.68H541.427C541.56 395.44 542.213 396.853 543.387 397.92C544.56 398.987 546 399.52 547.707 399.52C550.16 399.52 551.893 398.493 552.907 396.44H557.827C557.16 398.467 555.947 400.133 554.187 401.44C552.453 402.72 550.293 403.36 547.707 403.36C545.6 403.36 543.707 402.893 542.027 401.96C540.373 401 539.067 399.667 538.107 397.96C537.173 396.227 536.707 394.227 536.707 391.96C536.707 389.693 537.16 387.707 538.067 386C539 384.267 540.293 382.933 541.947 382C543.627 381.067 545.547 380.6 547.707 380.6C549.787 380.6 551.64 381.053 553.267 381.96C554.893 382.867 556.16 384.147 557.067 385.8C557.973 387.427 558.427 389.307 558.427 391.44ZM553.667 390C553.64 388.32 553.04 386.973 551.867 385.96C550.693 384.947 549.24 384.44 547.507 384.44C545.933 384.44 544.587 384.947 543.467 385.96C542.347 386.947 541.68 388.293 541.467 390H553.667ZM582.114 391.44C582.114 392.267 582.061 393.013 581.954 393.68H565.114C565.247 395.44 565.901 396.853 567.074 397.92C568.247 398.987 569.687 399.52 571.394 399.52C573.847 399.52 575.581 398.493 576.594 396.44H581.514C580.847 398.467 579.634 400.133 577.874 401.44C576.141 402.72 573.981 403.36 571.394 403.36C569.287 403.36 567.394 402.893 565.714 401.96C564.061 401 562.754 399.667 561.794 397.96C560.861 396.227 560.394 394.227 560.394 391.96C560.394 389.693 560.847 387.707 561.754 386C562.687 384.267 563.981 382.933 565.634 382C567.314 381.067 569.234 380.6 571.394 380.6C573.474 380.6 575.327 381.053 576.954 381.96C578.581 382.867 579.847 384.147 580.754 385.8C581.661 387.427 582.114 389.307 582.114 391.44ZM577.354 390C577.327 388.32 576.727 386.973 575.554 385.96C574.381 384.947 572.927 384.44 571.194 384.44C569.621 384.44 568.274 384.947 567.154 385.96C566.034 386.947 565.367 388.293 565.154 390H577.354ZM231.68 442.6C233.413 442.6 234.96 442.96 236.32 443.68C237.707 444.4 238.787 445.467 239.56 446.88C240.36 448.293 240.76 450 240.76 452V465H236.24V452.68C236.24 450.707 235.747 449.2 234.76 448.16C233.773 447.093 232.427 446.56 230.72 446.56C229.013 446.56 227.653 447.093 226.64 448.16C225.653 449.2 225.16 450.707 225.16 452.68V465H220.64V452.68C220.64 450.707 220.147 449.2 219.16 448.16C218.173 447.093 216.827 446.56 215.12 446.56C213.413 446.56 212.053 447.093 211.04 448.16C210.053 449.2 209.56 450.707 209.56 452.68V465H205V442.96H209.56V445.48C210.307 444.573 211.253 443.867 212.4 443.36C213.547 442.853 214.773 442.6 216.08 442.6C217.84 442.6 219.413 442.973 220.8 443.72C222.187 444.467 223.253 445.547 224 446.96C224.667 445.627 225.707 444.573 227.12 443.8C228.533 443 230.053 442.6 231.68 442.6ZM255.123 465.36C253.043 465.36 251.163 464.893 249.483 463.96C247.803 463 246.483 461.667 245.523 459.96C244.563 458.227 244.083 456.227 244.083 453.96C244.083 451.72 244.576 449.733 245.563 448C246.549 446.267 247.896 444.933 249.603 444C251.309 443.067 253.216 442.6 255.323 442.6C257.429 442.6 259.336 443.067 261.043 444C262.749 444.933 264.096 446.267 265.083 448C266.069 449.733 266.563 451.72 266.563 453.96C266.563 456.2 266.056 458.187 265.043 459.92C264.029 461.653 262.643 463 260.883 463.96C259.149 464.893 257.229 465.36 255.123 465.36ZM255.123 461.4C256.296 461.4 257.389 461.12 258.403 460.56C259.443 460 260.283 459.16 260.923 458.04C261.563 456.92 261.883 455.56 261.883 453.96C261.883 452.36 261.576 451.013 260.963 449.92C260.349 448.8 259.536 447.96 258.523 447.4C257.509 446.84 256.416 446.56 255.243 446.56C254.069 446.56 252.976 446.84 251.963 447.4C250.976 447.96 250.189 448.8 249.603 449.92C249.016 451.013 248.723 452.36 248.723 453.96C248.723 456.333 249.323 458.173 250.523 459.48C251.749 460.76 253.283 461.4 255.123 461.4ZM281.19 442.6C282.924 442.6 284.47 442.96 285.83 443.68C287.217 444.4 288.297 445.467 289.07 446.88C289.844 448.293 290.23 450 290.23 452V465H285.71V452.68C285.71 450.707 285.217 449.2 284.23 448.16C283.244 447.093 281.897 446.56 280.19 446.56C278.484 446.56 277.124 447.093 276.11 448.16C275.124 449.2 274.63 450.707 274.63 452.68V465H270.07V442.96H274.63V445.48C275.377 444.573 276.324 443.867 277.47 443.36C278.644 442.853 279.884 442.6 281.19 442.6ZM300.367 446.68V458.88C300.367 459.707 300.554 460.307 300.927 460.68C301.327 461.027 301.994 461.2 302.927 461.2H305.727V465H302.127C300.074 465 298.5 464.52 297.407 463.56C296.314 462.6 295.767 461.04 295.767 458.88V446.68H293.167V442.96H295.767V437.48H300.367V442.96H305.727V446.68H300.367ZM320.33 442.6C322.01 442.6 323.503 442.96 324.81 443.68C326.143 444.4 327.183 445.467 327.93 446.88C328.703 448.293 329.09 450 329.09 452V465H324.57V452.68C324.57 450.707 324.076 449.2 323.09 448.16C322.103 447.093 320.756 446.56 319.05 446.56C317.343 446.56 315.983 447.093 314.97 448.16C313.983 449.2 313.49 450.707 313.49 452.68V465H308.93V435.4H313.49V445.52C314.263 444.587 315.236 443.867 316.41 443.36C317.61 442.853 318.916 442.6 320.33 442.6ZM341.906 465.36C340.173 465.36 338.613 465.053 337.226 464.44C335.866 463.8 334.786 462.947 333.986 461.88C333.186 460.787 332.76 459.573 332.706 458.24H337.426C337.506 459.173 337.946 459.96 338.746 460.6C339.573 461.213 340.6 461.52 341.826 461.52C343.106 461.52 344.093 461.28 344.786 460.8C345.506 460.293 345.866 459.653 345.866 458.88C345.866 458.053 345.466 457.44 344.666 457.04C343.893 456.64 342.653 456.2 340.946 455.72C339.293 455.267 337.946 454.827 336.906 454.4C335.866 453.973 334.96 453.32 334.186 452.44C333.44 451.56 333.066 450.4 333.066 448.96C333.066 447.787 333.413 446.72 334.106 445.76C334.8 444.773 335.786 444 337.066 443.44C338.373 442.88 339.866 442.6 341.546 442.6C344.053 442.6 346.066 443.24 347.586 444.52C349.133 445.773 349.96 447.493 350.066 449.68H345.506C345.426 448.693 345.026 447.907 344.306 447.32C343.586 446.733 342.613 446.44 341.386 446.44C340.186 446.44 339.266 446.667 338.626 447.12C337.986 447.573 337.666 448.173 337.666 448.92C337.666 449.507 337.88 450 338.306 450.4C338.733 450.8 339.253 451.12 339.866 451.36C340.48 451.573 341.386 451.853 342.586 452.2C344.186 452.627 345.493 453.067 346.506 453.52C347.546 453.947 348.44 454.587 349.186 455.44C349.933 456.293 350.32 457.427 350.346 458.84C350.346 460.093 350 461.213 349.306 462.2C348.613 463.187 347.626 463.96 346.346 464.52C345.093 465.08 343.613 465.36 341.906 465.36ZM359.993 437.2L359.473 456.6H355.673L355.153 437.2H359.993ZM357.713 465.28C356.887 465.28 356.193 465 355.633 464.44C355.073 463.88 354.793 463.187 354.793 462.36C354.793 461.533 355.073 460.84 355.633 460.28C356.193 459.72 356.887 459.44 357.713 459.44C358.513 459.44 359.193 459.72 359.753 460.28C360.313 460.84 360.593 461.533 360.593 462.36C360.593 463.187 360.313 463.88 359.753 464.44C359.193 465 358.513 465.28 357.713 465.28ZM371.845 437.2L371.325 456.6H367.525L367.005 437.2H371.845ZM369.565 465.28C368.738 465.28 368.045 465 367.485 464.44C366.925 463.88 366.645 463.187 366.645 462.36C366.645 461.533 366.925 460.84 367.485 460.28C368.045 459.72 368.738 459.44 369.565 459.44C370.365 459.44 371.045 459.72 371.605 460.28C372.165 460.84 372.445 461.533 372.445 462.36C372.445 463.187 372.165 463.88 371.605 464.44C371.045 465 370.365 465.28 369.565 465.28Z" fill="#FF7900"/>
</svg>
