<svg width="769" height="700" viewBox="0 0 769 700" fill="none" xmlns="http://www.w3.org/2000/svg">
<path d="M42.3267 694.233H712.465C714.556 688.954 716.823 683.762 719.266 678.676C733.695 648.67 754.275 621.954 763.73 589.625C773.519 556.116 769.776 517.504 751.603 488.571C721.164 440.139 658.563 426.183 628.563 377.434C604.767 338.751 605.576 284.142 575.383 251.319C551.762 225.66 515.154 220.75 482.237 225.273C449.32 229.796 417.563 242.221 384.557 245.758C350.287 249.419 315.19 243.224 283.679 227.948C266.052 219.395 249.356 208.008 230.604 203.151C200.903 195.46 168.372 205.826 145.349 227.878C122.326 249.947 108.671 282.751 106.052 316.242C103.75 345.615 109.427 374.952 110.85 404.378C112.274 433.803 108.618 465.605 90.9381 487.709C73.7325 509.233 46.3864 517.768 27.9331 538.007C0.499073 568.101 -0.678428 619.103 17.1598 656.959C23.7327 670.897 32.3794 683.234 42.3267 694.233Z" fill="#D4E9FA"/>
<path d="M123.077 612.954C122.251 610.666 120.985 608.519 119.228 606.847C117.804 605.475 116.099 604.454 114.711 603.046C110.774 599.086 110.071 592.838 111.038 587.33C112.005 581.821 114.342 576.647 115.66 571.209C116.978 565.771 117.136 559.647 114.043 554.983C111.512 551.182 107.154 548.841 104.834 544.916C101.02 538.475 103.832 529.957 101.126 522.988C100.669 521.827 100.054 520.718 99.2981 519.732C98.4545 518.36 97.3649 517.163 95.8886 516.336C94.4475 515.526 92.7779 515.192 91.1083 515.262C89.4563 515.192 87.7867 515.526 86.328 516.336C84.8518 517.163 83.7622 518.36 82.9186 519.732C82.1629 520.735 81.5302 521.827 81.0908 522.988C78.3668 529.957 81.1787 538.475 77.3826 544.916C75.0627 548.841 70.6866 551.182 68.1735 554.983C65.0803 559.647 65.2385 565.771 66.5566 571.209C67.8747 576.647 70.2121 581.821 71.1787 587.33C72.1278 592.838 71.4423 599.086 67.5056 603.046C66.1172 604.436 64.3949 605.475 62.989 606.847C61.2315 608.519 59.9661 610.684 59.1401 612.954C56.8203 619.325 57.9626 626.699 61.5654 632.419C67.119 641.288 77.0311 643.682 85.3087 649.067C85.836 649.402 86.3983 649.736 86.9607 650.035C87.4177 650.44 87.9273 650.81 88.5425 651.056C89.386 651.39 90.2648 651.478 91.1611 651.408C92.0398 651.478 92.9185 651.39 93.7797 651.056C94.3948 650.81 94.8869 650.44 95.3614 650.035C95.9238 649.736 96.4862 649.402 97.0134 649.067C105.291 643.7 115.203 641.288 120.757 632.419C124.254 626.681 125.396 619.307 123.077 612.954Z" fill="white"/>
<path d="M111.846 691.268C110.721 692.817 109.438 694.137 107.979 695.158H74.1656C60.9846 685.989 62.4433 652.533 63.0584 643.962C63.1287 642.836 64.0778 641.974 65.2025 641.974H116.942C118.085 641.974 119.016 642.836 119.104 643.962C119.631 651.583 120.844 678.861 111.846 691.268Z" fill="#7C5721"/>
<path opacity="0.5" d="M111.846 691.268C110.721 692.817 109.438 694.137 107.979 695.158H74.1656C60.9846 685.989 62.4433 652.533 63.0584 643.962C63.1287 642.836 64.0778 641.974 65.2025 641.974H66.9424C73.7965 655.93 91.8281 688.47 111.846 691.268Z" fill="#7C5721"/>
<path d="M689.186 359.948C689.256 356.34 686.427 353.313 682.877 352.697C674.213 351.166 651.383 347.153 650.188 346.942C649.169 346.766 651.26 315.915 651.383 314.05C653 312.624 654.002 310.6 654.125 308.365C654.142 308.101 654.142 307.802 654.019 307.556C653.896 307.309 653.633 307.116 653.369 307.169C653.123 307.204 652.965 307.433 652.807 307.626C652.244 308.313 651.559 308.876 650.786 309.298C650.17 307.362 650.821 305.268 651.225 303.279C651.33 302.769 651.313 302.065 650.803 301.924C650.364 301.801 649.995 302.258 649.801 302.663C649.292 303.649 648.958 304.722 648.8 305.813C648.94 304.494 649.063 303.156 649.204 301.836C649.239 301.431 649.204 300.886 648.8 300.798C648.483 300.71 648.202 300.991 648.009 301.238C646.972 302.593 646.374 304.3 646.357 306.007C646.357 304.582 646.357 303.174 646.374 301.748C646.374 301.572 646.374 301.378 646.251 301.255C646.093 301.079 645.794 301.079 645.601 301.22C645.408 301.343 645.285 301.572 645.179 301.783C644.459 303.209 643.984 304.758 643.756 306.341C643.633 305.708 643.51 305.074 643.387 304.423C643.316 304.036 643.141 303.578 642.754 303.578C642.385 303.578 642.192 304.001 642.121 304.353C641.735 306.148 641.981 308.013 642.543 309.756C642.93 310.988 643.492 312.167 644.072 313.328C642.174 320.614 633.773 354.105 639.292 357.185C645.496 360.634 680.241 370.032 682.437 369.803C683.966 369.627 689.081 365.192 689.186 359.948Z" fill="#FFC68A"/>
<path d="M641.242 319.312L651.682 322.092C651.682 322.092 650.364 345.939 650.785 346.062C651.207 346.185 686.532 350.691 688.36 355.354C690.188 360.018 689.801 367.938 682.596 370.401C675.39 372.865 638.044 360.37 637.025 355.407C635.214 346.502 641.242 319.312 641.242 319.312Z" fill="#FFDE17"/>
<path opacity="0.5" d="M650.802 346.061C650.802 346.061 645.951 345.833 646.109 347.188C646.285 348.578 650.802 346.061 650.802 346.061Z" fill="#FFDE17"/>
<path opacity="0.5" d="M650.805 346.061C650.805 346.061 649.399 347.944 649.908 349.123C650.4 350.32 650.805 346.061 650.805 346.061Z" fill="#FFDE17"/>
<path d="M690.278 337.42L686.746 353.312L675.445 352.045L676.57 346.888L677.361 343.28L679.171 334.938L690.278 337.42Z" fill="#FFC68A"/>
<path d="M686.254 342.4C686.254 342.4 681.72 348.296 676.57 346.888L677.361 343.28C677.871 343.386 683.372 344.424 686.254 342.4Z" fill="#EDAF6B"/>
<path d="M687.186 404.878L661.193 405.406C661.193 405.406 663.056 395.867 662.757 388.141C662.687 386.047 662.406 383.882 662.072 381.753C661.703 379.448 661.263 377.212 660.93 375.171C660.93 375.171 660.93 375.171 660.912 375.171C660.525 372.76 660.244 370.666 660.367 369.117C661.07 360.581 675.446 352.046 675.446 352.046L686.747 353.313C686.747 353.313 690.156 357.378 691.298 362.025C692.81 368.167 687.186 404.878 687.186 404.878Z" fill="#FFDE17"/>
<path d="M687.643 360.58C686.694 357.095 683.109 355.001 679.541 355.406C670.807 356.409 647.784 359.031 646.571 359.172C645.534 359.295 638.803 329.113 638.399 327.3C639.541 325.47 639.928 323.253 639.418 321.07C639.348 320.806 639.278 320.525 639.102 320.331C638.926 320.12 638.61 320.014 638.364 320.138C638.135 320.243 638.048 320.507 637.942 320.736C637.608 321.545 637.099 322.285 636.466 322.901C635.324 321.211 635.359 319.029 635.183 317.005C635.13 316.477 634.919 315.808 634.392 315.826C633.935 315.843 633.724 316.371 633.636 316.829C633.425 317.92 633.408 319.046 633.566 320.138C633.32 318.818 633.074 317.515 632.81 316.195C632.74 315.791 632.547 315.298 632.143 315.298C631.826 315.315 631.615 315.65 631.51 315.949C630.895 317.551 630.807 319.346 631.264 321C630.86 319.645 630.473 318.272 630.069 316.917C630.016 316.759 629.963 316.565 629.823 316.477C629.629 316.354 629.348 316.442 629.19 316.618C629.032 316.794 628.979 317.04 628.944 317.269C628.663 318.835 628.645 320.454 628.874 322.038C628.575 321.458 628.276 320.877 627.977 320.314C627.802 319.962 627.503 319.574 627.134 319.68C626.782 319.786 626.73 320.243 626.747 320.595C626.888 322.425 627.643 324.15 628.68 325.664C629.401 326.737 630.262 327.705 631.158 328.655C631.404 336.17 632.828 370.682 638.997 372.055C645.921 373.603 681.914 372.741 683.953 371.896C685.394 371.351 689.032 365.649 687.643 360.58Z" fill="#FFC68A"/>
<path d="M630.174 335.238L640.982 334.938C640.982 334.938 646.466 358.187 646.922 358.187C647.379 358.187 682.511 352.467 685.587 356.427C688.662 360.387 690.525 368.077 684.321 372.477C678.117 376.877 638.768 375.522 636.378 371.052C632.089 363.026 630.174 335.238 630.174 335.238Z" fill="#FFDE17"/>
<path opacity="0.5" d="M646.902 358.187C646.902 358.187 642.175 359.348 642.719 360.615C643.282 361.865 646.902 358.187 646.902 358.187Z" fill="#FFDE17"/>
<path opacity="0.5" d="M646.9 358.187C646.9 358.187 646.074 360.386 646.9 361.372C647.726 362.357 646.9 358.187 646.9 358.187Z" fill="#FFDE17"/>
<path opacity="0.5" d="M680.174 373.955C679.506 374.413 668.786 381.611 662.072 381.751C661.703 379.446 661.264 377.211 660.93 375.169C660.93 375.169 674.673 375.257 680.174 373.955Z" fill="#FFDE17"/>
<path d="M677.28 491.854C677.192 494.177 677.086 496.552 676.963 498.928C675.839 522.282 673.343 547.097 673.343 547.097L662.552 545.601L661.076 545.39L660.109 491.854H677.28Z" fill="#FFC68A"/>
<path opacity="0.5" d="M677.28 491.854C677.192 494.177 677.086 496.552 676.963 498.928C673.818 499.386 667.526 500.09 663.8 499.333L662.552 545.601L661.076 545.39L660.109 491.854H677.28Z" fill="#FFC68A"/>
<path d="M676.4 551.109C676.312 549.736 676.031 548.398 675.75 547.061C675.697 546.797 675.645 546.515 675.522 546.269C675.363 545.882 675.1 545.547 674.783 545.266C674.08 544.597 672.973 544.421 672.147 544.914C671.181 545.494 670.003 545.706 668.896 545.477C667.824 545.266 666.875 544.667 665.996 544.034C665.1 543.4 664.239 542.731 663.237 542.291C662.235 541.869 661.058 541.711 660.073 542.168C659.089 542.626 658.386 543.805 658.72 544.843C655.082 545.16 651.269 546.251 648 547.853C647.332 548.169 646.664 548.539 646.172 549.085C645.68 549.63 645.364 550.405 645.539 551.126L676.4 551.109Z" fill="#143C4A"/>
<path d="M692.198 491.854C692.092 494.81 691.952 497.82 691.794 500.847C690.616 523.637 688.261 547.097 688.261 547.097L677.787 545.636L675.994 545.39L675.027 491.854H692.198Z" fill="#FFC68A"/>
<path opacity="0.5" d="M692.198 491.854C692.092 494.81 691.952 497.82 691.794 500.847C686.802 501.815 677.787 501.128 677.787 501.128V545.636L675.994 545.39L675.027 491.854H692.198Z" fill="#FFC68A"/>
<path d="M691.318 551.109C691.23 549.736 690.949 548.398 690.668 547.061C690.615 546.797 690.563 546.515 690.44 546.269C690.281 545.882 690.018 545.547 689.701 545.266C688.998 544.597 687.891 544.421 687.065 544.914C686.099 545.494 684.921 545.706 683.814 545.477C682.742 545.266 681.793 544.667 680.914 544.034C680.018 543.4 679.157 542.731 678.155 542.291C677.153 541.869 675.976 541.711 674.992 542.168C674.007 542.626 673.304 543.805 673.638 544.843C670 545.16 666.187 546.251 662.918 547.853C662.25 548.169 661.582 548.539 661.09 549.085C660.598 549.63 660.282 550.405 660.457 551.126L691.318 551.109Z" fill="#143C4A"/>
<path d="M701.514 496.992C699 498.048 694.343 498.505 688.948 498.629C688.368 498.646 687.788 498.646 687.19 498.646C673.517 498.787 656.241 496.992 656.241 496.992C656.241 496.992 653.834 437.384 654.062 427.916C654.273 418.448 661.197 405.407 661.197 405.407L682.779 404.984L684.642 404.949L687.331 404.896C692.709 406.973 698.649 417.568 699.967 425.487C701.285 433.407 701.514 496.992 701.514 496.992Z" fill="#143C4A"/>
<g opacity="0.5">
<path d="M688.95 498.629C688.37 498.646 687.79 498.646 687.192 498.646C687.087 486.732 686.507 435.607 686.12 424.431C685.839 416.001 683.976 408.803 682.781 404.984L684.644 404.949C685.857 408.962 687.597 416.019 687.878 424.361C688.265 435.554 688.845 486.714 688.95 498.629Z" fill="#143C4A"/>
</g>
<path d="M696.782 331.371C696.554 331.089 696.29 330.931 696.009 330.808C696.062 329.312 695.992 327.851 695.939 326.461C695.869 324.754 694.972 323.24 693.566 322.483C690.104 320.583 683.215 317.608 677.573 320.108C676.326 320.671 675.359 321.815 674.955 323.187C674.217 325.616 673.689 326.742 672.811 330.949C672.477 332.515 672.213 334.046 672.037 335.436C671.756 337.742 671.774 339.642 672.283 340.593C674.34 344.394 686.255 345.045 692.178 339.889C693.145 339.044 693.865 338.129 694.41 337.161C696.642 335.859 697.907 332.691 696.782 331.371Z" fill="#FFC68A"/>
<path d="M686.593 336.351C686.312 337.618 685.064 338.41 683.816 338.129C682.551 337.847 681.76 336.598 682.041 335.348C682.322 334.081 683.57 333.289 684.818 333.57C686.083 333.852 686.874 335.102 686.593 336.351Z" fill="#FFD5A8"/>
<path d="M674.183 333.589C673.955 334.627 673.058 335.349 672.057 335.419C672.232 334.029 672.496 332.498 672.83 330.932C673.832 331.354 674.429 332.463 674.183 333.589Z" fill="#FFD5A8"/>
<path d="M678.753 328.238C678.964 328.872 678.876 329.593 678.647 330.209C678.419 330.843 678.05 331.424 677.628 331.934C677.417 332.198 677.189 332.427 677.066 332.638C676.925 332.849 676.907 333.078 676.96 333.342C677.066 333.87 677.575 334.275 678.19 334.504C677.558 334.574 676.767 334.257 676.468 333.518C676.31 333.166 676.327 332.708 676.521 332.356C676.714 332.004 676.943 331.776 677.136 331.529C677.54 331.054 677.892 330.544 678.19 330.016C678.454 329.47 678.682 328.889 678.753 328.238Z" fill="#EDAF6B"/>
<path d="M681.246 327.623C681.545 327.447 681.861 327.412 682.177 327.43C682.494 327.465 682.81 327.571 683.091 327.729C683.39 327.87 683.636 328.116 683.812 328.363C684.005 328.609 684.11 328.926 684.181 329.207C684.198 329.313 684.146 329.401 684.04 329.436C683.97 329.454 683.9 329.419 683.847 329.366L683.829 329.348C683.671 329.137 683.513 328.943 683.337 328.785C683.161 328.627 682.951 328.521 682.757 328.433C682.335 328.257 681.861 328.327 681.369 328.187L681.299 328.169C681.14 328.116 681.052 327.958 681.105 327.799C681.14 327.711 681.175 327.659 681.246 327.623Z" fill="#523329"/>
<path d="M677.469 327.323C676.96 327.253 676.573 326.971 676.098 326.954C675.87 326.936 675.641 326.954 675.413 327.024C675.185 327.077 674.956 327.2 674.728 327.323L674.71 327.341C674.622 327.393 674.517 327.358 674.464 327.27C674.429 327.2 674.429 327.129 674.482 327.059C674.657 326.83 674.886 326.584 675.167 326.443C675.448 326.285 675.765 326.179 676.098 326.179C676.432 326.162 676.749 326.214 677.065 326.302C677.364 326.408 677.627 326.584 677.821 326.866C677.909 327.006 677.873 327.2 677.733 327.288C677.663 327.341 677.592 327.341 677.522 327.341L677.469 327.323Z" fill="#523329"/>
<path d="M677.049 336.335C677.857 336.494 678.595 336.617 679.246 336.458C679.58 336.388 679.878 336.247 680.16 336.036C680.458 335.825 680.704 335.543 681.003 335.244C680.95 335.649 680.81 336.071 680.529 336.406C680.265 336.758 679.843 337.004 679.404 337.11C678.964 337.198 678.508 337.162 678.103 337.022C677.682 336.881 677.312 336.652 677.049 336.335Z" fill="#EDAF6B"/>
<path d="M681.829 331.513C681.671 332.234 681.179 332.745 680.757 332.657C680.318 332.569 680.107 331.9 680.265 331.161C680.423 330.439 680.915 329.929 681.337 330.017C681.777 330.105 681.987 330.773 681.829 331.513Z" fill="#523329"/>
<path d="M676.257 330.263C676.099 330.984 675.607 331.495 675.185 331.407C674.746 331.319 674.535 330.65 674.693 329.911C674.851 329.189 675.343 328.679 675.765 328.767C676.204 328.872 676.433 329.541 676.257 330.263Z" fill="#523329"/>
<path d="M694.993 334.062C694.905 333.728 694.641 333.517 694.36 333.429C694.079 333.323 693.78 333.376 693.499 333.464C692.937 333.675 692.392 334.045 691.935 334.45C691.812 334.555 691.636 334.538 691.548 334.432C691.46 334.326 691.46 334.168 691.548 334.062C691.882 333.675 692.392 333.587 692.814 333.605C693.025 333.605 693.253 333.658 693.464 333.746C693.675 333.834 693.903 334.027 693.991 334.274C694.167 334.766 693.956 335.259 693.587 335.523C693.218 335.769 692.796 335.805 692.41 335.752C692.796 335.682 693.165 335.541 693.394 335.294C693.622 335.066 693.692 334.678 693.569 334.467C693.464 334.238 693.13 334.168 692.796 334.15C692.462 334.15 692.146 334.238 691.953 334.45L691.566 334.062C692.093 333.622 692.691 333.235 693.394 333.094C693.745 333.024 694.149 333.042 694.466 333.235C694.782 333.376 695.028 333.71 694.993 334.062Z" fill="#EDAF6B"/>
<path d="M706.891 361.325C705.731 358.685 704.29 356.186 703.235 353.511C702.163 350.836 701.478 347.932 701.917 345.098C702.198 343.286 702.919 341.579 703.2 339.766C703.534 337.566 703.2 335.243 702.216 333.237C700.951 330.632 698.631 328.397 698.473 325.511C698.473 325.511 697.998 318.647 689.896 316.711C685.819 315.743 682.497 316.236 679.967 317.186C675.977 318.7 673.095 322.29 672.251 326.479C671.127 332.075 671.865 338.164 671.865 338.164C671.671 335.313 674.237 325.229 674.237 325.229C676.118 325.74 681.619 323.029 684.202 323.276C688.086 323.628 687.963 327.341 687.963 327.341C687.963 327.341 687.875 329.4 688.367 331.213C688.069 332.058 688.016 332.973 688.315 333.8C688.596 334.539 689.018 334.997 689.141 335.472C689.281 335.894 689.053 336.44 688.631 336.686H688.613C688.473 336.757 688.42 336.933 688.473 337.073C688.543 337.232 688.719 337.32 688.895 337.249C689.633 336.968 690.142 336.158 690.037 335.313C689.931 334.504 689.527 333.923 689.457 333.43C689.422 333.307 689.439 333.184 689.439 333.043C689.967 332.691 692.04 331.354 693.851 330.808C695.467 330.333 697.137 331.794 696.68 333.43C696.68 333.448 696.662 333.466 696.662 333.483C696.206 335.014 692.181 340.03 689.176 341.772L686.733 353.282C692.48 363.824 690.828 376.53 690.828 376.53C692.673 376.143 694.431 375.756 696.293 375.369C698.789 374.841 701.337 374.295 703.569 373.046C705.801 371.796 707.699 369.702 708.068 367.168C708.385 365.196 707.699 363.173 706.891 361.325Z" fill="#523329"/>
<path d="M677.939 576.91L677.236 570.047H644.547L645.267 576.91H677.939Z" fill="#3C8B24"/>
<path d="M670.823 604.699L670.12 597.835H637.432L638.152 604.699H670.823Z" fill="#3C8B24"/>
<path d="M663.702 632.489L662.999 625.625H630.311L631.014 632.489H663.702Z" fill="#3C8B24"/>
<path d="M656.585 660.26L655.882 653.396H623.193L623.896 660.26H656.585Z" fill="#3C8B24"/>
<path d="M643.916 694.771H652.844L685.164 550.987H676.236L643.916 694.771Z" fill="#3C8B24"/>
<path d="M613.477 694.772H622.404L654.724 550.988H645.779L613.477 694.772Z" fill="#3C8B24"/>
<path opacity="0.5" d="M648.538 550.988L616.218 694.772H613.477L645.796 550.988H648.538Z" fill="#3C8B24"/>
<path d="M623.861 692.926H612.877V694.774H623.861V692.926Z" fill="#26A9E0"/>
<path d="M654.039 692.924H643.055V694.772H654.039V692.924Z" fill="#26A9E0"/>
<path d="M691.91 576.923V570.06H659.221V576.923H691.91Z" fill="#FFDE17"/>
<path opacity="0.8" d="M686.587 571.809H665.094L664.514 570.049H686.007L686.587 571.809Z" fill="#FFDE17"/>
<path d="M701.906 604.704V597.841H669.217V604.704H701.906Z" fill="#FFDE17"/>
<path opacity="0.8" d="M695.816 599.598H674.322L673.742 597.838H695.236L695.816 599.598Z" fill="#FFDE17"/>
<path d="M711.904 632.487V625.623H679.216V632.487H711.904Z" fill="#FFDE17"/>
<path opacity="0.8" d="M704.904 627.386H683.41L682.83 625.626H704.324L704.904 627.386Z" fill="#FFDE17"/>
<path d="M721.916 660.268V653.404H689.227V660.268H721.916Z" fill="#FFDE17"/>
<path opacity="0.8" d="M713.968 655.158H692.474L691.895 653.398H713.388L713.968 655.158Z" fill="#FFDE17"/>
<path d="M705.483 694.773H696.555L649.314 550.989H658.242L705.483 694.773Z" fill="#FFDE17"/>
<path d="M706.258 692.926H695.273V694.774H706.258V692.926Z" fill="#26A9E0"/>
<path d="M735.922 694.773H726.995L679.754 550.989H688.699L735.922 694.773Z" fill="#FFDE17"/>
<path d="M736.662 692.926H725.678V694.774H736.662V692.926Z" fill="#26A9E0"/>
<path d="M639.982 556.939V551.835C639.982 551.342 640.369 550.955 640.861 550.955H694.692C695.184 550.955 695.571 551.342 695.571 551.835V556.939C695.571 557.431 695.184 557.819 694.692 557.819H640.861C640.369 557.819 639.982 557.431 639.982 556.939Z" fill="#FFDE17"/>
<path opacity="0.8" d="M695.571 551.835V555.267C695.571 554.792 695.184 554.387 694.692 554.387H640.861C640.369 554.387 639.982 554.792 639.982 555.267V551.835C639.982 551.36 640.369 550.955 640.861 550.955H694.692C695.184 550.955 695.571 551.36 695.571 551.835Z" fill="#FFDE17"/>
<path d="M141.595 0H137.307V276.234H141.595V0Z" fill="#97D1E9"/>
<path d="M614.239 316.359L609.969 316.007L613.484 273.682C613.888 268.754 617.297 264.812 622.148 263.633C626.84 262.506 631.515 264.407 634.028 268.472L634.151 268.666C637.315 273.928 638.404 279.947 639.459 285.755C639.67 286.934 639.881 288.113 640.127 289.292C642.148 299.535 645.399 306.451 650.355 311.044L647.438 314.195C641.779 308.95 638.123 301.312 635.909 290.119C635.68 288.922 635.452 287.726 635.241 286.511C634.204 280.827 633.238 275.459 630.478 270.883L630.391 270.725C628.545 267.733 625.434 267.24 623.15 267.804C620.847 268.349 618.053 270.32 617.754 274.034L614.239 316.359Z" fill="#97D1E9"/>
<path d="M621.007 0H616.719V148.905H621.007V0Z" fill="#97D1E9"/>
<path d="M583.491 537.436L128.027 499.457C121.102 498.876 115.953 492.787 116.533 485.853L137.412 234.768C137.798 230.122 141.875 226.673 146.515 227.06L610.274 265.725C614.914 266.112 618.359 270.195 617.972 274.841L597.093 525.926C596.513 532.86 590.433 538.017 583.491 537.436Z" fill="white"/>
<path d="M617.199 283.957L136.639 243.902L137.394 234.786C137.781 230.14 141.858 226.69 146.498 227.078L610.257 265.742C614.897 266.13 618.342 270.213 617.955 274.859L617.199 283.957Z" fill="#97D1E9"/>
<path d="M565.214 270.794C565.021 273.205 562.895 275 560.487 274.789C558.079 274.595 556.286 272.466 556.497 270.055C556.691 267.644 558.817 265.849 561.225 266.06C563.615 266.271 565.408 268.383 565.214 270.794Z" fill="#FFF0EB"/>
<path d="M583.896 272.359C583.703 274.77 581.576 276.566 579.168 276.354C576.761 276.161 574.968 274.031 575.179 271.62C575.372 269.209 577.499 267.414 579.907 267.625C582.297 267.819 584.089 269.948 583.896 272.359Z" fill="#FFF0EB"/>
<path d="M602.578 273.909C602.384 276.32 600.258 278.115 597.85 277.904C595.442 277.711 593.65 275.581 593.861 273.17C594.054 270.759 596.18 268.964 598.588 269.175C600.996 269.386 602.789 271.498 602.578 273.909Z" fill="#FFF0EB"/>
<path d="M356.881 326.16L352.207 325.773L351.697 331.809L345.212 331.264L345.722 325.227L330.256 323.943L330.625 319.472L345.686 302.349L352.664 302.929L338.674 319.191L346.389 319.842L346.829 314.457L353.103 314.985L352.664 320.37L357.338 320.757L356.881 326.16Z" fill="#F05956"/>
<path d="M359.552 317.994C360.343 308.508 366.037 303.563 373.102 304.144C380.202 304.742 384.965 310.55 384.174 320.053C383.383 329.539 377.724 334.502 370.624 333.903C363.559 333.305 358.761 327.48 359.552 317.994ZM377.478 319.49C378.023 312.961 375.949 310.057 372.627 309.775C369.341 309.494 366.828 312.028 366.283 318.557C365.738 325.086 367.812 327.99 371.098 328.272C374.42 328.536 376.933 326.019 377.478 319.49Z" fill="#F05956"/>
<path d="M413.053 330.842L408.378 330.455L407.869 336.491L401.384 335.945L401.893 329.909L386.428 328.624L386.797 324.154L401.858 307.03L408.835 307.611L394.846 323.872L402.561 324.524L403.001 319.138L409.275 319.666L408.835 325.052L413.51 325.439L413.053 330.842Z" fill="#F05956"/>
<path d="M380.229 350.364L301.814 343.824L295.315 421.979L373.729 428.518L380.229 350.364Z" fill="#97D1E9"/>
<path opacity="0.4" d="M380.219 350.339L373.717 428.496L295.316 421.949L295.703 417.251L337.197 420.7C355.756 422.249 372.047 408.433 373.594 389.849L376.898 350.058L380.219 350.339Z" fill="#97D1E9"/>
<path d="M438.596 355.234L380.219 350.365L373.719 428.52L432.096 433.388L438.596 355.234Z" fill="#A1BCD1"/>
<path opacity="0.4" d="M432.559 427.811L432.102 433.354L373.719 428.497L380.221 350.34L384.72 350.709L382.049 382.775C380.186 405.161 396.794 424.819 419.149 426.684L432.559 427.811Z" fill="#A1BCD1"/>
<path d="M397.504 403.401L379.709 401.917L378.412 417.509L396.207 418.993L397.504 403.401Z" fill="#F05956"/>
<path d="M429.824 404.102L413.676 402.755L413.372 406.403L429.521 407.75L429.824 404.102Z" fill="#FF7900"/>
<path d="M429.31 410.234L409.605 408.591L409.302 412.239L429.006 413.882L429.31 410.234Z" fill="#FF7900"/>
<path d="M442.015 389.269L383.632 384.394L380.223 350.34L438.606 355.197L442.015 389.269Z" fill="#97D1E9"/>
<path d="M370.434 383.303L292.033 376.756L301.119 343.74L379.52 350.287L370.434 383.303Z" fill="#97D1E9"/>
<path opacity="0.4" d="M371.365 379.906L370.434 383.303L292.033 376.756L301.119 343.74L304.318 344.004C300.082 359.403 310.856 374.873 326.761 376.193L371.365 379.906Z" fill="#97D1E9"/>
<path opacity="0.5" d="M380.224 350.34L377.57 382.265L376.358 386.664L298.801 380.205L299.029 377.337L370.435 383.303L379.521 350.287L380.224 350.34Z" fill="#97D1E9"/>
<path d="M442.019 389.269L383.636 384.394L380.227 350.34L438.609 355.197L442.019 389.269Z" fill="#97D1E9"/>
<path opacity="0.5" d="M435.813 388.758L435.584 391.504L379.099 386.805L378.062 376.386L380.224 350.34L383.634 384.394L435.813 388.758Z" fill="#A1BCD1"/>
<path opacity="0.4" d="M442.018 389.268L383.635 384.393L383.23 380.381L406.991 382.37C422.633 383.672 435.62 370.455 434.056 354.81L438.608 355.197L442.018 389.268Z" fill="#97D1E9"/>
<path d="M609.167 462.764L398.254 468.87L317.024 471.211L113.07 477.107L112.877 470.665L112.385 453.366L201.488 450.796H201.506L312.612 447.576L373.385 445.816L393.79 445.235L608.481 439.04L609.079 459.455L609.167 462.764Z" fill="#FF7900"/>
<path d="M118.677 463.485L118.461 455.982L122.989 455.852L123.012 456.658L119.393 456.762L119.465 459.297L122.851 459.2L122.874 460.006L119.489 460.103L119.562 462.653L123.24 462.547L123.264 463.353L118.677 463.485ZM124.843 463.308L124.627 455.804L127.162 455.731C127.748 455.714 128.232 455.801 128.614 455.99C128.996 456.177 129.282 456.441 129.473 456.783C129.664 457.125 129.765 457.516 129.778 457.958C129.791 458.401 129.712 458.795 129.541 459.142C129.37 459.489 129.1 459.766 128.732 459.972C128.364 460.176 127.889 460.286 127.308 460.303L125.256 460.362L125.233 459.542L127.255 459.483C127.656 459.472 127.976 459.404 128.217 459.279C128.461 459.155 128.634 458.984 128.738 458.766C128.844 458.545 128.893 458.285 128.884 457.984C128.875 457.684 128.812 457.423 128.693 457.201C128.574 456.98 128.39 456.812 128.139 456.697C127.889 456.579 127.561 456.526 127.156 456.538L125.558 456.584L125.751 463.281L124.843 463.308ZM128.277 459.835L130.221 463.152L129.166 463.183L127.251 459.865L128.277 459.835ZM131.442 463.117L131.226 455.614L133.761 455.541C134.347 455.524 134.831 455.61 135.213 455.8C135.595 455.987 135.881 456.251 136.072 456.593C136.263 456.934 136.364 457.326 136.377 457.768C136.39 458.21 136.311 458.605 136.14 458.952C135.969 459.299 135.699 459.576 135.331 459.782C134.963 459.986 134.488 460.096 133.907 460.113L131.856 460.172L131.832 459.351L133.854 459.293C134.255 459.281 134.576 459.213 134.816 459.089C135.06 458.965 135.233 458.794 135.337 458.575C135.443 458.355 135.492 458.094 135.483 457.794C135.474 457.493 135.411 457.232 135.292 457.011C135.173 456.79 134.989 456.621 134.738 456.506C134.488 456.389 134.16 456.336 133.755 456.348L132.158 456.394L132.35 463.091L131.442 463.117ZM134.876 459.645L136.82 462.962L135.765 462.992L133.851 459.674L134.876 459.645ZM144.264 458.993C144.286 459.784 144.163 460.472 143.894 461.057C143.625 461.641 143.246 462.097 142.756 462.424C142.267 462.751 141.702 462.924 141.062 462.942C140.423 462.961 139.849 462.821 139.342 462.523C138.835 462.224 138.43 461.791 138.127 461.223C137.825 460.655 137.662 459.975 137.64 459.184C137.617 458.392 137.74 457.704 138.009 457.12C138.278 456.535 138.658 456.079 139.147 455.752C139.636 455.425 140.201 455.252 140.841 455.234C141.481 455.215 142.054 455.355 142.561 455.654C143.069 455.952 143.474 456.385 143.776 456.953C144.078 457.521 144.241 458.201 144.264 458.993ZM143.384 459.018C143.366 458.368 143.241 457.823 143.011 457.382C142.783 456.942 142.481 456.612 142.106 456.393C141.733 456.174 141.319 456.071 140.865 456.084C140.411 456.097 140.003 456.224 139.64 456.464C139.281 456.704 138.999 457.051 138.794 457.504C138.592 457.957 138.5 458.509 138.519 459.158C138.538 459.808 138.661 460.353 138.889 460.794C139.119 461.235 139.421 461.564 139.793 461.784C140.169 462.002 140.584 462.105 141.038 462.092C141.492 462.079 141.899 461.953 142.259 461.712C142.621 461.472 142.903 461.125 143.106 460.672C143.31 460.219 143.403 459.668 143.384 459.018ZM145.899 462.7L145.683 455.197L148.219 455.124C148.805 455.107 149.289 455.193 149.671 455.383C150.052 455.57 150.339 455.834 150.529 456.175C150.72 456.517 150.822 456.909 150.835 457.351C150.847 457.793 150.768 458.188 150.597 458.535C150.426 458.882 150.157 459.159 149.789 459.365C149.421 459.569 148.946 459.679 148.365 459.696L146.313 459.755L146.29 458.934L148.312 458.876C148.712 458.864 149.033 458.796 149.274 458.672C149.517 458.548 149.691 458.376 149.795 458.158C149.901 457.938 149.949 457.677 149.941 457.377C149.932 457.076 149.868 456.815 149.75 456.594C149.631 456.372 149.446 456.204 149.196 456.089C148.946 455.972 148.618 455.919 148.212 455.931L146.615 455.977L146.808 462.674L145.899 462.7ZM149.334 459.228L151.277 462.545L150.222 462.575L148.308 459.257L149.334 459.228Z" fill="white"/>
<path d="M202.491 461.065L202.275 453.561L206.803 453.431L206.827 454.237L203.207 454.341L203.28 456.876L206.665 456.779L206.688 457.585L203.303 457.682L203.376 460.232L207.055 460.126L207.078 460.932L202.491 461.065ZM208.657 460.887L208.441 453.384L210.976 453.31C211.563 453.293 212.047 453.38 212.428 453.569C212.81 453.756 213.097 454.02 213.287 454.362C213.478 454.704 213.58 455.095 213.592 455.538C213.605 455.98 213.526 456.374 213.355 456.721C213.184 457.069 212.915 457.345 212.547 457.551C212.179 457.755 211.704 457.865 211.123 457.882L209.071 457.941L209.047 457.121L211.07 457.062C211.47 457.051 211.791 456.983 212.032 456.859C212.275 456.734 212.449 456.563 212.552 456.345C212.658 456.124 212.707 455.864 212.698 455.563C212.69 455.263 212.626 455.002 212.507 454.781C212.388 454.559 212.204 454.391 211.954 454.276C211.704 454.158 211.376 454.106 210.97 454.117L209.373 454.163L209.566 460.86L208.657 460.887ZM212.092 457.414L214.035 460.731L212.98 460.762L211.066 457.444L212.092 457.414ZM215.256 460.696L215.04 453.193L217.575 453.12C218.162 453.103 218.646 453.189 219.028 453.379C219.409 453.566 219.696 453.83 219.886 454.172C220.077 454.513 220.179 454.905 220.192 455.347C220.204 455.789 220.125 456.184 219.954 456.531C219.783 456.878 219.514 457.155 219.146 457.361C218.778 457.565 218.303 457.675 217.722 457.692L215.67 457.751L215.646 456.93L217.669 456.872C218.069 456.86 218.39 456.792 218.631 456.668C218.874 456.544 219.048 456.373 219.151 456.155C219.257 455.934 219.306 455.673 219.298 455.373C219.289 455.073 219.225 454.812 219.106 454.59C218.988 454.369 218.803 454.2 218.553 454.085C218.303 453.968 217.975 453.915 217.569 453.927L215.972 453.973L216.165 460.67L215.256 460.696ZM218.691 457.224L220.634 460.541L219.579 460.572L217.665 457.253L218.691 457.224ZM228.078 456.572C228.101 457.363 227.978 458.051 227.708 458.636C227.439 459.22 227.06 459.676 226.571 460.003C226.081 460.33 225.517 460.503 224.877 460.521C224.237 460.54 223.663 460.4 223.156 460.102C222.649 459.803 222.244 459.37 221.942 458.802C221.639 458.234 221.477 457.554 221.454 456.763C221.431 455.971 221.555 455.283 221.824 454.699C222.093 454.114 222.472 453.658 222.961 453.331C223.451 453.004 224.015 452.832 224.655 452.813C225.295 452.795 225.869 452.934 226.376 453.233C226.883 453.531 227.288 453.964 227.59 454.532C227.893 455.101 228.055 455.78 228.078 456.572ZM227.199 456.597C227.18 455.947 227.056 455.402 226.825 454.961C226.598 454.521 226.296 454.191 225.921 453.972C225.548 453.753 225.134 453.65 224.68 453.663C224.225 453.676 223.817 453.803 223.455 454.043C223.095 454.283 222.813 454.63 222.608 455.083C222.406 455.536 222.315 456.088 222.333 456.737C222.352 457.387 222.475 457.932 222.703 458.373C222.933 458.814 223.235 459.144 223.608 459.363C223.983 459.582 224.398 459.684 224.852 459.671C225.307 459.658 225.714 459.532 226.074 459.291C226.436 459.051 226.718 458.705 226.92 458.251C227.124 457.798 227.217 457.247 227.199 456.597ZM229.714 460.279L229.498 452.776L232.033 452.703C232.619 452.686 233.103 452.772 233.485 452.962C233.867 453.149 234.153 453.413 234.344 453.755C234.535 454.096 234.636 454.488 234.649 454.93C234.662 455.372 234.583 455.767 234.412 456.114C234.241 456.461 233.971 456.738 233.603 456.944C233.235 457.148 232.76 457.258 232.179 457.275L230.128 457.334L230.104 456.513L232.126 456.455C232.527 456.443 232.848 456.375 233.088 456.251C233.332 456.127 233.505 455.955 233.609 455.737C233.715 455.517 233.764 455.256 233.755 454.956C233.747 454.655 233.683 454.394 233.564 454.173C233.445 453.952 233.261 453.783 233.01 453.668C232.76 453.551 232.432 453.498 232.027 453.51L230.43 453.556L230.622 460.253L229.714 460.279ZM233.148 456.807L235.092 460.124L234.037 460.154L232.123 456.836L233.148 456.807Z" fill="white"/>
<path d="M286.3 458.644L286.084 451.141L290.612 451.01L290.635 451.816L287.016 451.92L287.089 454.456L290.474 454.358L290.497 455.164L287.112 455.262L287.185 457.811L290.863 457.705L290.887 458.511L286.3 458.644ZM292.466 458.466L292.25 450.963L294.785 450.889C295.371 450.873 295.855 450.959 296.237 451.148C296.619 451.335 296.905 451.6 297.096 451.941C297.287 452.283 297.388 452.675 297.401 453.117C297.414 453.559 297.335 453.953 297.164 454.301C296.993 454.648 296.723 454.924 296.355 455.131C295.987 455.334 295.512 455.444 294.931 455.461L292.879 455.52L292.856 454.7L294.878 454.641C295.279 454.63 295.599 454.562 295.84 454.438C296.084 454.313 296.257 454.142 296.361 453.924C296.467 453.703 296.516 453.443 296.507 453.142C296.498 452.842 296.435 452.581 296.316 452.36C296.197 452.138 296.013 451.97 295.762 451.855C295.512 451.737 295.184 451.685 294.779 451.696L293.181 451.742L293.374 458.44L292.466 458.466ZM295.9 454.993L297.844 458.311L296.789 458.341L294.875 455.023L295.9 454.993ZM299.065 458.275L298.849 450.772L301.384 450.699C301.97 450.682 302.454 450.768 302.836 450.958C303.218 451.145 303.504 451.409 303.695 451.751C303.886 452.092 303.987 452.484 304 452.926C304.013 453.368 303.934 453.763 303.763 454.11C303.592 454.457 303.322 454.734 302.954 454.94C302.586 455.144 302.112 455.254 301.53 455.271L299.479 455.33L299.455 454.509L301.477 454.451C301.878 454.44 302.199 454.372 302.439 454.247C302.683 454.123 302.856 453.952 302.96 453.734C303.066 453.513 303.115 453.252 303.106 452.952C303.098 452.652 303.034 452.391 302.915 452.169C302.796 451.948 302.612 451.78 302.361 451.665C302.111 451.547 301.783 451.494 301.378 451.506L299.781 451.552L299.973 458.249L299.065 458.275ZM302.499 454.803L304.443 458.12L303.388 458.151L301.474 454.832L302.499 454.803ZM311.887 454.151C311.909 454.942 311.786 455.63 311.517 456.215C311.248 456.799 310.869 457.255 310.379 457.582C309.89 457.909 309.325 458.082 308.686 458.1C308.046 458.119 307.472 457.979 306.965 457.681C306.458 457.382 306.053 456.949 305.75 456.381C305.448 455.813 305.286 455.133 305.263 454.342C305.24 453.55 305.363 452.862 305.632 452.278C305.902 451.693 306.281 451.237 306.77 450.91C307.259 450.583 307.824 450.411 308.464 450.392C309.104 450.374 309.677 450.514 310.185 450.812C310.692 451.11 311.097 451.543 311.399 452.111C311.701 452.68 311.864 453.359 311.887 454.151ZM311.007 454.176C310.989 453.526 310.864 452.981 310.634 452.541C310.406 452.1 310.105 451.77 309.729 451.551C309.356 451.332 308.943 451.229 308.488 451.242C308.034 451.255 307.626 451.382 307.263 451.622C306.904 451.862 306.622 452.209 306.417 452.662C306.215 453.115 306.123 453.667 306.142 454.316C306.161 454.966 306.284 455.511 306.512 455.952C306.742 456.393 307.044 456.723 307.417 456.942C307.792 457.161 308.207 457.264 308.661 457.25C309.115 457.237 309.522 457.111 309.882 456.871C310.244 456.63 310.526 456.284 310.729 455.83C310.933 455.377 311.026 454.826 311.007 454.176ZM313.522 457.858L313.306 450.355L315.842 450.282C316.428 450.265 316.912 450.351 317.294 450.541C317.676 450.728 317.962 450.992 318.153 451.334C318.343 451.675 318.445 452.067 318.458 452.509C318.47 452.951 318.391 453.346 318.22 453.693C318.049 454.04 317.78 454.317 317.412 454.523C317.044 454.727 316.569 454.837 315.988 454.854L313.936 454.913L313.913 454.092L315.935 454.034C316.335 454.022 316.656 453.954 316.897 453.83C317.14 453.706 317.314 453.535 317.418 453.316C317.524 453.096 317.572 452.835 317.564 452.535C317.555 452.235 317.491 451.974 317.373 451.752C317.254 451.531 317.069 451.362 316.819 451.247C316.569 451.13 316.241 451.077 315.835 451.089L314.238 451.135L314.431 457.832L313.522 457.858ZM316.957 454.386L318.9 457.703L317.845 457.733L315.931 454.415L316.957 454.386Z" fill="white"/>
<path d="M370.11 456.223L369.894 448.72L374.423 448.589L374.446 449.395L370.826 449.499L370.899 452.035L374.284 451.937L374.307 452.743L370.922 452.841L370.996 455.391L374.674 455.284L374.697 456.09L370.11 456.223ZM376.276 456.045L376.06 448.542L378.595 448.469C379.182 448.452 379.666 448.538 380.048 448.727C380.429 448.914 380.716 449.179 380.906 449.52C381.097 449.862 381.199 450.254 381.212 450.696C381.224 451.138 381.145 451.532 380.974 451.88C380.803 452.227 380.534 452.503 380.166 452.71C379.798 452.913 379.323 453.024 378.742 453.04L376.69 453.1L376.666 452.279L378.689 452.221C379.089 452.209 379.41 452.141 379.651 452.017C379.894 451.892 380.068 451.721 380.171 451.503C380.278 451.282 380.326 451.022 380.318 450.722C380.309 450.421 380.245 450.16 380.126 449.939C380.008 449.717 379.823 449.549 379.573 449.434C379.323 449.317 378.995 449.264 378.589 449.275L376.992 449.322L377.185 456.019L376.276 456.045ZM379.711 452.572L381.654 455.89L380.599 455.92L378.685 452.602L379.711 452.572ZM382.875 455.854L382.659 448.351L385.195 448.278C385.781 448.261 386.265 448.348 386.647 448.537C387.029 448.724 387.315 448.988 387.505 449.33C387.696 449.671 387.798 450.063 387.811 450.505C387.823 450.947 387.744 451.342 387.573 451.689C387.402 452.036 387.133 452.313 386.765 452.519C386.397 452.723 385.922 452.833 385.341 452.85L383.289 452.909L383.266 452.089L385.288 452.03C385.688 452.019 386.009 451.951 386.25 451.826C386.493 451.702 386.667 451.531 386.771 451.313C386.877 451.092 386.925 450.832 386.917 450.531C386.908 450.231 386.844 449.97 386.726 449.748C386.607 449.527 386.422 449.359 386.172 449.244C385.922 449.126 385.594 449.073 385.188 449.085L383.591 449.131L383.784 455.828L382.875 455.854ZM386.31 452.382L388.253 455.699L387.198 455.73L385.284 452.412L386.31 452.382ZM395.697 451.73C395.72 452.521 395.597 453.209 395.328 453.794C395.058 454.378 394.679 454.834 394.19 455.161C393.701 455.488 393.136 455.661 392.496 455.68C391.856 455.698 391.283 455.558 390.775 455.26C390.268 454.962 389.863 454.528 389.561 453.96C389.259 453.392 389.096 452.712 389.073 451.921C389.051 451.13 389.174 450.442 389.443 449.857C389.712 449.272 390.091 448.816 390.581 448.489C391.07 448.162 391.634 447.99 392.274 447.971C392.914 447.953 393.488 448.093 393.995 448.391C394.502 448.689 394.907 449.122 395.209 449.691C395.512 450.259 395.674 450.938 395.697 451.73ZM394.818 451.755C394.799 451.106 394.675 450.56 394.444 450.12C394.217 449.679 393.915 449.349 393.54 449.13C393.167 448.911 392.753 448.808 392.299 448.821C391.844 448.834 391.436 448.961 391.074 449.201C390.714 449.441 390.432 449.788 390.228 450.241C390.026 450.694 389.934 451.246 389.953 451.896C389.971 452.545 390.094 453.09 390.322 453.531C390.553 453.972 390.854 454.302 391.227 454.521C391.602 454.74 392.017 454.843 392.472 454.83C392.926 454.816 393.333 454.69 393.693 454.45C394.055 454.209 394.337 453.863 394.539 453.41C394.744 452.956 394.837 452.405 394.818 451.755ZM397.333 455.437L397.117 447.934L399.652 447.861C400.238 447.844 400.722 447.93 401.104 448.12C401.486 448.307 401.772 448.571 401.963 448.913C402.154 449.254 402.255 449.646 402.268 450.088C402.281 450.53 402.202 450.925 402.031 451.272C401.86 451.619 401.591 451.896 401.222 452.102C400.854 452.306 400.38 452.416 399.798 452.433L397.747 452.492L397.723 451.671L399.745 451.613C400.146 451.601 400.467 451.534 400.708 451.409C400.951 451.285 401.124 451.114 401.228 450.896C401.334 450.675 401.383 450.414 401.374 450.114C401.366 449.814 401.302 449.553 401.183 449.331C401.064 449.11 400.88 448.942 400.63 448.827C400.379 448.709 400.051 448.656 399.646 448.668L398.049 448.714L398.241 455.411L397.333 455.437ZM400.768 451.965L402.711 455.282L401.656 455.313L399.742 451.994L400.768 451.965Z" fill="white"/>
<path d="M453.925 453.802L453.709 446.299L458.237 446.168L458.26 446.974L454.641 447.078L454.714 449.614L458.099 449.516L458.122 450.322L454.737 450.42L454.81 452.97L458.488 452.863L458.512 453.669L453.925 453.802ZM460.091 453.624L459.875 446.121L462.41 446.048C462.996 446.031 463.48 446.117 463.862 446.306C464.244 446.493 464.53 446.758 464.721 447.099C464.912 447.441 465.013 447.833 465.026 448.275C465.039 448.717 464.96 449.112 464.789 449.459C464.618 449.806 464.348 450.083 463.98 450.289C463.612 450.492 463.137 450.603 462.556 450.619L460.504 450.679L460.481 449.858L462.503 449.8C462.904 449.788 463.224 449.72 463.465 449.596C463.709 449.472 463.882 449.3 463.986 449.082C464.092 448.862 464.141 448.601 464.132 448.301C464.123 448 464.06 447.739 463.941 447.518C463.822 447.296 463.638 447.128 463.387 447.013C463.137 446.896 462.809 446.843 462.404 446.855L460.806 446.901L460.999 453.598L460.091 453.624ZM463.525 450.151L465.469 453.469L464.414 453.499L462.5 450.181L463.525 450.151ZM466.69 453.434L466.474 445.93L469.009 445.857C469.595 445.84 470.079 445.927 470.461 446.116C470.843 446.303 471.129 446.567 471.32 446.909C471.511 447.251 471.612 447.642 471.625 448.084C471.638 448.527 471.559 448.921 471.388 449.268C471.217 449.615 470.947 449.892 470.579 450.098C470.211 450.302 469.737 450.412 469.155 450.429L467.104 450.488L467.08 449.668L469.102 449.609C469.503 449.598 469.824 449.53 470.064 449.406C470.308 449.281 470.481 449.11 470.585 448.892C470.691 448.671 470.74 448.411 470.731 448.11C470.723 447.81 470.659 447.549 470.54 447.327C470.421 447.106 470.237 446.938 469.986 446.823C469.736 446.705 469.408 446.652 469.003 446.664L467.406 446.71L467.598 453.407L466.69 453.434ZM470.124 449.961L472.068 453.278L471.013 453.309L469.099 449.991L470.124 449.961ZM479.512 449.309C479.534 450.1 479.411 450.788 479.142 451.373C478.873 451.958 478.494 452.413 478.004 452.74C477.515 453.067 476.95 453.24 476.311 453.259C475.671 453.277 475.097 453.137 474.59 452.839C474.083 452.541 473.678 452.107 473.375 451.539C473.073 450.971 472.911 450.291 472.888 449.5C472.865 448.709 472.988 448.021 473.257 447.436C473.527 446.851 473.906 446.396 474.395 446.069C474.884 445.742 475.449 445.569 476.089 445.55C476.729 445.532 477.302 445.672 477.81 445.97C478.317 446.268 478.722 446.702 479.024 447.27C479.326 447.838 479.489 448.518 479.512 449.309ZM478.632 449.334C478.614 448.685 478.489 448.139 478.259 447.699C478.031 447.258 477.73 446.928 477.354 446.709C476.981 446.49 476.568 446.387 476.113 446.4C475.659 446.413 475.251 446.54 474.888 446.78C474.529 447.02 474.247 447.367 474.042 447.82C473.84 448.274 473.748 448.825 473.767 449.475C473.786 450.124 473.909 450.67 474.137 451.11C474.367 451.551 474.669 451.881 475.042 452.1C475.417 452.319 475.832 452.422 476.286 452.409C476.74 452.396 477.147 452.269 477.507 452.029C477.869 451.789 478.151 451.442 478.354 450.989C478.558 450.535 478.651 449.984 478.632 449.334ZM481.147 453.016L480.931 445.513L483.467 445.44C484.053 445.423 484.537 445.51 484.919 445.699C485.301 445.886 485.587 446.15 485.778 446.492C485.968 446.833 486.07 447.225 486.083 447.667C486.095 448.109 486.016 448.504 485.845 448.851C485.674 449.198 485.405 449.475 485.037 449.681C484.669 449.885 484.194 449.995 483.613 450.012L481.561 450.071L481.538 449.25L483.56 449.192C483.96 449.181 484.281 449.113 484.522 448.988C484.765 448.864 484.939 448.693 485.043 448.475C485.149 448.254 485.197 447.994 485.189 447.693C485.18 447.393 485.116 447.132 484.998 446.91C484.879 446.689 484.694 446.521 484.444 446.406C484.194 446.288 483.866 446.235 483.46 446.247L481.863 446.293L482.056 452.99L481.147 453.016ZM484.582 449.544L486.525 452.861L485.47 452.892L483.556 449.574L484.582 449.544Z" fill="white"/>
<path d="M537.739 451.382L537.523 443.879L542.052 443.748L542.075 444.554L538.455 444.659L538.528 447.194L541.913 447.096L541.936 447.902L538.551 448L538.625 450.55L542.303 450.444L542.326 451.25L537.739 451.382ZM543.905 451.204L543.689 443.701L546.224 443.628C546.811 443.611 547.295 443.697 547.676 443.887C548.058 444.074 548.345 444.338 548.535 444.679C548.726 445.021 548.828 445.413 548.84 445.855C548.853 446.297 548.774 446.692 548.603 447.039C548.432 447.386 548.163 447.663 547.795 447.869C547.427 448.073 546.952 448.183 546.371 448.2L544.319 448.259L544.295 447.438L546.318 447.38C546.718 447.368 547.039 447.3 547.28 447.176C547.523 447.052 547.697 446.88 547.8 446.662C547.906 446.442 547.955 446.181 547.947 445.881C547.938 445.58 547.874 445.319 547.755 445.098C547.637 444.876 547.452 444.708 547.202 444.593C546.952 444.476 546.624 444.423 546.218 444.435L544.621 444.481L544.814 451.178L543.905 451.204ZM547.34 447.732L549.283 451.049L548.228 451.079L546.314 447.761L547.34 447.732ZM550.504 451.014L550.288 443.511L552.823 443.437C553.41 443.42 553.894 443.507 554.276 443.696C554.657 443.883 554.944 444.147 555.134 444.489C555.325 444.831 555.427 445.222 555.44 445.665C555.452 446.107 555.373 446.501 555.202 446.848C555.031 447.196 554.762 447.472 554.394 447.678C554.026 447.882 553.551 447.992 552.97 448.009L550.918 448.068L550.894 447.248L552.917 447.189C553.317 447.178 553.638 447.11 553.879 446.986C554.122 446.861 554.296 446.69 554.399 446.472C554.506 446.251 554.554 445.991 554.546 445.69C554.537 445.39 554.473 445.129 554.354 444.908C554.236 444.686 554.051 444.518 553.801 444.403C553.551 444.285 553.223 444.233 552.817 444.244L551.22 444.29L551.413 450.987L550.504 451.014ZM553.939 447.541L555.882 450.858L554.827 450.889L552.913 447.571L553.939 447.541ZM563.326 446.889C563.349 447.68 563.226 448.368 562.956 448.953C562.687 449.538 562.308 449.994 561.819 450.321C561.329 450.648 560.765 450.82 560.125 450.839C559.485 450.857 558.912 450.717 558.404 450.419C557.897 450.121 557.492 449.688 557.19 449.119C556.888 448.551 556.725 447.871 556.702 447.08C556.679 446.289 556.803 445.601 557.072 445.016C557.341 444.431 557.72 443.976 558.209 443.649C558.699 443.322 559.263 443.149 559.903 443.13C560.543 443.112 561.117 443.252 561.624 443.55C562.131 443.848 562.536 444.282 562.838 444.85C563.141 445.418 563.303 446.098 563.326 446.889ZM562.447 446.914C562.428 446.265 562.304 445.72 562.073 445.279C561.846 444.838 561.544 444.508 561.169 444.289C560.796 444.07 560.382 443.967 559.928 443.98C559.473 443.993 559.065 444.12 558.703 444.36C558.343 444.601 558.061 444.947 557.857 445.4C557.654 445.854 557.563 446.405 557.581 447.055C557.6 447.704 557.723 448.25 557.951 448.69C558.181 449.131 558.483 449.461 558.856 449.68C559.231 449.899 559.646 450.002 560.101 449.989C560.555 449.976 560.962 449.849 561.322 449.609C561.684 449.369 561.966 449.022 562.168 448.569C562.373 448.116 562.465 447.564 562.447 446.914ZM564.962 450.596L564.746 443.093L567.281 443.02C567.867 443.003 568.351 443.09 568.733 443.279C569.115 443.466 569.401 443.73 569.592 444.072C569.783 444.414 569.884 444.805 569.897 445.247C569.91 445.69 569.831 446.084 569.66 446.431C569.489 446.778 569.219 447.055 568.851 447.261C568.483 447.465 568.009 447.575 567.427 447.592L565.376 447.651L565.352 446.831L567.374 446.772C567.775 446.761 568.096 446.693 568.336 446.568C568.58 446.444 568.753 446.273 568.857 446.055C568.963 445.834 569.012 445.574 569.003 445.273C568.995 444.973 568.931 444.712 568.812 444.49C568.693 444.269 568.509 444.101 568.258 443.986C568.008 443.868 567.68 443.815 567.275 443.827L565.678 443.873L565.87 450.57L564.962 450.596ZM568.396 447.124L570.34 450.441L569.285 450.472L567.371 447.154L568.396 447.124Z" fill="white"/>
<path opacity="0.5" d="M373.948 469.291L317.024 471.21L113.07 477.105L112.877 470.664C151.752 469.098 282.771 470.559 287.534 469.291C291.875 468.147 229.326 456.057 201.506 450.795L312.613 447.574C320.767 453.259 373.948 469.291 373.948 469.291Z" fill="#FF7900"/>
<path opacity="0.5" d="M609.168 462.762L398.255 468.869L373.387 445.814L393.791 445.233L457.13 453.171L514.476 462.692C521.523 463.871 528.694 464.24 535.829 463.818L609.08 459.453L609.168 462.762Z" fill="#FF7900"/>
<path d="M608.411 478.197L606.144 495.655L605.353 501.744L113.158 437.948L116.199 414.4L130.504 416.248L608.411 478.197Z" fill="#FF7900"/>
<path opacity="0.5" d="M606.144 495.655L605.353 501.744L113.158 437.948L116.199 414.4L130.504 416.248C131.119 423.147 133.211 431.137 139.45 433.407C149.836 437.191 527.761 485.641 606.144 495.655Z" fill="#FF7900"/>
<path d="M120.898 425.496L121.861 418.052L126.353 418.634L126.25 419.434L122.659 418.969L122.334 421.484L125.692 421.919L125.589 422.719L122.23 422.283L121.903 424.813L125.552 425.286L125.449 426.086L120.898 425.496ZM127.015 426.289L127.978 418.845L130.493 419.171C131.075 419.247 131.539 419.408 131.887 419.655C132.234 419.9 132.476 420.206 132.61 420.573C132.745 420.94 132.784 421.343 132.728 421.782C132.671 422.22 132.531 422.598 132.308 422.914C132.085 423.23 131.775 423.461 131.379 423.606C130.984 423.75 130.498 423.784 129.921 423.709L127.886 423.445L127.991 422.631L129.997 422.891C130.395 422.943 130.722 422.926 130.979 422.841C131.239 422.757 131.437 422.615 131.574 422.416C131.713 422.215 131.802 421.965 131.841 421.667C131.879 421.369 131.857 421.101 131.775 420.864C131.692 420.626 131.536 420.431 131.307 420.278C131.078 420.123 130.763 420.019 130.361 419.967L128.776 419.762L127.917 426.406L127.015 426.289ZM130.952 423.399L132.351 426.981L131.304 426.845L129.934 423.267L130.952 423.399ZM133.562 427.138L134.525 419.694L137.04 420.02C137.621 420.095 138.086 420.257 138.433 420.504C138.781 420.748 139.022 421.054 139.157 421.422C139.292 421.789 139.331 422.192 139.274 422.631C139.218 423.069 139.078 423.447 138.855 423.763C138.631 424.079 138.322 424.309 137.926 424.455C137.531 424.599 137.045 424.633 136.468 424.558L134.433 424.294L134.538 423.48L136.544 423.74C136.941 423.792 137.269 423.775 137.526 423.69C137.786 423.606 137.984 423.464 138.121 423.265C138.26 423.063 138.349 422.814 138.388 422.516C138.426 422.218 138.404 421.95 138.321 421.713C138.239 421.475 138.083 421.28 137.854 421.127C137.625 420.972 137.31 420.868 136.907 420.816L135.323 420.61L134.464 427.255L133.562 427.138ZM137.498 424.248L138.898 427.83L137.851 427.694L136.481 424.116L137.498 424.248ZM146.871 425.079C146.769 425.864 146.54 426.524 146.182 427.059C145.825 427.594 145.379 427.985 144.845 428.231C144.31 428.477 143.726 428.559 143.091 428.477C142.456 428.395 141.911 428.166 141.457 427.792C141.003 427.418 140.671 426.926 140.462 426.318C140.252 425.709 140.198 425.012 140.3 424.227C140.401 423.442 140.63 422.782 140.988 422.247C141.345 421.712 141.791 421.321 142.326 421.075C142.86 420.829 143.445 420.747 144.08 420.829C144.714 420.912 145.259 421.14 145.713 421.514C146.167 421.888 146.499 422.38 146.709 422.988C146.918 423.597 146.972 424.294 146.871 425.079ZM145.999 424.966C146.082 424.321 146.044 423.763 145.886 423.292C145.73 422.821 145.484 422.448 145.148 422.173C144.814 421.898 144.421 421.731 143.971 421.673C143.52 421.614 143.097 421.675 142.702 421.855C142.309 422.036 141.976 422.334 141.703 422.75C141.432 423.165 141.255 423.696 141.172 424.34C141.088 424.985 141.125 425.543 141.281 426.014C141.439 426.485 141.685 426.858 142.019 427.133C142.356 427.408 142.749 427.575 143.2 427.634C143.651 427.692 144.072 427.631 144.465 427.45C144.861 427.27 145.193 426.972 145.464 426.556C145.737 426.141 145.915 425.611 145.999 424.966ZM147.905 428.998L148.868 421.554L151.383 421.88C151.964 421.955 152.429 422.116 152.776 422.363C153.124 422.608 153.365 422.914 153.5 423.281C153.635 423.649 153.674 424.052 153.617 424.49C153.561 424.929 153.421 425.306 153.198 425.622C152.974 425.938 152.665 426.169 152.269 426.315C151.874 426.458 151.388 426.493 150.811 426.418L148.776 426.154L148.881 425.34L150.887 425.6C151.284 425.651 151.612 425.635 151.869 425.55C152.129 425.465 152.327 425.323 152.464 425.124C152.603 424.923 152.692 424.673 152.731 424.375C152.769 424.077 152.747 423.81 152.664 423.572C152.582 423.335 152.426 423.14 152.197 422.987C151.968 422.831 151.653 422.728 151.25 422.676L149.666 422.47L148.807 429.114L147.905 428.998ZM151.841 426.108L153.241 429.689L152.194 429.554L150.824 425.976L151.841 426.108Z" fill="white"/>
<path d="M204.055 436.273L205.017 428.829L209.509 429.412L209.406 430.211L205.815 429.746L205.49 432.261L208.848 432.697L208.745 433.496L205.387 433.061L205.059 435.591L208.709 436.064L208.605 436.863L204.055 436.273ZM210.172 437.066L211.134 429.622L213.649 429.949C214.231 430.024 214.695 430.185 215.043 430.432C215.391 430.677 215.632 430.983 215.767 431.35C215.901 431.718 215.941 432.121 215.884 432.559C215.827 432.998 215.687 433.375 215.464 433.691C215.241 434.007 214.931 434.238 214.536 434.384C214.14 434.527 213.654 434.561 213.077 434.487L211.042 434.223L211.147 433.409L213.154 433.669C213.551 433.72 213.878 433.704 214.136 433.619C214.395 433.534 214.594 433.392 214.73 433.193C214.87 432.992 214.958 432.742 214.997 432.444C215.036 432.146 215.013 431.878 214.931 431.641C214.848 431.404 214.692 431.209 214.463 431.056C214.235 430.9 213.919 430.797 213.517 430.744L211.932 430.539L211.073 437.183L210.172 437.066ZM214.108 434.177L215.507 437.758L214.461 437.623L213.09 434.045L214.108 434.177ZM216.718 437.915L217.681 430.471L220.196 430.797C220.778 430.873 221.242 431.034 221.59 431.281C221.937 431.526 222.179 431.832 222.313 432.199C222.448 432.566 222.487 432.969 222.431 433.408C222.374 433.847 222.234 434.224 222.011 434.54C221.788 434.856 221.478 435.087 221.082 435.233C220.687 435.376 220.201 435.41 219.624 435.335L217.589 435.072L217.694 434.257L219.7 434.517C220.098 434.569 220.425 434.552 220.682 434.467C220.942 434.383 221.14 434.241 221.277 434.042C221.416 433.841 221.505 433.591 221.544 433.293C221.582 432.995 221.56 432.727 221.478 432.49C221.395 432.252 221.239 432.057 221.01 431.904C220.781 431.749 220.466 431.645 220.064 431.593L218.479 431.388L217.62 438.032L216.718 437.915ZM220.655 435.026L222.054 438.607L221.007 438.471L219.637 434.894L220.655 435.026ZM230.027 435.856C229.926 436.642 229.696 437.302 229.339 437.837C228.981 438.372 228.535 438.762 228.001 439.009C227.467 439.255 226.882 439.336 226.247 439.254C225.612 439.172 225.068 438.944 224.613 438.569C224.159 438.195 223.827 437.704 223.618 437.095C223.408 436.486 223.354 435.79 223.456 435.004C223.557 434.219 223.787 433.559 224.144 433.024C224.502 432.489 224.948 432.098 225.482 431.852C226.016 431.606 226.601 431.524 227.236 431.607C227.871 431.689 228.415 431.917 228.869 432.291C229.324 432.666 229.655 433.157 229.865 433.766C230.075 434.374 230.129 435.071 230.027 435.856ZM229.155 435.743C229.238 435.099 229.201 434.541 229.042 434.069C228.886 433.598 228.64 433.225 228.304 432.95C227.97 432.675 227.577 432.508 227.127 432.45C226.676 432.391 226.253 432.452 225.858 432.633C225.465 432.813 225.132 433.111 224.859 433.527C224.588 433.943 224.411 434.473 224.328 435.117C224.245 435.762 224.281 436.32 224.437 436.791C224.595 437.262 224.841 437.636 225.175 437.91C225.512 438.186 225.905 438.352 226.356 438.411C226.807 438.469 227.229 438.408 227.621 438.228C228.017 438.047 228.35 437.749 228.62 437.333C228.893 436.918 229.071 436.388 229.155 435.743ZM231.061 439.775L232.024 432.331L234.539 432.657C235.121 432.732 235.585 432.894 235.933 433.141C236.28 433.385 236.522 433.691 236.656 434.059C236.791 434.426 236.83 434.829 236.774 435.268C236.717 435.706 236.577 436.084 236.354 436.4C236.131 436.716 235.821 436.946 235.425 437.092C235.03 437.236 234.544 437.27 233.967 437.195L231.932 436.931L232.037 436.117L234.043 436.377C234.441 436.429 234.768 436.412 235.025 436.327C235.285 436.242 235.483 436.101 235.62 435.902C235.759 435.7 235.848 435.451 235.887 435.153C235.925 434.855 235.903 434.587 235.821 434.349C235.738 434.112 235.582 433.917 235.353 433.764C235.124 433.609 234.809 433.505 234.407 433.453L232.822 433.247L231.963 439.892L231.061 439.775ZM234.998 436.885L236.397 440.467L235.35 440.331L233.98 436.753L234.998 436.885Z" fill="white"/>
<path d="M287.207 447.05L288.169 439.606L292.662 440.188L292.558 440.988L288.967 440.522L288.642 443.038L292.001 443.473L291.897 444.273L288.539 443.837L288.212 446.367L291.861 446.84L291.758 447.64L287.207 447.05ZM293.324 447.843L294.287 440.399L296.802 440.725C297.383 440.8 297.848 440.962 298.195 441.209C298.543 441.453 298.784 441.759 298.919 442.127C299.054 442.494 299.093 442.897 299.036 443.336C298.979 443.774 298.84 444.151 298.616 444.467C298.393 444.783 298.084 445.014 297.688 445.16C297.292 445.303 296.806 445.338 296.23 445.263L294.194 444.999L294.3 444.185L296.306 444.445C296.703 444.497 297.031 444.48 297.288 444.395C297.548 444.31 297.746 444.169 297.883 443.969C298.022 443.768 298.111 443.519 298.149 443.221C298.188 442.923 298.166 442.655 298.083 442.417C298.001 442.18 297.845 441.985 297.616 441.832C297.387 441.677 297.071 441.573 296.669 441.521L295.084 441.315L294.225 447.96L293.324 447.843ZM297.26 444.953L298.66 448.535L297.613 448.399L296.242 444.821L297.26 444.953ZM299.871 448.692L300.833 441.248L303.348 441.574C303.93 441.649 304.394 441.81 304.742 442.057C305.09 442.302 305.331 442.608 305.466 442.975C305.601 443.343 305.64 443.746 305.583 444.184C305.526 444.623 305.386 445 305.163 445.316C304.94 445.632 304.631 445.863 304.235 446.009C303.839 446.152 303.353 446.187 302.776 446.112L300.741 445.848L300.846 445.034L302.853 445.294C303.25 445.345 303.577 445.329 303.835 445.244C304.095 445.159 304.293 445.017 304.429 444.818C304.569 444.617 304.658 444.367 304.696 444.069C304.735 443.771 304.713 443.504 304.63 443.266C304.547 443.029 304.392 442.834 304.162 442.681C303.934 442.526 303.618 442.422 303.216 442.37L301.631 442.164L300.772 448.809L299.871 448.692ZM303.807 445.802L305.206 449.383L304.16 449.248L302.789 445.67L303.807 445.802ZM313.179 446.633C313.078 447.418 312.848 448.078 312.491 448.613C312.134 449.148 311.688 449.539 311.153 449.785C310.619 450.031 310.034 450.113 309.399 450.031C308.765 449.948 308.22 449.72 307.766 449.346C307.312 448.971 306.98 448.48 306.77 447.871C306.561 447.263 306.507 446.566 306.608 445.781C306.71 444.996 306.939 444.336 307.297 443.8C307.654 443.265 308.1 442.875 308.634 442.629C309.169 442.383 309.753 442.301 310.388 442.383C311.023 442.465 311.568 442.694 312.022 443.068C312.476 443.442 312.808 443.934 313.017 444.542C313.227 445.151 313.281 445.848 313.179 446.633ZM312.307 446.52C312.39 445.875 312.353 445.317 312.195 444.846C312.039 444.375 311.793 444.001 311.456 443.726C311.122 443.451 310.73 443.285 310.279 443.226C309.828 443.168 309.405 443.229 309.01 443.409C308.617 443.59 308.284 443.888 308.011 444.303C307.741 444.719 307.564 445.249 307.48 445.894C307.397 446.538 307.433 447.096 307.589 447.567C307.748 448.039 307.994 448.412 308.328 448.687C308.664 448.962 309.058 449.129 309.508 449.187C309.959 449.246 310.381 449.185 310.774 449.004C311.169 448.824 311.502 448.526 311.773 448.11C312.046 447.694 312.224 447.164 312.307 446.52ZM314.214 450.551L315.176 443.107L317.691 443.433C318.273 443.509 318.737 443.67 319.085 443.917C319.433 444.162 319.674 444.468 319.809 444.835C319.944 445.202 319.983 445.605 319.926 446.044C319.869 446.483 319.729 446.86 319.506 447.176C319.283 447.492 318.974 447.723 318.578 447.869C318.182 448.012 317.696 448.046 317.119 447.971L315.084 447.708L315.189 446.893L317.196 447.153C317.593 447.205 317.92 447.188 318.178 447.103C318.438 447.019 318.636 446.877 318.772 446.678C318.912 446.477 319.001 446.227 319.039 445.929C319.078 445.631 319.056 445.363 318.973 445.126C318.89 444.888 318.734 444.693 318.505 444.54C318.277 444.385 317.961 444.281 317.559 444.229L315.974 444.024L315.115 450.668L314.214 450.551ZM318.15 447.662L319.549 451.243L318.503 451.107L317.132 447.53L318.15 447.662Z" fill="white"/>
<path d="M370.361 457.828L371.324 450.384L375.816 450.967L375.713 451.766L372.122 451.301L371.797 453.816L375.155 454.251L375.052 455.051L371.693 454.615L371.366 457.145L375.015 457.618L374.912 458.418L370.361 457.828ZM376.478 458.621L377.441 451.177L379.956 451.503C380.537 451.579 381.002 451.74 381.349 451.987C381.697 452.232 381.938 452.538 382.073 452.905C382.208 453.272 382.247 453.675 382.19 454.114C382.134 454.552 381.994 454.93 381.771 455.246C381.547 455.562 381.238 455.793 380.842 455.938C380.447 456.082 379.961 456.116 379.384 456.041L377.349 455.777L377.454 454.963L379.46 455.223C379.858 455.275 380.185 455.258 380.442 455.173C380.702 455.089 380.9 454.947 381.037 454.748C381.176 454.547 381.265 454.297 381.304 453.999C381.342 453.701 381.32 453.433 381.237 453.196C381.155 452.958 380.999 452.763 380.77 452.61C380.541 452.455 380.226 452.351 379.823 452.299L378.239 452.094L377.38 458.738L376.478 458.621ZM380.414 455.731L381.814 459.313L380.767 459.177L379.397 455.599L380.414 455.731ZM383.025 459.47L383.988 452.026L386.503 452.352C387.084 452.427 387.549 452.589 387.896 452.836C388.244 453.08 388.485 453.386 388.62 453.754C388.755 454.121 388.794 454.524 388.737 454.963C388.681 455.401 388.541 455.779 388.317 456.095C388.094 456.411 387.785 456.641 387.389 456.787C386.994 456.931 386.507 456.965 385.931 456.89L383.895 456.626L384.001 455.812L386.007 456.072C386.404 456.124 386.732 456.107 386.989 456.022C387.249 455.938 387.447 455.796 387.584 455.597C387.723 455.395 387.812 455.146 387.85 454.848C387.889 454.55 387.867 454.282 387.784 454.045C387.702 453.807 387.546 453.612 387.317 453.459C387.088 453.304 386.772 453.2 386.37 453.148L384.786 452.942L383.927 459.587L383.025 459.47ZM386.961 456.58L388.361 460.162L387.314 460.026L385.944 456.448L386.961 456.58ZM396.334 457.411C396.232 458.196 396.003 458.856 395.645 459.391C395.288 459.927 394.842 460.317 394.308 460.563C393.773 460.809 393.189 460.891 392.554 460.809C391.919 460.727 391.374 460.498 390.92 460.124C390.466 459.75 390.134 459.258 389.924 458.65C389.715 458.041 389.661 457.344 389.762 456.559C389.864 455.774 390.093 455.114 390.451 454.579C390.808 454.044 391.254 453.653 391.789 453.407C392.323 453.161 392.908 453.079 393.542 453.161C394.177 453.244 394.722 453.472 395.176 453.846C395.63 454.22 395.962 454.712 396.172 455.32C396.381 455.929 396.435 456.626 396.334 457.411ZM395.461 457.298C395.545 456.653 395.507 456.095 395.349 455.624C395.193 455.153 394.947 454.78 394.61 454.505C394.276 454.23 393.884 454.063 393.433 454.005C392.983 453.946 392.56 454.007 392.164 454.187C391.771 454.368 391.439 454.666 391.166 455.082C390.895 455.497 390.718 456.028 390.635 456.672C390.551 457.317 390.588 457.875 390.744 458.346C390.902 458.817 391.148 459.19 391.482 459.465C391.818 459.74 392.212 459.907 392.663 459.966C393.113 460.024 393.535 459.963 393.928 459.782C394.323 459.602 394.656 459.304 394.927 458.888C395.2 458.473 395.378 457.943 395.461 457.298ZM397.368 461.33L398.331 453.886L400.846 454.212C401.427 454.287 401.892 454.448 402.239 454.695C402.587 454.94 402.828 455.246 402.963 455.613C403.098 455.981 403.137 456.384 403.08 456.822C403.024 457.261 402.884 457.638 402.66 457.954C402.437 458.27 402.128 458.501 401.732 458.647C401.337 458.79 400.85 458.825 400.274 458.75L398.238 458.486L398.344 457.672L400.35 457.932C400.747 457.983 401.075 457.967 401.332 457.882C401.592 457.797 401.79 457.655 401.927 457.456C402.066 457.255 402.155 457.005 402.193 456.707C402.232 456.409 402.21 456.142 402.127 455.904C402.045 455.667 401.889 455.472 401.66 455.319C401.431 455.163 401.115 455.06 400.713 455.008L399.129 454.802L398.27 461.446L397.368 461.33ZM401.304 458.44L402.704 462.021L401.657 461.886L400.287 458.308L401.304 458.44Z" fill="white"/>
<path d="M453.518 468.605L454.48 461.161L458.972 461.744L458.869 462.544L455.278 462.078L454.953 464.593L458.311 465.029L458.208 465.828L454.849 465.393L454.522 467.923L458.171 468.396L458.068 469.195L453.518 468.605ZM459.635 469.398L460.597 461.955L463.112 462.281C463.694 462.356 464.158 462.517 464.506 462.764C464.853 463.009 465.095 463.315 465.23 463.682C465.364 464.05 465.403 464.453 465.347 464.891C465.29 465.33 465.15 465.707 464.927 466.023C464.704 466.339 464.394 466.57 463.998 466.716C463.603 466.859 463.117 466.893 462.54 466.819L460.505 466.555L460.61 465.741L462.616 466.001C463.014 466.052 463.341 466.036 463.598 465.951C463.858 465.866 464.056 465.724 464.193 465.525C464.332 465.324 464.421 465.074 464.46 464.776C464.498 464.478 464.476 464.21 464.394 463.973C464.311 463.736 464.155 463.541 463.926 463.388C463.697 463.232 463.382 463.129 462.98 463.076L461.395 462.871L460.536 469.515L459.635 469.398ZM463.571 466.509L464.97 470.09L463.923 469.955L462.553 466.377L463.571 466.509ZM466.181 470.247L467.144 462.803L469.659 463.129C470.241 463.205 470.705 463.366 471.052 463.613C471.4 463.858 471.642 464.164 471.776 464.531C471.911 464.898 471.95 465.301 471.894 465.74C471.837 466.179 471.697 466.556 471.474 466.872C471.251 467.188 470.941 467.419 470.545 467.565C470.15 467.708 469.664 467.742 469.087 467.667L467.052 467.404L467.157 466.589L469.163 466.85C469.561 466.901 469.888 466.884 470.145 466.799C470.405 466.715 470.603 466.573 470.74 466.374C470.879 466.173 470.968 465.923 471.007 465.625C471.045 465.327 471.023 465.059 470.941 464.822C470.858 464.585 470.702 464.389 470.473 464.236C470.244 464.081 469.929 463.977 469.527 463.925L467.942 463.72L467.083 470.364L466.181 470.247ZM470.117 467.358L471.517 470.939L470.47 470.803L469.1 467.226L470.117 467.358ZM479.49 468.188C479.388 468.974 479.159 469.634 478.802 470.169C478.444 470.704 477.998 471.094 477.464 471.341C476.929 471.587 476.345 471.669 475.71 471.586C475.075 471.504 474.531 471.276 474.076 470.901C473.622 470.527 473.29 470.036 473.081 469.427C472.871 468.818 472.817 468.122 472.919 467.336C473.02 466.551 473.25 465.891 473.607 465.356C473.965 464.821 474.41 464.43 474.945 464.184C475.479 463.938 476.064 463.856 476.699 463.939C477.334 464.021 477.878 464.249 478.332 464.624C478.786 464.998 479.118 465.489 479.328 466.098C479.537 466.706 479.591 467.403 479.49 468.188ZM478.618 468.075C478.701 467.431 478.664 466.873 478.505 466.401C478.349 465.93 478.103 465.557 477.767 465.282C477.433 465.007 477.04 464.84 476.59 464.782C476.139 464.723 475.716 464.784 475.321 464.965C474.928 465.145 474.595 465.444 474.322 465.859C474.051 466.275 473.874 466.805 473.791 467.45C473.708 468.094 473.744 468.652 473.9 469.123C474.058 469.594 474.304 469.968 474.638 470.242C474.975 470.518 475.368 470.684 475.819 470.743C476.27 470.801 476.691 470.74 477.084 470.56C477.48 470.379 477.813 470.081 478.083 469.665C478.356 469.25 478.534 468.72 478.618 468.075ZM480.524 472.107L481.487 464.663L484.002 464.989C484.584 465.064 485.048 465.226 485.395 465.473C485.743 465.717 485.985 466.023 486.119 466.391C486.254 466.758 486.293 467.161 486.237 467.6C486.18 468.038 486.04 468.416 485.817 468.732C485.594 469.048 485.284 469.278 484.888 469.424C484.493 469.568 484.007 469.602 483.43 469.527L481.395 469.263L481.5 468.449L483.506 468.709C483.904 468.761 484.231 468.744 484.488 468.659C484.748 468.575 484.946 468.433 485.083 468.234C485.222 468.032 485.311 467.783 485.35 467.485C485.388 467.187 485.366 466.919 485.284 466.682C485.201 466.444 485.045 466.249 484.816 466.096C484.587 465.941 484.272 465.837 483.87 465.785L482.285 465.579L481.426 472.224L480.524 472.107ZM484.46 469.217L485.86 472.799L484.813 472.663L483.443 469.085L484.46 469.217Z" fill="white"/>
<path d="M536.674 479.384L537.636 471.94L542.129 472.522L542.025 473.322L538.434 472.856L538.109 475.371L541.467 475.807L541.364 476.607L538.006 476.171L537.679 478.701L541.328 479.174L541.224 479.974L536.674 479.384ZM542.791 480.177L543.753 472.733L546.268 473.059C546.85 473.134 547.314 473.296 547.662 473.543C548.01 473.787 548.251 474.093 548.386 474.461C548.521 474.828 548.56 475.231 548.503 475.67C548.446 476.108 548.306 476.485 548.083 476.801C547.86 477.117 547.551 477.348 547.155 477.494C546.759 477.637 546.273 477.672 545.696 477.597L543.661 477.333L543.766 476.519L545.773 476.779C546.17 476.831 546.497 476.814 546.755 476.729C547.015 476.644 547.213 476.503 547.349 476.303C547.489 476.102 547.578 475.853 547.616 475.555C547.655 475.256 547.633 474.989 547.55 474.751C547.467 474.514 547.311 474.319 547.082 474.166C546.854 474.011 546.538 473.907 546.136 473.855L544.551 473.649L543.692 480.294L542.791 480.177ZM546.727 477.287L548.126 480.869L547.08 480.733L545.709 477.155L546.727 477.287ZM549.338 481.026L550.3 473.582L552.815 473.908C553.397 473.983 553.861 474.144 554.209 474.391C554.557 474.636 554.798 474.942 554.933 475.309C555.067 475.677 555.106 476.08 555.05 476.518C554.993 476.957 554.853 477.334 554.63 477.65C554.407 477.966 554.097 478.197 553.702 478.343C553.306 478.486 552.82 478.521 552.243 478.446L550.208 478.182L550.313 477.368L552.319 477.628C552.717 477.679 553.044 477.663 553.302 477.578C553.561 477.493 553.76 477.351 553.896 477.152C554.035 476.951 554.124 476.701 554.163 476.403C554.201 476.105 554.179 475.838 554.097 475.6C554.014 475.363 553.858 475.168 553.629 475.015C553.4 474.859 553.085 474.756 552.683 474.704L551.098 474.498L550.239 481.142L549.338 481.026ZM553.274 478.136L554.673 481.717L553.626 481.582L552.256 478.004L553.274 478.136ZM562.646 478.967C562.545 479.752 562.315 480.412 561.958 480.947C561.6 481.482 561.154 481.873 560.62 482.119C560.086 482.365 559.501 482.447 558.866 482.365C558.231 482.282 557.687 482.054 557.233 481.68C556.778 481.305 556.447 480.814 556.237 480.205C556.027 479.597 555.973 478.9 556.075 478.115C556.176 477.33 556.406 476.67 556.763 476.134C557.121 475.599 557.567 475.209 558.101 474.963C558.635 474.717 559.22 474.635 559.855 474.717C560.49 474.799 561.034 475.028 561.489 475.402C561.943 475.776 562.275 476.268 562.484 476.876C562.694 477.485 562.748 478.182 562.646 478.967ZM561.774 478.854C561.857 478.209 561.82 477.651 561.661 477.18C561.506 476.709 561.259 476.335 560.923 476.06C560.589 475.785 560.197 475.619 559.746 475.56C559.295 475.502 558.872 475.563 558.477 475.743C558.084 475.924 557.751 476.222 557.478 476.637C557.207 477.053 557.031 477.583 556.947 478.228C556.864 478.872 556.9 479.43 557.056 479.901C557.214 480.373 557.461 480.746 557.795 481.021C558.131 481.296 558.525 481.463 558.975 481.521C559.426 481.58 559.848 481.519 560.241 481.338C560.636 481.158 560.969 480.86 561.239 480.444C561.512 480.028 561.691 479.498 561.774 478.854ZM563.681 482.885L564.643 475.441L567.158 475.767C567.74 475.843 568.204 476.004 568.552 476.251C568.899 476.496 569.141 476.802 569.276 477.169C569.41 477.536 569.449 477.939 569.393 478.378C569.336 478.817 569.196 479.194 568.973 479.51C568.75 479.826 568.44 480.057 568.045 480.203C567.649 480.346 567.163 480.38 566.586 480.305L564.551 480.042L564.656 479.227L566.662 479.487C567.06 479.539 567.387 479.522 567.645 479.437C567.904 479.353 568.103 479.211 568.239 479.012C568.378 478.811 568.467 478.561 568.506 478.263C568.544 477.965 568.522 477.697 568.44 477.46C568.357 477.222 568.201 477.027 567.972 476.874C567.743 476.719 567.428 476.615 567.026 476.563L565.441 476.358L564.582 483.002L563.681 482.885ZM567.617 479.996L569.016 483.577L567.969 483.441L566.599 479.864L567.617 479.996Z" fill="white"/>
<path d="M79.3847 297.246V288.377H73.1282C72.6536 286.441 71.8979 284.61 70.8786 282.956L75.3074 278.521L69.0333 272.238L64.6045 276.673C62.9525 275.652 61.1247 274.896 59.1915 274.421V268.155H50.3339V274.421C48.4007 274.896 46.5729 275.652 44.9209 276.673L40.4921 272.238L34.2355 278.521L38.6643 282.956C37.645 284.61 36.8893 286.441 36.4148 288.377H30.1582V297.246H36.4148C36.8893 299.182 37.645 301.013 38.6643 302.667L34.2355 307.102L40.4921 313.385L44.9209 308.95C46.5729 309.97 48.4007 310.727 50.3339 311.202V317.468H59.1915V311.202C61.1247 310.727 62.9525 309.97 64.6045 308.95L69.0333 313.385L75.2898 307.102L70.861 302.667C71.8804 301.013 72.6361 299.182 73.1106 297.246H79.3847ZM54.7803 299.182C51.2653 299.182 48.4182 296.331 48.4182 292.811C48.4182 289.292 51.2653 286.441 54.7803 286.441C58.2952 286.441 61.1423 289.292 61.1423 292.811C61.1423 296.331 58.2952 299.182 54.7803 299.182Z" fill="#D4E9FA"/>
<path d="M94.9718 261.099V254.992H90.666C90.3496 253.655 89.8224 252.405 89.1194 251.261L92.1598 248.216L87.854 243.905L84.8136 246.949C83.6713 246.245 82.4235 245.717 81.0878 245.401V241.106H75.007V245.418C73.6713 245.735 72.4235 246.263 71.2812 246.967L68.2408 243.922L63.935 248.234L66.9754 251.279C66.2724 252.423 65.7452 253.672 65.4288 255.01H61.123V261.116H65.4288C65.7452 262.454 66.2724 263.704 66.9754 264.847L63.935 267.892L68.2408 272.204L71.2812 269.159C72.4235 269.863 73.6713 270.391 75.007 270.708V275.02H81.1054V270.708C82.4411 270.391 83.6889 269.863 84.8312 269.159L87.8716 272.204L92.1774 267.892L89.137 264.847C89.84 263.704 90.3496 262.454 90.6836 261.116H94.9718V261.099ZM78.065 262.436C75.6397 262.436 73.6889 260.465 73.6889 258.054C73.6889 255.643 75.6573 253.672 78.065 253.672C80.4903 253.672 82.4411 255.643 82.4411 258.054C82.4411 260.465 80.4727 262.436 78.065 262.436Z" fill="#D4E9FA"/>
<path d="M668.239 211.575V205.468H663.934C663.617 204.13 663.09 202.881 662.387 201.737L665.427 198.692L661.122 194.38L658.081 197.425C656.939 196.721 655.691 196.193 654.355 195.876V191.564H648.257V195.876C646.921 196.193 645.674 196.721 644.531 197.425L641.491 194.38L637.185 198.692L640.225 201.737C639.522 202.881 638.995 204.13 638.679 205.468H634.373V211.575H638.679C638.995 212.912 639.522 214.162 640.225 215.305L637.185 218.35L641.491 222.662L644.531 219.617C645.674 220.321 646.921 220.832 648.257 221.166V225.478H654.355V221.166C655.691 220.849 656.939 220.321 658.081 219.617L661.122 222.662L665.427 218.35L662.387 215.305C663.09 214.162 663.6 212.912 663.934 211.575H668.239ZM651.333 212.912C648.907 212.912 646.956 210.941 646.956 208.53C646.956 206.101 648.925 204.148 651.333 204.148C653.758 204.148 655.709 206.119 655.709 208.53C655.709 210.941 653.74 212.912 651.333 212.912Z" fill="#D4E9FA"/>
<path d="M698.009 228.523V222.416H693.703C693.387 221.078 692.86 219.829 692.157 218.685L695.197 215.64L690.891 211.329L687.851 214.373C686.708 213.669 685.461 213.141 684.125 212.824V208.513H678.027V212.824C676.691 213.141 675.443 213.669 674.301 214.373L671.26 211.329L666.955 215.64L669.995 218.685C669.292 219.829 668.765 221.078 668.448 222.416H664.143V228.523H668.448C668.765 229.86 669.292 231.11 669.995 232.254L666.955 235.298L671.26 239.61L674.301 236.565C675.443 237.269 676.691 237.797 678.027 238.114V242.426H684.143V238.114C685.478 237.797 686.726 237.269 687.868 236.565L690.909 239.61L695.215 235.298L692.174 232.254C692.877 231.11 693.404 229.86 693.721 228.523H698.009ZM681.102 229.86C678.677 229.86 676.726 227.889 676.726 225.478C676.726 223.049 678.694 221.096 681.102 221.096C683.527 221.096 685.478 223.067 685.478 225.478C685.478 227.889 683.527 229.86 681.102 229.86Z" fill="#D4E9FA"/>
<path d="M504.269 567.694C504.269 567.694 498.927 595.342 497.046 605.074C496.08 609.984 495.253 615.369 494.726 620.895C492.336 646.572 484.041 689.637 484.041 689.637L482.283 689.444L473.654 688.511L476.976 624.978L478.118 602.733L479.928 568.327L500.93 553.386C500.93 553.386 504.006 558.278 504.269 567.694Z" fill="#FFB894"/>
<path opacity="0.5" d="M497.045 605.073C496.078 609.983 495.252 615.368 494.725 620.895C492.335 646.571 484.04 689.636 484.04 689.636L482.282 689.443L491.122 627.459L476.975 624.995L478.117 602.75C486.5 603.577 496.992 604.844 496.992 604.844C496.992 604.844 497.027 604.915 497.045 605.073Z" fill="#FFB894"/>
<path d="M483.284 694.705C484.462 694.863 485.956 693.402 486.166 692.241C486.325 691.343 486.377 690.428 486.307 689.531C486.272 689.091 486.202 688.633 485.938 688.281C485.604 687.859 485.042 687.7 484.514 687.612C481.123 687.067 477.555 688.598 474.356 687.331C474.919 686.116 475.024 684.691 474.673 683.406C474.532 682.896 474.304 682.386 473.882 682.086C472.898 681.382 471.58 682.122 470.56 682.738C466.694 685.113 462.054 686.187 457.537 685.765C456.518 685.659 455.481 685.483 454.462 685.571C453.443 685.659 452.37 686.046 451.755 686.856C451.14 687.665 451.088 688.968 451.843 689.672L483.284 694.705Z" fill="#3C8B24"/>
<path d="M485.445 548.916C485.445 548.916 478.644 560.848 478.011 567.799C477.378 574.751 474.197 621.001 474.197 621.001L495.955 623.342L507.941 546.874L485.445 548.916Z" fill="#F05956"/>
<path opacity="0.5" d="M485.338 622.163L502.174 583.674L495.971 623.324L485.338 622.163Z" fill="#F05956"/>
<path d="M572.361 665.545L570.146 668.695L566.368 674.116L521.605 646.274C518.354 644.25 516.069 640.994 515.226 637.263L512.045 626.739L509.619 618.714L505.349 596.117L502.677 582.002V581.967L500.797 572.006L504.277 567.73V567.712L517.071 551.979C517.071 551.979 522.431 559.124 522.712 579.134C522.73 579.257 522.73 579.38 522.73 579.521C522.818 585.593 526.139 602.364 529.057 618.696C529.83 623.026 530.568 627.901 531.271 633.004C550.814 647.576 572.361 665.545 572.361 665.545Z" fill="#FFB894"/>
<path opacity="0.5" d="M572.36 665.544L570.145 668.694C559.302 660.88 529.337 639.216 527.544 637.385C525.348 635.168 526.455 625.418 526.455 625.418L512.026 626.738L509.601 618.713L505.33 596.116L522.694 579.133C522.711 579.256 522.711 579.379 522.711 579.52C522.799 585.592 526.121 602.363 529.038 618.695C529.812 623.025 530.55 627.9 531.253 633.003C550.813 647.575 572.36 665.544 572.36 665.544Z" fill="#FFB894"/>
<path d="M576.351 668.87C577.124 667.972 576.702 665.931 575.824 665.121C575.156 664.505 574.418 663.978 573.627 663.538C573.24 663.326 572.818 663.133 572.379 663.186C571.834 663.238 571.395 663.626 571.043 664.03C568.759 666.6 568.126 670.419 565.332 672.443C564.611 671.316 563.486 670.454 562.203 670.067C561.711 669.908 561.149 669.838 560.674 670.032C559.567 670.489 559.462 671.985 559.444 673.182C559.356 677.722 557.774 682.21 554.98 685.783C554.347 686.592 553.644 687.367 553.17 688.282C552.695 689.197 552.449 690.288 552.801 691.274C553.152 692.242 554.224 692.981 555.226 692.717L576.351 668.87Z" fill="#3C8B24"/>
<path d="M530.901 620.702L525.998 621.512L524.258 621.811L509.302 624.275C509.302 624.275 500.04 578.852 498.792 571.988C497.562 565.125 500.392 547.561 500.392 547.561L519.952 545.766L530.901 620.702Z" fill="#F05956"/>
<g opacity="0.5">
<path d="M525.998 621.494L524.258 621.793L514.135 546.293L515.875 546.135L525.998 621.494Z" fill="#F05956"/>
</g>
<path d="M463.255 534.813L423.659 522.846C422.658 521.209 421.111 519.942 419.213 519.308C418.949 519.22 418.686 519.15 418.405 519.203C418.141 519.256 417.877 519.467 417.86 519.731C417.842 519.977 418 520.188 418.141 520.4C418.651 521.103 419.037 521.931 419.231 522.775C417.192 522.881 415.347 521.719 413.536 520.822C413.062 520.593 412.376 520.435 412.13 520.892C411.902 521.279 412.253 521.755 412.587 522.054C413.413 522.793 414.362 523.391 415.382 523.831C414.134 523.374 412.886 522.899 411.638 522.441C411.252 522.3 410.724 522.212 410.531 522.564C410.373 522.846 410.566 523.198 410.76 523.444C411.814 524.799 413.29 525.802 414.942 526.26C413.572 525.89 412.201 525.538 410.83 525.169C410.654 525.116 410.478 525.081 410.32 525.151C410.109 525.257 410.039 525.538 410.127 525.767C410.197 525.996 410.39 526.154 410.566 526.313C411.761 527.369 413.132 528.231 414.608 528.847C413.958 528.794 413.308 528.759 412.675 528.706C412.289 528.671 411.796 528.724 411.691 529.093C411.603 529.445 411.955 529.745 412.289 529.903C413.923 530.73 415.786 530.976 417.614 530.871C418.914 530.801 420.215 530.572 421.498 530.29L459.722 546.904C463.026 547.872 466.506 545.953 467.49 542.609C468.439 539.301 466.559 535.799 463.255 534.813Z" fill="#FFB894"/>
<path d="M434.677 525.187L431.303 536.133C431.303 536.133 461.795 549.491 463.798 549.579C465.274 549.649 482.884 530.466 492.093 520.329C496.364 515.63 496.54 508.292 492.128 503.716C489.826 501.34 490.424 497.327 486.839 500.266C477.735 507.728 459.563 532.631 459.563 532.631L434.677 525.187Z" fill="#3C8B24"/>
<path opacity="0.5" d="M482.22 531.118L479.162 513.325L477.527 536.169L482.22 531.118Z" fill="#3C8B24"/>
<path d="M505.134 495.78L502.304 498.315C500.424 500.796 496.821 501.131 494.536 499.019L491.689 496.414L490.846 480.135L502.181 479.097L505.134 495.78Z" fill="#FFB894"/>
<path d="M491.303 488.689C491.303 488.689 497.647 488.038 499.879 485.081C499.879 485.081 496.874 492.173 491.496 492.367L491.303 488.689Z" fill="#F29272"/>
<path d="M521.599 527.037C521.054 536.963 519.965 545.762 519.965 545.762L485.448 548.912C485.448 548.912 479.385 515.897 479.156 513.327C478.84 509.807 484.007 502.029 489.402 497.928C489.895 497.541 490.404 497.224 490.879 496.907C491.16 496.714 491.424 496.573 491.705 496.432C491.705 496.432 497.206 501.237 505.132 495.2C505.132 495.2 505.43 495.376 505.923 495.675C506.309 495.904 506.854 496.221 507.452 496.608C509.982 498.122 513.937 500.568 516.01 502.099C519.209 504.44 522.144 517.129 521.599 527.037Z" fill="#3C8B24"/>
<g opacity="0.5">
<path d="M512.843 516.124L511.096 516.313L514.338 546.286L516.085 546.096L512.843 516.124Z" fill="#3C8B24"/>
</g>
<g opacity="0.5">
<path d="M507.451 496.624C504.534 499.774 501.546 501.499 498.488 501.763C498.102 501.798 497.698 501.816 497.311 501.798C493.603 501.675 490.808 499.422 489.402 497.926C489.894 497.539 490.404 497.223 490.879 496.906C492.162 498.191 494.464 499.95 497.381 500.038C500.193 500.109 503.058 498.648 505.905 495.674C506.309 495.92 506.854 496.237 507.451 496.624Z" fill="#3C8B24"/>
</g>
<path d="M582.673 538.725L572.621 557.732L584.378 575.736L614.15 574.169L602.796 590.906L562.164 592.789L551.549 574.011L453.834 578.534L448.755 578.763L439.915 598.474L399.282 600.339L386.418 584.746L389.089 584.641L416.224 583.532L426.277 564.525L414.502 546.539L384.73 548.088L396.084 531.351L436.734 529.486L447.331 548.264L544.203 543.758L550.143 543.477L558.948 523.801L599.615 521.918L612.462 537.528L609.844 537.634L582.673 538.725Z" fill="#143C4A"/>
<path opacity="0.5" d="M453.832 578.535L448.736 578.781L439.896 598.474L399.263 600.34L386.398 584.747L389.07 584.642C392.971 588.073 403.551 596.574 411.53 595.676C421.495 594.515 446.556 585.891 449.122 568.714C450.845 557.24 452.866 568.081 453.832 578.535Z" fill="#143C4A"/>
<path opacity="0.5" d="M612.463 537.528L609.844 537.634C608.104 535.821 606.083 533.709 604.08 531.492C598.526 525.35 567.7 526.546 563.43 527.567C559.159 528.57 551.128 550.675 547.525 553.332C545.152 555.092 544.414 548.651 544.203 543.776L550.126 543.494L558.948 523.819L599.598 521.918L612.463 537.528Z" fill="#143C4A"/>
<path opacity="0.5" d="M447.33 548.246C447.769 552.927 452.058 556.288 456.715 555.567L530.001 544.409L447.33 548.246Z" fill="#143C4A"/>
<path d="M530.105 554.724C528.77 554.108 527.434 553.51 526.098 552.912C523.954 551.961 521.828 551.029 519.807 549.99L506.503 576.09L500.264 576.371C500.264 576.371 503.269 582.513 509.824 581.774C516.38 581.035 517.54 575.526 517.54 575.526L530.105 554.724Z" fill="#FFB894"/>
<path d="M536.239 529.733C531.565 522.623 521.916 508.491 514.605 501.681C510.51 505.605 506.468 509.6 502.988 514.088C503.111 514.246 503.217 514.422 503.357 514.581L524.324 537.952L512.777 561.693L524.113 566.41C532.268 553.562 535.941 545.115 537.61 540.099C538.788 536.597 538.243 532.796 536.239 529.733Z" fill="#3C8B24"/>
<path opacity="0.5" d="M508.736 520.545L521.109 534.325L520.67 539.235L508.736 520.545Z" fill="#3C8B24"/>
<path d="M506.521 471.355C506.047 471.056 505.59 471.003 505.168 471.056C504.852 469.56 504.377 468.152 503.92 466.867C503.34 465.266 502.022 464.104 500.44 463.805C496.574 463.048 489.333 461.5 484.729 465.6C483.709 466.515 483.147 467.888 483.164 469.331C483.217 471.865 483.129 473.977 483.569 478.254C483.727 479.855 483.955 481.386 484.201 482.759C484.641 485.047 485.221 486.842 486.012 487.599C489.14 490.591 499.825 488.074 503.885 481.351C504.482 480.366 504.904 479.345 505.168 478.324C507.663 476.775 508.226 472.411 506.521 471.355Z" fill="#FFB894"/>
<path d="M489.741 473.764C490.127 474.292 490.268 475.013 490.233 475.682C490.215 476.368 490.022 477.019 489.793 477.635C489.67 477.952 489.512 478.234 489.459 478.48C489.389 478.709 489.442 478.955 489.565 479.184C489.828 479.642 490.444 479.888 491.094 479.906C490.514 480.17 489.653 480.099 489.161 479.483C488.915 479.202 488.774 478.762 488.844 478.357C488.915 477.97 489.073 477.671 489.178 477.389C489.407 476.808 489.6 476.228 489.723 475.629C489.846 475.031 489.881 474.415 489.741 473.764Z" fill="#F29272"/>
<path d="M491.934 472.409C492.162 472.145 492.443 472.022 492.76 471.952C493.076 471.881 493.41 471.899 493.726 471.952C494.043 472.005 494.359 472.145 494.623 472.339C494.886 472.515 495.079 472.779 495.22 473.043C495.273 473.131 495.238 473.236 495.15 473.289C495.079 473.324 495.009 473.324 494.939 473.272L494.921 473.254C494.71 473.096 494.499 472.955 494.289 472.867C494.078 472.761 493.849 472.726 493.621 472.726C493.164 472.691 492.724 472.902 492.215 472.92H492.144C491.986 472.92 491.846 472.796 491.846 472.62C491.863 472.55 491.898 472.462 491.934 472.409Z" fill="#523329"/>
<path d="M488.262 473.289C487.752 473.377 487.295 473.236 486.856 473.36C486.645 473.412 486.417 473.483 486.223 473.623C486.03 473.747 485.854 473.923 485.661 474.116L485.643 474.134C485.573 474.204 485.45 474.204 485.38 474.134C485.327 474.081 485.309 474.011 485.327 473.94C485.432 473.659 485.555 473.377 485.801 473.148C486.012 472.92 486.294 472.708 486.61 472.603C486.909 472.497 487.243 472.427 487.559 472.427C487.875 472.444 488.174 472.515 488.455 472.726C488.578 472.832 488.613 473.025 488.508 473.148C488.455 473.219 488.385 473.254 488.315 473.254L488.262 473.289Z" fill="#523329"/>
<path d="M490.582 482.002C491.39 481.914 492.129 481.808 492.709 481.456C493.007 481.298 493.253 481.069 493.447 480.77C493.658 480.488 493.816 480.136 494.009 479.767C494.079 480.171 494.079 480.611 493.904 481.016C493.763 481.439 493.429 481.808 493.043 482.037C492.638 482.266 492.199 482.371 491.777 482.354C491.355 482.318 490.951 482.213 490.582 482.002Z" fill="#F29272"/>
<path d="M493.674 475.929C493.744 476.668 493.446 477.302 492.989 477.337C492.549 477.372 492.127 476.809 492.075 476.07C492.004 475.331 492.303 474.697 492.76 474.662C493.199 474.627 493.604 475.19 493.674 475.929Z" fill="#523329"/>
<path d="M487.996 476.457C488.067 477.196 487.768 477.83 487.311 477.865C486.871 477.9 486.45 477.337 486.397 476.598C486.327 475.859 486.625 475.225 487.082 475.19C487.522 475.155 487.926 475.718 487.996 476.457Z" fill="#523329"/>
<path d="M506.363 473.835C506.187 473.554 505.853 473.43 505.572 473.43C505.273 473.413 505.01 473.554 504.764 473.73C504.289 474.099 503.885 474.61 503.569 475.155C503.498 475.278 503.323 475.331 503.182 475.243C503.059 475.173 503.024 475.014 503.076 474.891C503.287 474.416 503.727 474.17 504.148 474.064C504.359 474.011 504.57 473.976 504.816 474.011C505.045 474.029 505.308 474.134 505.484 474.346C505.801 474.768 505.748 475.296 505.484 475.648C505.221 476 504.816 476.158 504.447 476.229C504.781 476.035 505.098 475.806 505.238 475.489C505.379 475.208 505.344 474.821 505.15 474.645C504.975 474.469 504.641 474.486 504.324 474.592C504.008 474.68 503.727 474.874 503.621 475.12L503.129 474.856C503.498 474.275 503.955 473.73 504.588 473.36C504.904 473.184 505.291 473.078 505.66 473.166C505.959 473.237 506.293 473.501 506.363 473.835Z" fill="#F29272"/>
<path d="M505.992 464.245C503.391 459.951 494.376 460.778 494.376 460.778C494.604 460.215 494.288 459.511 493.778 459.194C493.268 458.86 492.601 458.824 492.003 458.93C491.37 459.053 490.738 459.335 490.369 459.863C490.351 459.176 490.281 458.472 490.017 457.839C489.753 457.205 489.296 456.624 488.681 456.343C488.049 456.044 487.275 456.096 486.625 456.36C485.975 456.624 485.413 457.1 484.973 457.628C484.024 458.736 483.462 460.197 483.602 461.64C483.198 461.2 482.776 460.76 482.372 460.338C482.231 460.197 482.091 460.039 481.88 460.003C481.669 459.968 481.458 460.091 481.3 460.232C480.632 460.778 480.298 461.658 480.263 462.52C480.228 463.382 480.474 464.227 480.826 465.019C481.107 465.635 481.458 466.234 481.88 466.779C480.632 470.598 483.409 476.159 483.409 476.159C482.987 472.552 484.024 470.264 484.833 469.085C485.623 469.401 486.695 469.753 488.066 469.982C491.142 470.475 493.954 466.849 495.535 466.779C497.117 466.709 497.381 468.24 497.381 468.24C497.381 468.24 497.732 473.238 498.576 474.171C499.419 475.103 501.265 476.423 501.88 476.547C502.495 476.652 501.739 470.457 505.184 471.073C509.314 471.812 505.043 478.095 505.043 478.095L504.622 479.996C512.477 474.857 505.992 464.245 505.992 464.245Z" fill="#523329"/>
<path d="M169.633 649.139C167.014 647.643 164.308 646.13 161.619 644.546C150.617 658.537 141.531 670.804 141.531 670.804L149.387 677.72L174.536 652.061C172.902 651.075 171.285 650.09 169.633 649.139Z" fill="#E28758"/>
<path d="M139.651 672.528C138.808 671.701 139.036 669.624 139.827 668.744C140.425 668.075 141.128 667.459 141.883 666.966C142.253 666.72 142.657 666.491 143.096 666.491C143.641 666.491 144.115 666.843 144.502 667.213C147.015 669.571 147.999 673.32 150.952 675.08C151.567 673.883 152.622 672.932 153.852 672.422C154.326 672.228 154.871 672.088 155.381 672.246C156.523 672.598 156.769 674.076 156.892 675.273C157.384 679.778 159.388 684.108 162.498 687.416C163.201 688.173 163.975 688.877 164.537 689.74C165.1 690.602 165.433 691.675 165.187 692.679C164.924 693.682 163.922 694.509 162.92 694.333L139.651 672.528Z" fill="#143C4A"/>
<path d="M203.429 571.968C203.429 572.373 203.429 572.795 203.412 573.235C203.412 573.816 203.412 574.432 203.394 575.065C203.254 591.415 202.85 624.131 202.111 625.944C201.145 628.355 163.728 663.852 163.728 663.852L163.359 663.465L154.203 654.05L153.324 653.152L183.57 616.036L177.015 553.753L194.748 559.825L196.575 560.441L199.44 561.426C202.041 564.312 203.465 568.079 203.429 571.968Z" fill="#FF7900"/>
<g opacity="0.5">
<path d="M203.412 573.236C203.412 573.816 203.412 574.432 203.395 575.066C201.954 574.802 200.671 574.133 199.546 573.077C195.838 569.557 194.959 562.588 194.748 559.825L196.576 560.441C196.857 563.327 197.788 569.012 200.759 571.792C201.549 572.549 202.428 573.042 203.412 573.236Z" fill="#FF7900"/>
</g>
<path opacity="0.5" d="M181.127 619.045L180.283 647.995L188.772 639.741L182.304 617.584L181.127 619.045Z" fill="#FF7900"/>
<path opacity="0.5" d="M163.36 663.464L162.605 641.765L159.178 645.971L163.36 663.464Z" fill="#FF7900"/>
<path d="M169.631 649.14C167.329 647.82 164.974 646.482 162.602 645.109C163.691 667.319 165.87 689.74 165.87 689.74H178.436L179.069 654.736C175.976 652.835 172.812 650.97 169.631 649.14Z" fill="#E28758"/>
<path d="M166.206 695.161C165.029 695.126 163.781 693.454 163.764 692.258C163.746 691.342 163.851 690.445 164.062 689.565C164.168 689.143 164.308 688.703 164.642 688.403C165.047 688.034 165.627 687.963 166.154 687.981C169.598 687.999 172.85 690.075 176.224 689.371C175.873 688.087 175.996 686.661 176.558 685.447C176.769 684.972 177.085 684.514 177.56 684.268C178.632 683.74 179.827 684.672 180.723 685.464C184.15 688.439 188.544 690.251 193.078 690.568C194.115 690.638 195.152 690.638 196.154 690.885C197.155 691.131 198.14 691.694 198.614 692.61C199.106 693.525 198.93 694.809 198.069 695.373L166.206 695.161Z" fill="#143C4A"/>
<path d="M192.498 559.051L182.305 578.269L179.546 673.497H163.764C163.764 673.497 160.425 596.942 159.985 577.143C159.546 557.344 165.715 549.899 165.715 549.899L168.351 550.797L170.02 551.36L174.203 552.803L175.89 553.384L192.498 559.051Z" fill="#FF7900"/>
<path opacity="0.5" d="M175.89 553.383C175.258 556.656 173.781 561.795 170.653 564.03C169.599 564.769 168.456 565.139 167.226 565.139C167.015 565.139 166.804 565.086 166.611 565.069C166.101 568.219 165.75 571.668 165.697 575.276C165.539 586.011 167.296 634.303 168.245 660.244C168.509 667.512 168.667 671.402 168.667 673.496H166.98C166.892 671.12 166.716 666.298 166.506 660.297C165.539 634.338 163.782 586.029 163.94 575.258C164.098 564.506 166.875 555.09 168.351 550.796L170.021 551.359C169.159 553.858 167.859 558.117 166.91 563.362C167.894 563.432 168.79 563.186 169.616 562.587C172.323 560.651 173.641 555.794 174.203 552.802L175.89 553.383Z" fill="#FF7900"/>
<path d="M253.061 563.343L254.502 555.793L213.043 548.155C209.651 547.504 206.382 549.757 205.732 553.188C205.082 556.62 208.966 558.679 212.34 559.33L253.061 563.343Z" fill="#E28758"/>
<path d="M253.357 555.88C253.357 555.88 265.8 554.156 272.021 561.495C272.531 562.093 272.25 563.008 271.512 563.184C268.419 563.958 260.826 565.366 252.32 563.342L253.357 555.88Z" fill="#E28758"/>
<path d="M193.34 517.955L204.131 516.424C208.542 515.791 212.69 518.747 213.551 523.129L218.454 548.032L238.964 552.925L236.081 563.343C236.081 563.343 209.052 566.687 204.886 554.262C200.721 541.837 193.34 517.955 193.34 517.955Z" fill="#0F3340"/>
<path d="M192.195 504.178L200.438 511.394L205.429 508.085L210.069 492.457L199.295 488.779L192.195 504.178Z" fill="#E28758"/>
<path d="M207.625 500.659C207.625 500.659 201.615 498.529 200.139 495.133C200.139 495.133 201.404 502.736 206.571 504.196L207.625 500.659Z" fill="#C26144"/>
<path d="M214.024 528.129C213.022 531.314 199.437 561.426 199.437 561.426L165.711 549.899L174.041 518.062C175.43 512.8 179.191 508.488 184.199 506.412C185.904 505.708 187.521 505.127 188.857 504.687C189.612 504.423 190.28 504.212 190.825 504.036C191.774 503.754 192.354 503.613 192.354 503.613L200.649 510.231L205.43 508.083C205.711 508.365 206.01 508.664 206.273 508.963C206.695 509.403 207.082 509.861 207.468 510.336C212.6 516.725 214.902 525.313 214.024 528.129Z" fill="#143C4A"/>
<g opacity="0.5">
<path d="M207.469 510.336L199.666 514.049L188.857 504.686C189.613 504.422 190.281 504.211 190.826 504.035L199.965 511.972L206.274 508.963C206.696 509.403 207.082 509.86 207.469 510.336Z" fill="#143C4A"/>
</g>
<path d="M235.844 564.099L237.426 556.567L196.125 548.154C192.751 547.45 189.447 549.633 188.727 553.047C188.006 556.461 191.855 558.591 195.229 559.312L235.844 564.099Z" fill="#E28758"/>
<path d="M236.283 556.637C236.283 556.637 248.761 555.159 254.842 562.603C255.334 563.201 255.053 564.117 254.297 564.293C251.186 565.014 243.576 566.264 235.105 564.099L236.283 556.637Z" fill="#E28758"/>
<path d="M177.01 517.603L195.727 515.315L201.544 548.155L221.966 553.417L218.89 563.783C218.89 563.783 191.808 566.616 187.871 554.121C183.917 541.608 177.01 517.603 177.01 517.603Z" fill="#143C4A"/>
<path opacity="0.5" d="M178.734 523.552L187.135 551.745C187.117 551.763 170.79 541.432 178.734 523.552Z" fill="#143C4A"/>
<path d="M219.437 479.769C215.922 474.701 208.523 474.49 204.586 474.314C202.987 474.243 201.44 475.053 200.491 476.478C199.736 477.622 198.962 478.89 198.294 480.262C197.89 480.104 197.433 480.051 196.906 480.227C195.008 480.843 194.516 485.208 196.572 487.319C196.59 488.375 196.765 489.467 197.117 490.575C199.49 498.072 209.279 503.035 213.022 500.853C213.953 500.308 214.955 498.688 215.922 496.577C216.502 495.309 217.064 493.866 217.591 492.353C219.033 488.305 219.437 486.228 220.069 483.782C220.438 482.374 220.21 480.896 219.437 479.769Z" fill="#E28758"/>
<path d="M212.658 486.527C212.148 486.95 211.849 487.618 211.726 488.27C211.586 488.938 211.621 489.607 211.709 490.276C211.761 490.61 211.832 490.927 211.832 491.173C211.849 491.42 211.744 491.631 211.55 491.825C211.181 492.212 210.531 492.3 209.898 492.177C210.408 492.564 211.252 492.705 211.884 492.229C212.201 492.018 212.429 491.613 212.447 491.209C212.464 490.804 212.376 490.487 212.359 490.188C212.271 489.572 212.218 488.956 212.236 488.34C212.253 487.724 212.376 487.108 212.658 486.527Z" fill="#C26144"/>
<path d="M210.849 484.678C210.691 484.361 210.445 484.168 210.146 484.027C209.847 483.886 209.531 483.816 209.214 483.798C208.881 483.763 208.547 483.833 208.265 483.974C207.967 484.08 207.721 484.308 207.51 484.52C207.439 484.59 207.439 484.713 207.51 484.784C207.562 484.836 207.65 484.854 207.703 484.819H207.721C207.967 484.713 208.195 484.625 208.441 484.59C208.67 484.537 208.898 484.555 209.127 484.608C209.584 484.678 209.953 484.995 210.445 485.118L210.515 485.136C210.673 485.171 210.849 485.083 210.884 484.924C210.884 484.819 210.884 484.748 210.849 484.678Z" fill="#523329"/>
<path d="M214.221 486.385C214.695 486.578 215.17 486.561 215.574 486.79C215.767 486.895 215.961 487.018 216.119 487.194C216.277 487.37 216.418 487.581 216.541 487.81L216.558 487.828C216.611 487.916 216.717 487.951 216.804 487.898C216.875 487.863 216.91 487.793 216.892 487.722C216.857 487.423 216.804 487.106 216.629 486.842C216.47 486.561 216.26 486.297 215.978 486.121C215.715 485.945 215.398 485.804 215.1 485.734C214.783 485.663 214.467 485.681 214.151 485.822C213.992 485.892 213.94 486.068 213.992 486.226C214.028 486.297 214.08 486.35 214.151 486.385H214.221Z" fill="#523329"/>
<path d="M209.899 494.304C209.125 494.023 208.44 493.741 207.948 493.266C207.702 493.037 207.526 492.756 207.386 492.421C207.245 492.087 207.175 491.717 207.069 491.312C206.893 491.682 206.806 492.122 206.876 492.562C206.911 493.002 207.139 493.442 207.473 493.759C207.807 494.076 208.212 494.269 208.633 494.357C209.073 494.445 209.512 494.445 209.899 494.304Z" fill="#C26144"/>
<path d="M208.335 487.687C208.089 488.391 208.248 489.078 208.669 489.218C209.091 489.359 209.618 488.902 209.864 488.198C210.11 487.494 209.952 486.807 209.53 486.667C209.109 486.543 208.564 487.001 208.335 487.687Z" fill="#523329"/>
<path d="M213.728 489.536C213.482 490.24 213.64 490.927 214.062 491.068C214.484 491.208 215.011 490.751 215.257 490.047C215.503 489.343 215.345 488.656 214.923 488.516C214.501 488.375 213.956 488.832 213.728 489.536Z" fill="#523329"/>
<path d="M196.488 482.654C196.734 482.425 197.068 482.372 197.367 482.443C197.666 482.496 197.894 482.689 198.088 482.918C198.457 483.393 198.738 483.991 198.914 484.572C198.966 484.713 199.107 484.801 199.265 484.748C199.406 484.713 199.476 484.572 199.458 484.431C199.371 483.921 198.984 483.587 198.615 483.375C198.421 483.27 198.211 483.199 197.982 483.164C197.754 483.129 197.472 483.164 197.262 483.34C196.857 483.675 196.787 484.203 196.963 484.607C197.139 485.012 197.49 485.259 197.842 485.417C197.56 485.153 197.314 484.854 197.244 484.519C197.174 484.203 197.314 483.851 197.525 483.71C197.736 483.569 198.052 483.675 198.351 483.851C198.632 484.009 198.861 484.273 198.914 484.537L199.458 484.396C199.23 483.745 198.931 483.111 198.404 482.601C198.14 482.355 197.789 482.161 197.42 482.161C197.033 482.179 196.646 482.355 196.488 482.654Z" fill="#C26144"/>
<path d="M219.65 485.435C219.843 480.842 216.276 483.429 214.483 483.552C212.69 483.675 213.27 481.493 211.566 480.261C209.861 479.011 208.42 480.736 208.42 480.736C208.42 480.736 205.854 483.429 203.218 484.696C202.655 484.96 201.988 484.713 201.741 484.15C201.285 483.147 200.476 481.634 199.404 480.771C198.227 479.821 196.539 480.243 195.836 481.581C195.221 482.76 194.87 484.696 196.592 487.301C196.592 487.301 196.944 490.275 197.401 491.313C195.801 490.539 194.589 488.955 194.079 487.248C193.411 485.013 193.727 482.531 194.36 480.331C194.852 478.607 195.643 476.952 196.662 475.474C197.207 474.682 197.857 473.925 198.701 473.468C199.65 472.94 200.88 472.834 201.777 473.433C205.713 472.113 209.791 471.637 213.938 472.007C215.555 472.148 217.172 472.429 218.631 473.116C220.089 473.802 221.407 474.928 222.04 476.407C222.55 477.568 222.62 478.906 222.427 480.155C222.233 481.422 221.777 482.619 221.267 483.781C220.634 485.206 219.914 486.614 218.929 487.828L219.65 485.435Z" fill="#523329"/>
<path d="M323.857 695.414V568.807H317.864V695.414H323.857Z" fill="#4A330C"/>
<path opacity="0.5" d="M323.871 586.785V578.268H317.878V586.785H323.871Z" fill="#4A330C"/>
<path d="M264.246 695.413V568.806H258.253V695.413H264.246Z" fill="#4A330C"/>
<path opacity="0.5" d="M264.26 586.785V578.267H258.267V586.785H264.26Z" fill="#4A330C"/>
<path d="M232.301 695.406L232.301 568.799H226.308L226.308 695.406H232.301Z" fill="#7C5721"/>
<path opacity="0.5" d="M232.314 586.778V578.26H226.321V586.778H232.314Z" fill="#7C5721"/>
<path d="M291.914 695.408V568.801H285.921V695.408H291.914Z" fill="#7C5721"/>
<path opacity="0.5" d="M291.928 586.78V578.262H285.935V586.78H291.928Z" fill="#7C5721"/>
<path d="M323.863 568.798H226.324V578.266H323.863V568.798Z" fill="#7C5721"/>
<path opacity="0.5" d="M323.863 568.798H226.324V571.526H323.863V568.798Z" fill="#7C5721"/>
<path d="M283.71 564.839H238.824V568.799H283.71V564.839Z" fill="#1B5063"/>
<path d="M302.777 564.839H263.498V568.799H302.777V564.839Z" fill="#143C4A"/>
<path d="M302.725 564.839H263.445L266.767 539.919C266.872 539.056 267.61 538.423 268.472 538.423H304.289C305.326 538.423 306.134 539.338 305.993 540.376L302.725 564.839Z" fill="#143C4A"/>
<path d="M749.171 694.721H0V700H749.171V694.721Z" fill="#97D1E9"/>
</svg>
