<svg width="80" height="79" viewBox="0 0 80 79" fill="none" xmlns="http://www.w3.org/2000/svg">
<g id="Group 1171275935">
<g id="Group 1000007615">
<ellipse id="Ellipse 203" cx="40" cy="39.3732" rx="40" ry="39.3732" fill="#FF7900" fill-opacity="0.22"/>
</g>
<g id="Group 1171275926">
<g id="Clip path group">
<mask id="mask0_649_587" style="mask-type:luminance" maskUnits="userSpaceOnUse" x="14" y="25" width="54" height="40">
<g id="dee80b0122">
<path id="Vector" d="M14 25H67.1579V65H14V25Z" fill="white"/>
</g>
</mask>
<g mask="url(#mask0_649_587)">
<g id="Group">
<path id="Vector_2" d="M24.8008 52.5H23.1396V43.3333H24.8008V52.5ZM65.4971 54.1667C65.4971 54.6245 65.1243 55 64.6665 55H57.6161L51.1851 48.5471C50.9357 48.3004 50.8781 47.9084 51.0371 47.5795C52.0267 45.5455 52.3995 43.273 52.1144 41.0088C51.7992 38.4951 50.6424 36.2089 48.9538 34.4408L51.7224 31.6667H53.8688C54.3266 31.6667 54.6994 31.2911 54.6994 30.8333C54.6994 30.3728 54.3266 30 53.8688 30H51.377C51.1577 30 50.9466 30.0877 50.7904 30.244L47.723 33.3224C46.1002 32.0422 44.1511 31.176 42.0349 30.9211C38.4329 30.4879 34.905 31.6941 32.3611 34.2489C29.8145 36.801 28.6029 40.3399 29.0415 43.9583C29.1182 44.597 29.2526 45.222 29.4362 45.8333H28.9538C28.496 45.8333 28.1232 46.2061 28.1232 46.6667V52.5H26.462V42.5C26.462 42.0395 26.0892 41.6667 25.6314 41.6667H22.309C21.854 41.6667 21.4784 42.0395 21.4784 42.5V52.5H18.1588V29.1667H63.0053V52.5H59.6829C59.2252 52.5 58.8523 52.8728 58.8523 53.3333C58.8523 53.7911 59.2252 54.1667 59.6829 54.1667H63.8359C64.2937 54.1667 64.6665 53.7911 64.6665 53.3333V28.3333C64.6665 27.8728 64.2937 27.5 63.8359 27.5H17.3282C16.8704 27.5 16.4976 27.8728 16.4976 28.3333V53.3333C16.4976 53.7911 16.8704 54.1667 17.3282 54.1667H32.2761C32.7339 54.1667 33.1067 53.7911 33.1067 53.3333C33.1067 52.8728 32.7339 52.5 32.2761 52.5H29.7844V47.5H30.0859C31.7635 50.9923 35.1462 53.5691 39.0963 54.0707C41.3496 54.3586 43.6166 53.983 45.6451 52.9907C45.9768 52.8317 46.3633 52.892 46.61 53.1387L48.4604 55H16.4976C16.0398 55 15.667 54.6245 15.667 54.1667V27.5C15.667 27.0395 16.0398 26.6667 16.4976 26.6667H64.6665C65.1243 26.6667 65.4971 27.0395 65.4971 27.5V54.1667ZM58.4494 60.3043C58.1561 60.6332 57.7531 60.8196 57.3173 60.8333C56.8896 60.858 56.4702 60.6798 56.1632 60.3701L47.7833 51.9627C47.309 51.4857 46.6731 51.2363 46.0289 51.2363C45.6506 51.2363 45.2723 51.3213 44.9187 51.494C43.1835 52.3438 41.2427 52.6645 39.3019 52.4178C34.8529 51.8531 31.2317 48.2127 30.6917 43.7555C30.3162 40.6524 31.3523 37.6179 33.5344 35.4276C35.7136 33.2374 38.7317 32.1957 41.8348 32.5768C46.2756 33.1168 49.905 36.7489 50.4669 41.2171C50.7082 43.1606 50.3902 45.1096 49.5459 46.8503C49.0744 47.818 49.2635 48.972 50.0119 49.7259L58.2931 58.0345C58.9291 58.6732 59.0004 59.693 58.4494 60.3043ZM46.2125 63.3333H34.9488L36.2783 56.6667H44.883L46.2125 63.3333ZM64.6665 25H16.4976C15.1215 25 14.0059 26.1184 14.0059 27.5V54.1667C14.0059 55.5455 15.1215 56.6667 16.4976 56.6667H34.587L33.1232 64.0022C33.0738 64.2462 33.1369 64.5011 33.2959 64.693C33.4549 64.8849 33.6879 65 33.9373 65H47.2241C47.4762 65 47.7093 64.8849 47.8682 64.693C48.0272 64.5011 48.0875 64.2462 48.0382 64.0022L46.5771 56.6667H50.1215L54.9872 61.5488C55.593 62.1546 56.4236 62.5 57.2789 62.5C57.3036 62.5 57.3337 62.5 57.3611 62.4945C58.2548 62.4726 59.0826 62.0916 59.6857 61.42C60.8343 60.1398 60.7411 58.1332 59.4691 56.8586L59.2772 56.6667H64.6665C66.0426 56.6667 67.1583 55.5455 67.1583 54.1667V27.5C67.1583 26.1184 66.0426 25 64.6665 25Z" fill="#FF7900"/>
</g>
</g>
</g>
<path id="Vector_3" d="M46.3908 45.7176V43.3327C46.3908 42.8722 46.018 42.4993 45.5602 42.4993H42.2405C41.7828 42.4993 41.41 42.8722 41.41 43.3327V49.1057C41.1358 49.1413 40.8617 49.166 40.5794 49.166C40.297 49.166 40.0201 49.1413 39.7488 49.1057V41.666C39.7488 41.2055 39.376 40.8327 38.9182 40.8327H35.5958C35.138 40.8327 34.7652 41.2055 34.7652 41.666V45.7176C34.2362 44.7636 33.9346 43.6671 33.9346 42.4993C33.9346 38.8234 36.9171 35.8327 40.5794 35.8327C41.8979 35.8327 43.126 36.2219 44.1594 36.8935L41.6512 39.41C41.3277 39.7334 41.3277 40.2625 41.6512 40.586C41.8157 40.7504 42.0267 40.8327 42.2405 40.8327C42.4544 40.8327 42.6654 40.7504 42.8272 40.586L45.4396 37.9681C46.5415 39.1578 47.2214 40.7477 47.2214 42.4993C47.2214 43.6671 46.9198 44.7636 46.3908 45.7176ZM44.7323 47.694C44.2307 48.0969 43.6742 48.4286 43.0711 48.6726V44.166H44.7323V47.694ZM38.0876 48.6726C37.4845 48.4286 36.9253 48.0969 36.4264 47.694V42.4993H38.0876V48.6726ZM40.5794 34.166C35.9988 34.166 32.2734 37.9023 32.2734 42.4993C32.2734 47.0936 35.9988 50.8327 40.5794 50.8327C45.16 50.8327 48.8825 47.0936 48.8825 42.4993C48.8825 37.9023 45.16 34.166 40.5794 34.166Z" fill="#FF7900"/>
<path id="Vector_4" d="M23.9679 38.3324C23.3649 38.3324 22.7892 38.1706 22.2821 37.8718L24.4422 35.7008L27.2519 34.4919C27.2766 34.6591 27.2903 34.8291 27.2903 34.999C27.2903 36.8356 25.8018 38.3324 23.9679 38.3324ZM23.1373 31.7726V34.6536L21.1033 36.6904C20.8045 36.1832 20.6456 35.6021 20.6456 34.999C20.6456 33.4475 21.7064 32.1399 23.1373 31.7726ZM26.5968 32.9596L24.7985 33.7353V31.7726C25.514 31.9535 26.1445 32.3729 26.5968 32.9596ZM23.9679 29.999C21.2212 29.999 18.9844 32.2413 18.9844 34.999C18.9844 36.3313 19.5052 37.5895 20.4454 38.5325C21.3857 39.4782 22.6384 39.999 23.9679 39.999C26.7174 39.999 28.9515 37.754 28.9515 34.999C28.9515 34.3165 28.8144 33.6531 28.5485 33.0281C27.7618 31.186 25.9635 29.999 23.9679 29.999Z" fill="#FF7900"/>
<path id="Vector_5" d="M57.188 31.6657H61.341C61.7988 31.6657 62.1716 31.2901 62.1716 30.8324C62.1716 30.3718 61.7988 29.999 61.341 29.999H57.188C56.7302 29.999 56.3574 30.3718 56.3574 30.8324C56.3574 31.2901 56.7302 31.6657 57.188 31.6657Z" fill="#FF7900"/>
<path id="Vector_6" d="M62.1722 34.1673C62.1722 33.7068 61.7994 33.334 61.3416 33.334H53.0357C52.5779 33.334 52.2051 33.7068 52.2051 34.1673C52.2051 34.6251 52.5779 35.0007 53.0357 35.0007H61.3416C61.7994 35.0007 62.1722 34.6251 62.1722 34.1673Z" fill="#FF7900"/>
<path id="Vector_7" d="M54.6958 38.3337H59.6794C60.1372 38.3337 60.51 37.9581 60.51 37.5003C60.51 37.0398 60.1372 36.667 59.6794 36.667H54.6958C54.238 36.667 53.8652 37.0398 53.8652 37.5003C53.8652 37.9581 54.238 38.3337 54.6958 38.3337Z" fill="#FF7900"/>
<path id="Vector_8" d="M61.3406 39.999H54.6958C54.238 39.999 53.8652 40.3718 53.8652 40.8324C53.8652 41.2901 54.238 41.6657 54.6958 41.6657H61.3406C61.7983 41.6657 62.1712 41.2901 62.1712 40.8324C62.1712 40.3718 61.7983 39.999 61.3406 39.999Z" fill="#FF7900"/>
<path id="Vector_9" d="M61.3415 43.333H56.3579C55.9002 43.333 55.5273 43.7058 55.5273 44.1663C55.5273 44.6241 55.9002 44.9997 56.3579 44.9997H61.3415C61.7993 44.9997 62.1721 44.6241 62.1721 44.1663C62.1721 43.7058 61.7993 43.333 61.3415 43.333Z" fill="#FF7900"/>
<path id="Vector_10" d="M60.51 47.4993C60.51 47.0388 60.1372 46.666 59.6794 46.666H54.6958C54.238 46.666 53.8652 47.0388 53.8652 47.4993C53.8652 47.9571 54.238 48.3327 54.6958 48.3327H59.6794C60.1372 48.3327 60.51 47.9571 60.51 47.4993Z" fill="#FF7900"/>
<path id="Vector_11" d="M62.1721 50.8324C62.1721 50.3718 61.7993 49.999 61.3415 49.999H56.3579C55.9002 49.999 55.5273 50.3718 55.5273 50.8324C55.5273 51.2901 55.9002 51.6657 56.3579 51.6657H61.3415C61.7993 51.6657 62.1721 51.2901 62.1721 50.8324Z" fill="#FF7900"/>
</g>
</g>
</svg>
