<svg width="205" height="205" viewBox="0 0 205 205" fill="none" xmlns="http://www.w3.org/2000/svg">
<circle cx="102.5" cy="102.5" r="102.5" fill="#FFDE17"/>
<path d="M147.546 126.098H143.258V121.806H138.965V126.098H134.677C132.314 126.098 130.385 128.024 130.385 130.386V138.967C130.385 141.333 132.314 143.259 134.677 143.259H147.546V151.84H134.677V147.551H130.385V151.84C130.385 154.202 132.314 156.132 134.677 156.132H138.965V160.42H143.258V156.132H147.546C149.908 156.132 151.838 154.202 151.838 151.84V143.259C151.838 140.896 149.908 138.967 147.546 138.967H134.677V130.386H147.546V134.678H151.838V130.386C151.838 128.024 149.908 126.098 147.546 126.098Z" fill="#FF7900"/>
<mask id="mask0_649_124" style="mask-type:luminance" maskUnits="userSpaceOnUse" x="36" y="36" width="133" height="133">
<path d="M36 36H169V169H36V36Z" fill="white"/>
</mask>
<g mask="url(#mask0_649_124)">
<path d="M141.11 164.712C128.097 164.712 117.517 154.127 117.517 141.114C117.517 128.101 128.097 117.517 141.11 117.517C154.127 117.517 164.708 128.101 164.708 141.114C164.708 154.127 154.127 164.712 141.11 164.712ZM119.987 122.956L115.905 117.517L121.805 109.65V104.644H117.517V108.223L113.225 113.938L108.936 108.223V104.644H104.644V109.65L110.544 117.517L104.644 125.384V130.386H108.936V126.811L113.225 121.096L117.348 126.592C114.75 130.831 113.225 135.791 113.225 141.114C113.225 143.333 113.509 145.481 114.004 147.551H48.8687V87.4831H134.678V114.004C128.868 115.389 123.76 118.572 119.987 122.956ZM46.7246 156.131C43.1704 156.131 40.2882 153.245 40.2882 149.695V78.9026H143.258V113.336C142.545 113.286 141.84 113.225 141.11 113.225C140.385 113.225 139.679 113.286 138.966 113.336V87.4831C138.966 85.1204 137.041 83.1949 134.678 83.1949H48.8687C46.5061 83.1949 44.5805 85.1204 44.5805 87.4831V147.551C44.5805 149.913 46.5061 151.839 48.8687 151.839H115.377C116.008 153.348 116.779 154.771 117.649 156.131H46.7246ZM42.4364 53.161H57.4492V61.7415C57.4492 64.1042 59.3789 66.0339 61.7415 66.0339H70.322C72.6847 66.0339 74.6102 64.1042 74.6102 61.7415V53.161H83.1908V61.7415C83.1908 64.1042 85.1204 66.0339 87.4831 66.0339H96.0636C98.4262 66.0339 100.356 64.1042 100.356 61.7415V53.161H108.936V61.7415C108.936 64.1042 110.862 66.0339 113.225 66.0339H121.805C124.168 66.0339 126.097 64.1042 126.097 61.7415V53.161H141.11C142.294 53.161 143.258 54.1259 143.258 55.3051V74.6144H40.2882V55.3051C40.2882 54.1259 41.253 53.161 42.4364 53.161ZM61.7415 40.2923H70.322V61.7415H61.7415V40.2923ZM87.4831 40.2923H96.0636V61.7415H87.4831V40.2923ZM113.225 40.2923H121.805V61.7415H113.225V40.2923ZM147.547 114.004V55.3051C147.547 51.755 144.664 48.8728 141.11 48.8728H126.097V40.2923C126.097 37.9297 124.168 36 121.805 36H113.225C110.862 36 108.936 37.9297 108.936 40.2923V48.8728H100.356V40.2923C100.356 37.9297 98.4262 36 96.0636 36H87.4831C85.1204 36 83.1908 37.9297 83.1908 40.2923V48.8728H74.6102V40.2923C74.6102 37.9297 72.6847 36 70.322 36H61.7415C59.3789 36 57.4492 37.9297 57.4492 40.2923V48.8728H42.4364C38.8822 48.8728 36 51.755 36 55.3051V149.695C36 155.612 40.8077 160.419 46.7246 160.419H121.034C126.114 165.697 133.227 169 141.11 169C156.49 169 169 156.49 169 141.114C169 127.957 159.822 116.923 147.547 114.004Z" fill="#FF7900"/>
</g>
<path d="M92.242 108.937L95.4622 121.806H88.0857L91.306 108.937H92.242ZM87.9538 104.645L83.2615 123.434L83.1914 130.386H87.4837V126.098H96.0642V130.386H100.357V123.954L95.5942 104.645H87.9538Z" fill="#FF7900"/>
<path d="M83.1895 108.937V104.645H61.7402V108.937H70.3207V130.386H74.6089V108.937H83.1895Z" fill="#FF7900"/>
</svg>
