<svg id="Layer_1" data-name="Layer 1" xmlns="http://www.w3.org/2000/svg" viewBox="0 0 331.65 119.32"><defs><style>.cls-1,.cls-5{fill:#1a2b46;}.cls-2{fill:#fff;}.cls-3{fill:#bb852c;}.cls-4{fill:none;stroke:#1a2b46;stroke-miterlimit:10;}.cls-5{font-size:11.11px;font-family:Consolas;}</style></defs><path class="cls-1" d="M307.32,134.16c-2,8.77-3.48,16.29-4.56,22.2-1.14,6.23-1.84,10.76-2.4,14.4-.86,5.59-1.3,8.45-1.56,11.52a96.27,96.27,0,0,0-.12,14.64h-18.6l.72-10.68a25.48,25.48,0,0,1-13.08,11.28,20.26,20.26,0,0,1-12.36,1c-8.93-2.33-12.63-10.6-13.08-11.64a24.22,24.22,0,0,1-1.68-8.52A40.31,40.31,0,0,1,242,164.88c1.12-4.48,2.52-10.06,6.84-16a40.34,40.34,0,0,1,12.84-11.16A48.81,48.81,0,0,1,277.08,132a54.46,54.46,0,0,1,16.32-.48A72,72,0,0,1,307.32,134.16Z" transform="translate(-119.88 -107.63)"/><path class="cls-2" d="M284.88,146.52a23.3,23.3,0,0,0-15.24,4.68,24,24,0,0,0-7.2,10,30,30,0,0,0-2.28,11.4,12.27,12.27,0,0,0,.72,5.64,8,8,0,0,0,3.72,4.44c2.92,1.36,6-.14,7-.6,1.16-.56,3.55-2,6.48-7.56a45,45,0,0,0,4-11.16A139,139,0,0,0,284.88,146.52Z" transform="translate(-119.88 -107.63)"/><path class="cls-1" d="M314,132.72l17.64-.36-.72,9a45.49,45.49,0,0,1,6.72-5.4,26.88,26.88,0,0,1,6.84-3.6,23.42,23.42,0,0,1,8.52-1.08c2.78.11,5.83.23,9,2a15.82,15.82,0,0,1,6.24,6.84c1.84,3.76,1.69,7.2,0,19.56-1.25,9.12-1.8,12.36-1.8,12.36-1.21,7.13-2.62,15.3-4.2,24.36H341.4c1.31-4.74,2.33-8.92,3.12-12.36,1-4.39,1.66-7.78,1.92-9.12.77-4,1.24-7,1.56-9,0,0,.41-2.57,1-7,.62-4.88.7-6.47-.12-8.28a6.35,6.35,0,0,0-2.64-3.12,7,7,0,0,0-5.64-.12c-1,.36-2.39,1.05-4.56,3.48a29.44,29.44,0,0,0-4.92,7.56c-1.16,2.65-2.14,5.62-3.6,13.32-1.34,7-1.43,9.4-3,18.12-.49,2.73-.92,4.95-1.2,6.36l-19.56.12c1.74-9.5,3.11-17,4-21.6,2.43-13.19,3.11-16.79,4-22.44C312.91,144,313.64,137.08,314,132.72Z" transform="translate(-119.88 -107.63)"/><path class="cls-1" d="M402.12,112.2A24,24,0,0,1,412,108a24.65,24.65,0,0,1,11.76.84,29.42,29.42,0,0,1,13.44,8.76,35.44,35.44,0,0,1,7.8,15c1.63,5.63,1.71,10.15,1.8,15.48a72.91,72.91,0,0,1-.84,12.84,62.11,62.11,0,0,1-8.4,22.8,61.89,61.89,0,0,1-9,12.24,45.61,45.61,0,0,1-10.32,8.4,29.5,29.5,0,0,1-9.12,3.84,22.91,22.91,0,0,1-9.84.24,21.94,21.94,0,0,1-6.84-2.64l40.92-50Z" transform="translate(-119.88 -107.63)"/><path class="cls-3" d="M390.6,122.28a67.08,67.08,0,0,0-9.24,13.8,69.33,69.33,0,0,0-4.56,11.76,75.67,75.67,0,0,0-2.4,12.36,56.43,56.43,0,0,0-.6,9.48,52.24,52.24,0,0,0,1,8.4,58.08,58.08,0,0,0,2.64,9c1.1,3.06,2.21,5.62,3.12,7.56l25.08-36.72Z" transform="translate(-119.88 -107.63)"/><circle class="cls-4" cx="325.46" cy="85.28" r="5.69"/><text class="cls-5" transform="translate(322.45 88.69) scale(0.99 1)">R</text><path class="cls-1" d="M136.2,110.64l-16.32,86.88,19.17.09,6.12-34a20.48,20.48,0,0,1,10.44,0,11.78,11.78,0,0,1,4.23,2.07,11.12,11.12,0,0,1,3,3.87,14.55,14.55,0,0,1,1.4,5.06c.65,5.74.87,11.64.94,13.93l-.09,9.45,20.43.09a130,130,0,0,0,0-13.77,68.37,68.37,0,0,0-1.17-10.53,39.59,39.59,0,0,0-2.61-8.64,35.47,35.47,0,0,0-5.31-8.46q1.6-1,3.24-2.07A82.52,82.52,0,0,0,192,144.42c.62,3.35,1.58,8.42,2.88,14.58,1.21,5.71,2,8.76,3.06,13.77,1.06,4.76,2.52,11.6,4.14,20.07a44.4,44.4,0,0,1-7.29,8.64,36.86,36.86,0,0,1-7.2,5.31,35.4,35.4,0,0,1-6.93,3L185.4,227a47.76,47.76,0,0,0,11.25-4.59,49.62,49.62,0,0,0,9.36-6.93c1.33-1.2,5.3-4.91,10.89-12.87a127.38,127.38,0,0,0,8.1-13.14c5.43-10.19,15.6-30.39,28.26-56.7h-21.6l-16,40.95-6-40.32-15.21-.09a19.29,19.29,0,0,0-2.61-13.14c-2.74-4.23-6.63-6.06-9.9-7.56a36.85,36.85,0,0,0-14.13-3.15A187.76,187.76,0,0,0,136.2,110.64Z" transform="translate(-119.88 -107.63)"/><path class="cls-2" d="M153.72,124.68l-5.28,23.4a36,36,0,0,0,10.2.48c3.94-.37,7.39-.7,10.8-3.12,1.3-.92,5.43-3.86,6-9,.5-4.53-1.9-9.53-5.64-11.16a8.49,8.49,0,0,0-3.12-.6A101.56,101.56,0,0,0,153.72,124.68Z" transform="translate(-119.88 -107.63)"/></svg>