<svg width="205" height="205" viewBox="0 0 205 205" fill="none" xmlns="http://www.w3.org/2000/svg">
<circle cx="102.5" cy="102.5" r="102.5" fill="#FFDE17"/>
<path d="M104.942 97.7993V86.7747C106.284 87.1995 107.833 88.1683 107.864 90.453C107.884 91.8777 108.972 93.0227 110.475 92.9968C111.899 92.9812 113.034 91.8052 113.013 90.3805C112.951 85.7437 109.744 82.3192 104.942 81.4903V78.5683C104.942 77.1436 103.786 75.9883 102.362 75.9883C100.937 75.9883 99.7868 77.1436 99.7868 78.5683V81.625C95.8028 82.5679 92.1814 85.4018 91.4509 90.1473C91.0054 94.4422 92.1763 99.7836 99.7868 101.954V113.093C97.3829 112.342 95.9375 110.425 95.7303 107.56C95.6266 106.14 94.3729 105.073 92.9741 105.172C91.5546 105.275 90.4873 106.513 90.5909 107.933C90.995 113.487 94.5853 117.44 99.7868 118.388V121.569C99.7868 122.993 100.937 124.149 102.362 124.149C103.786 124.149 104.942 122.993 104.942 121.569V118.388C110.356 117.466 113.956 113.715 113.967 108.617C113.967 105.296 112.702 99.7473 104.942 97.7993ZM99.7868 96.4886C96.6835 95.1468 96.3416 92.9657 96.5592 90.8105C96.8441 88.9609 98.16 87.7176 99.7868 87.0441V96.4886ZM104.942 113.088V103.203C108.242 104.426 108.812 106.565 108.812 108.612C108.812 111.145 107.04 112.502 104.942 113.088Z" fill="#FF7900"/>
<path d="M102.361 65.6689C83.4455 65.6689 68.0586 81.1025 68.0586 100.069C68.0586 119.036 83.4455 134.464 102.361 134.464C121.276 134.464 136.662 119.036 136.662 100.069C136.662 81.1025 121.276 65.6689 102.361 65.6689ZM102.361 129.299C86.2897 129.299 73.2135 116.187 73.2135 100.069C73.2135 83.9519 86.2897 70.8394 102.361 70.8394C118.436 70.8394 131.513 83.9519 131.513 100.069C131.513 116.187 118.436 129.299 102.361 129.299Z" fill="#FF7900"/>
<path d="M156.61 87.79H147.44C146.352 83.7231 144.73 79.8479 142.59 76.2266L149.087 70.4344C149.605 69.9682 149.916 69.3102 149.947 68.6056C149.973 67.9062 149.719 67.2224 149.232 66.7198L136.146 52.9856C135.182 51.9805 133.602 51.9183 132.571 52.8457L125.354 59.2802C121.971 57.3685 118.381 55.9024 114.635 54.8921V45.6962C114.635 44.2715 113.485 43.1162 112.06 43.1162H93.1243C91.7048 43.1162 90.5495 44.2715 90.5495 45.6962V54.8921C86.7727 55.9075 83.1565 57.3944 79.7476 59.3217L72.5463 52.8975C71.5101 51.9805 69.9248 52.0427 68.9664 53.0478L55.8953 66.782C55.4135 67.2897 55.1596 67.9684 55.1855 68.6678C55.2114 69.3672 55.5274 70.0252 56.0455 70.4914L62.5474 76.2991C60.4285 79.9049 58.8224 83.7542 57.7448 87.79H48.5748C47.1501 87.79 46 88.9454 46 90.3701V109.358C46 110.788 47.1501 111.943 48.5748 111.943H57.7448C58.7706 115.792 60.2886 119.486 62.2728 122.962L55.7088 128.817C55.1907 129.283 54.8799 129.941 54.8488 130.635C54.8229 131.329 55.0715 132.013 55.5482 132.521L68.5312 146.338C69.4896 147.364 71.0853 147.421 72.1163 146.499L79.2709 140.121C82.8094 142.188 86.5914 143.768 90.5495 144.836V154.031C90.5495 155.461 91.6996 156.617 93.1243 156.617H112.06C113.48 156.617 114.635 155.461 114.635 154.031V144.836C117.863 143.965 120.992 142.748 123.981 141.188L131.369 147.783C132.395 148.695 133.949 148.654 134.918 147.669L148.253 134.158C148.75 133.655 149.02 132.966 148.994 132.257C148.973 131.552 148.662 130.884 148.134 130.412L141.813 124.776C144.341 120.792 146.227 116.486 147.44 111.943H156.61C158.034 111.943 159.184 110.788 159.184 109.358V90.3701C159.184 88.9454 158.034 87.79 156.61 87.79ZM154.035 106.772H145.414C144.207 106.772 143.16 107.622 142.901 108.803C141.72 114.181 139.508 119.196 136.322 123.714C135.565 124.786 135.731 126.262 136.71 127.138L142.678 132.459L132.97 142.297L126.053 136.122C125.224 135.381 124.022 135.251 123.064 135.811C119.427 137.888 115.542 139.391 111.506 140.282C110.325 140.541 109.485 141.592 109.485 142.805V151.451H95.7044V142.805C95.7044 141.592 94.8599 140.546 93.6839 140.282C88.9383 139.235 84.4621 137.37 80.3796 134.743C79.4005 134.117 78.1364 134.22 77.2763 134.987L70.5672 140.971L61.1175 130.91L67.3034 125.397C68.2463 124.553 68.4431 123.149 67.7593 122.076C65.1533 117.978 63.3142 113.513 62.2832 108.803C62.0241 107.617 60.9776 106.772 59.7705 106.772H51.1497V92.9553H59.7705C60.9776 92.9553 62.0241 92.1108 62.2832 90.9244C63.3556 86.0389 65.2932 81.4281 68.0338 77.2264C68.7332 76.154 68.5416 74.7345 67.5883 73.8848L61.4646 68.4139L70.9765 58.415L77.7323 64.4403C78.5871 65.2019 79.8356 65.3055 80.8045 64.7045C84.7781 62.2229 89.1092 60.4511 93.6787 59.446C94.8599 59.187 95.7044 58.1353 95.7044 56.923V48.2814H109.485V56.923C109.485 58.1353 110.325 59.187 111.506 59.446C116.039 60.4459 120.349 62.2022 124.307 64.6579C125.271 65.264 126.52 65.1552 127.374 64.3937L134.141 58.3581L143.663 68.3518L137.544 73.8123C136.586 74.6671 136.399 76.0919 137.104 77.1643C139.87 81.3762 141.818 86.0079 142.901 90.9244C143.16 92.1108 144.207 92.9553 145.414 92.9553H154.035V106.772Z" fill="#FF7900"/>
<mask id="mask0_649_123" style="mask-type:luminance" maskUnits="userSpaceOnUse" x="50" y="20" width="104" height="23">
<path d="M50.9258 20H153.049V42.697H50.9258V20Z" fill="white"/>
</mask>
<g mask="url(#mask0_649_123)">
<path d="M52.294 40.9821C52.724 41.5106 53.4648 41.9095 54.1539 41.9561C54.1539 41.9561 58.9668 42.2514 59.0186 42.2514C60.3708 42.2514 61.5054 41.1997 61.5883 39.8268C61.6401 39.0445 61.3137 38.3451 60.7904 37.8374C73.0896 29.5326 87.3367 25.1652 102.361 25.1652C119.411 25.1652 135.471 30.776 148.812 41.4018C149.931 42.2877 151.547 42.096 152.433 40.9821C153.314 39.8683 153.133 38.2415 152.014 37.3556C137.756 25.9993 120.587 20 102.361 20C86.1555 20 70.7997 24.7663 57.568 33.8016C57.4022 32.7033 56.5785 31.7914 55.4335 31.6257C54.0088 31.3925 52.7136 32.3976 52.5115 33.8119L51.7655 39.0083C51.6671 39.7025 51.8588 40.433 52.294 40.9821Z" fill="#FF7900"/>
</g>
<mask id="mask1_649_123" style="mask-type:luminance" maskUnits="userSpaceOnUse" x="50" y="156" width="104" height="25">
<path d="M50.9258 156.757H153.049V180.148H50.9258V156.757Z" fill="white"/>
</mask>
<g mask="url(#mask1_649_123)">
<path d="M152.433 159.151C152.024 158.638 151.215 158.218 150.568 158.182L145.859 157.897C144.48 157.85 143.216 158.897 143.133 160.322C143.087 161.104 143.413 161.803 143.931 162.306C131.632 170.611 117.385 174.983 102.361 174.983C85.3056 174.983 69.2452 169.362 55.9151 158.736C54.8012 157.856 53.1796 158.037 52.2937 159.151C51.413 160.265 51.5943 161.897 52.7082 162.782C66.9605 174.139 84.1296 180.148 102.361 180.148C118.571 180.148 133.927 175.372 147.159 166.336C147.325 167.435 148.143 168.347 149.293 168.512C149.418 168.533 149.542 168.544 149.666 168.544C150.925 168.544 152.029 167.616 152.21 166.331L152.961 161.13C153.06 160.436 152.868 159.705 152.433 159.151Z" fill="#FF7900"/>
</g>
</svg>
