<svg width="1913" height="404" viewBox="0 0 1913 404" fill="none" xmlns="http://www.w3.org/2000/svg">
<path d="M329.9 399.111C361.656 321.612 444.168 198.54 934.641 235.631C1558.8 282.832 1505.2 473.851 1911.51 370.679M308.161 372.889C339.746 295.399 421.914 172.343 911.301 209.486C1534.08 256.753 1480.84 447.755 1886.08 344.635M271.667 347.375C303.422 269.877 385.934 146.804 876.408 183.895C1500.57 231.096 1446.97 422.115 1853.27 318.944M235.532 322.525C267.117 245.035 349.285 121.979 838.672 159.122C1461.45 206.389 1408.21 397.391 1813.45 294.271M192.019 298.029C223.604 220.539 305.772 97.483 795.159 134.626C1417.94 181.893 1364.7 372.895 1769.94 269.775M148.147 272.868C179.902 195.37 262.414 72.2976 752.888 109.388C1377.05 156.589 1323.45 347.608 1729.75 244.437M108.323 248.195C139.908 170.705 222.076 47.6493 711.463 84.7922C1334.24 132.059 1281.01 323.061 1686.24 219.941M68.4989 223.522C100.254 146.024 182.766 22.9515 673.24 60.0424C1297.4 107.243 1243.8 298.262 1650.11 195.091M35.694 197.831C67.279 120.341 149.447 -2.71492 638.834 34.428C1261.61 81.6951 1208.38 272.697 1613.61 169.577M3.00009 172.347C34.7094 95.0867 117.072 -27.6084 606.36 9.35108C1229.01 56.3847 1175.47 246.816 1580.84 143.949" stroke="url(#paint0_linear_1277_485)" stroke-width="5"/>
<defs>
<linearGradient id="paint0_linear_1277_485" x1="266.774" y1="165.562" x2="1211.66" y2="407.901" gradientUnits="userSpaceOnUse">
<stop stop-color="white" stop-opacity="0.04"/>
<stop offset="1" stop-color="white" stop-opacity="0.1"/>
</linearGradient>
</defs>
</svg>
